<svg id="Layer_1" data-name="Layer 1" xmlns="http://www.w3.org/2000/svg" viewBox="0 0 447.98 352.06"><title>10</title><path d="M197.08,110.13c-.21,1,.39,1.82,3.63,5.57,5.08,5.91,5.92,6.72,7.52,7.53a12.45,12.45,0,0,0,5.3,1.54c4.54.18,6.7-2.66,10.6-4a16.71,16.71,0,0,1,13.24,1.12c5.07,2.91,6.71,8.56,8.23,13.8,1.57,5.42,1.63,9.43,1.81,14.92.57,17.53,1,11.85,1.67,34.15.3,10.65.29,15.44.28,17.57,0,3.43-.09,8.05-.42,16.45-.7,17.79-1.77,31.87-2.23,37.64-1.12,14.05-1.18,11-2.09,22.87a428.27,428.27,0,0,1-6.55,46.56,18.57,18.57,0,0,1-4.6,9.62,20.86,20.86,0,0,1-8.09,4.88,38,38,0,0,1-8.08,1.81c-2.2.2-2.62,0-2.93.42-1.71,2.23,7.9,12,15.06,19.24a71.43,71.43,0,0,0,8.78,7.11C241,370.82,241.48,371,242,371c5.3.18,9.73-12.83,11.16-17,2.67-7.85,3.29-13.16,4.6-21.47,3.32-21.16,4.46-19.52,6.27-34.29,1.35-11,.64-11.28,2.37-26.07,1.37-11.68,2-13.22,2.93-21.33,1.27-11.24.54-12.64,1.25-34.3.94-28.55,2.35-29.85.56-39.45-1.47-7.88-3.14-10.93-3.21-19-.09-11.73,3.4-13.92,1.68-21.61-1.54-6.86-5.66-11.12-13.67-19.38-5.41-5.6-9-9.17-14.91-10.88-3.48-1-6.55-1-12.69-1-7.65,0-7.13,1-13.66.83-5-.13-7.82-.78-12.27.56C200.47,107.22,197.49,108.15,197.08,110.13Z" transform="translate(-22.93 -105.25)"/><path d="M65.48,242.36c-7.77,5-9.68,14.18-10.88,19.95a53.17,53.17,0,0,0-.73,14.87c.34,6.12.71,12.8,4,20.68,1.23,2.95,6.24,15,17.45,21.81,1.4.86,1.4.71,11,6,5.94,3.27,8.91,4.91,10,5.61,3.07,2,6.41,5,13.35,15.6,5.24,8,8.31,14,14.22,25.57,8.91,17.45,9.28,20.47,8.74,23.46-.3,1.66-1.14,4.73.5,7.23s4.93,3.45,7.61,3.25c6.26-.48,9.74-7.79,10.6-9.61a22.52,22.52,0,0,0,2.12-9.36c.19-9.59-3.18-17.09-7.11-26.44-8.2-19.51-6.63-18-12.73-31.19-5.06-11-7.6-16.47-10.6-20.21-3.77-4.7-9.41-9.16-20.71-18.09a109.16,109.16,0,0,1-15.72-14.85,22.68,22.68,0,0,1-5.36-9.73c-.65-2.76-.55-5-.38-8.61a34.47,34.47,0,0,1,1.62-10.48c1.62-4.59,3.48-5.73,2.75-7.23-1.23-2.54-7.71-1.75-9.73-1.5A22.77,22.77,0,0,0,65.48,242.36Z" transform="translate(-22.93 -105.25)"/><path d="M27.35,415.19c-3.94,1.26-4.29,10-4.37,11.93a19.46,19.46,0,0,0,1.74,10.2c2,3.95,5.11,5.81,10.26,8.81,1.5.87,6.23,3.54,18.6,7.63,7.32,2.42,11,3.63,13,3.54,6.48-.29,10.11-4,19.29-10.55,0,0,6.14-4.4,18.31-11.79,9.17-5.57,18.28-8.6,36.49-14.64,6.52-2.17,18.67-6,34.34-10.06,15.49-4,17.71-3.8,30.87-7.56s13.17-4.57,26.16-8.26a253.29,253.29,0,0,1,30.8-7.21c14.7-2.36,14.37-.63,33.16-3.06,16.78-2.16,18.74-3.75,31.64-4.57a193.59,193.59,0,0,1,24.9.2c19.44,1,29.15,1.54,40.38,5.76a109.81,109.81,0,0,1,21.85,11.52c9,6.11,11.76,10,20.82,13.59a53.75,53.75,0,0,0,16.22,3.54c6.66.42,11.62.73,15.18-2.5,4.68-4.24,3.88-11.82,3.75-13.1-1-9.35-8.29-15.33-19.35-24.13s-17.22-13.7-27-16.22c-9-2.33-14.34-.89-30.58.62-12.85,1.2-25.8,1.11-38.68,1.88-70.61,4.21-68.88,3.75-80.49,5-14.44,1.53-31,3.34-52.83,7.69-18.73,3.74-32,7.48-55.53,14.15-17.32,4.89-30.41,9.08-56.57,17.47-22.3,7.14-33.52,10.75-36.61,12.68a41.56,41.56,0,0,1-15.18,6c-3.39.6-7.45,1.31-12.19-.11-2.06-.62-5.09-2.24-11.05-5.47C29.57,415.42,28.66,414.76,27.35,415.19Z" transform="translate(-22.93 -105.25)"/><path d="M308.41,199.19c-5.07,8.16.62,20.21,2,23.14,1.74,3.69,5.84,12.4,15.65,16.82a28.81,28.81,0,0,0,11.49,2.5c8.7.08,14.66-3.84,23-8.82,18.37-11,14.22-6.82,28.15-15.66,14.63-9.28,11.9-9.27,30-21.15,6.48-4.26,11.8-10.33,18.75-13.77,1.52-.75,6.34-3,8.73-8,.52-1.09,1.85-3.87.83-5-1.75-2-9.11,2.48-19.15,7.5,0,0-8.61,4.3-24.48,10.82-9.93,4.08-7.86,2.43-31.14,10.49-9.92,3.44-20.5,5.13-30,9.66-3.63,1.73-8.42,4.28-14,3a18.18,18.18,0,0,1-10.33-6.83c-2.93-4.09-2.72-8-4.83-8.33S308.74,198.65,308.41,199.19Z" transform="translate(-22.93 -105.25)"/></svg>