<svg id="Layer_1" data-name="Layer 1" xmlns="http://www.w3.org/2000/svg" viewBox="0 0 507.22 345.55"><title>15</title><path d="M249.39,88.91c1,5.65,1.66,9.63,4.59,15.4,3.36,6.61,4.79,6,6.22,9.73,2.48,6.51-.52,11.87-3.24,20.81-3.67,12-.74,10.47-4.93,30.7a277.62,277.62,0,0,1-7.21,27.23c-3.63,11.83-5.81,16.83-10.81,30.63-5.7,15.76-9.37,25.88-13,38.44-4.06,14-12.81,47.22-18.82,46.64-.68-.07-2-.64-3.42.06-2.14,1.08-2.49,4.34-2.55,4.95-.33,3.07,1,4.08,2.55,8.94,1.9,5.93.84,7.25,2.88,9.74a11.17,11.17,0,0,0,6.39,3.67c4.94.86,7.44-2.58,11.65-3.35,6.51-1.2,12.07,4.9,17.41,9.42,11.42,9.66,13.17,4.75,34.49,17.09,14.27,8.25,12.35,9.79,32.58,22.35,10,6.19,10.35,5.77,22,13.1,10,6.25,13.16,8.74,25.07,16.13,17.05,10.57,20.42,11.63,24,12,6.73.66,11.08-1.55,18.36.32.72.19,2.43.66,3.2-.16,1.73-1.85-2.94-8.74-3.52-9.58-3.9-5.67-8.4-8.69-12.77-11.66-12.57-8.51-18.89-12.82-20.92-14.85-3.39-3.39-6.2-7.8-11.82-16.6-4.51-7.08-8.11-12.79-9.74-18.53-.4-1.4-.9-2.74-1.92-5.43-1.5-4-2.35-5.67-4-7-.29-.25-2.51-2.09-3.51-1.44s-.19,3.09.48,6.39c1.25,6.2.2,5.67,1.28,10.86,1.25,6,2.83,7.54,3.83,14.21.5,3.33.73,5,0,5.59-2,1.6-7.71-3.8-22-13.42-8.12-5.45-13.73-8.71-15.81-9.9-4.63-2.66-8.15-4.45-13.25-7-12.65-6.38-19-9.57-29.7-14.7C235.84,321.24,227,317.05,224.47,317c-1,0-4.61,0-7.18-2.4a8.69,8.69,0,0,1-2.24-3.83c-1.25-5,3.46-10.3,5.11-12.29.12-.15,4.87-11.28,14.37-33.54,5.34-12.5,8-18.75,9.27-22.19,2-5.57,3.06-9,8.43-27.57,7.65-26.41,7.56-26.31,9-31,2.41-7.66,5.45-17.35,10.21-29.84,4.38-11.51,7.36-23.52,11.77-35,1-2.51,2.71-7,1.75-12.46-.87-5-3.59-8.44-6.86-12.61-2.54-3.23-5.37-5.62-11-10.38-4.72-4-7.88-6.16-11.5-6.23a6,6,0,0,0-4,1.12,6.71,6.71,0,0,0-2.08,4A15.18,15.18,0,0,0,249.39,88.91Z" transform="translate(-1.5 -77.64)"/><path d="M201.45,135.89c-.2,2.87,1,5.05,3.67,9.1,3.9,6,7,10.15,7,10.15,8.59,11.52,7.8,12.34,10.33,13.48,4.69,2.11,10,.43,17-1.75a58.79,58.79,0,0,0,8.93-3.68c9.46-4.62,17.49-7,27.82-10,16.49-4.8,14.24-1.48,25.73-5.6,5.05-1.81,13.29-5.25,24.32-5.25,3.12,0,5.61.28,6.65,1.92.4.64,1.53,3-6.65,16.1-3.22,5.18-3.4,7-5.6,8.4-2.82,1.79-6.28,2.05-9.27,2.28a53.6,53.6,0,0,1-6.65,0c-4.7-.23-6.16-.77-6.65,0-1,1.62,4,6.43,4.37,6.82a28.51,28.51,0,0,0,8.93,5.78c9,3.53,17.68,1.94,21.35,1.22,8.6-1.67,14.14-5.15,22.4-10.32,7.09-4.45,13.18-8.35,18.72-15.75,3.49-4.66,7.29-9.9,6.48-16.28-.45-3.55-2.29-6-5.95-10.85-4.63-6.13-8.15-10.8-14.88-14.35a35.4,35.4,0,0,0-18.55-4,27.7,27.7,0,0,0-12.42,3.32c-6.06,3.44-5.16,6.45-10.15,9.63-5.77,3.67-9.75,1.42-22.93,3-6.06.72-5.85,1.27-15.05,3-19.85,3.69-19.17.81-40.6,3.85-8.17,1.16-15.34,2.58-20.12-1-6.31-4.79-6.83-5.25-6.83-5.25-3-2.62-4.18-4.13-5.77-3.85s-2.43,2-3.68,4.37A14.05,14.05,0,0,0,201.45,135.89Z" transform="translate(-1.5 -77.64)"/><path d="M148.52,141.54c-2.16,2.69,3.48,8.36,9.4,22.2,2.92,6.82,5.24,12.25,6.27,19.6,1.8,12.87-2.6,15.61.79,24,1.41,3.51,4.77,7.13,11.49,14.37,6.22,6.71,9.66,10.34,12,9.41,2.8-1.11,2.51-8.05,2.35-12-.34-8.21-2.32-11.94-4.7-20.9-2.89-10.87-1.39-10.78-4.7-24-2.22-8.87-3.38-13.39-6-17.76-1.8-3-6.84-11.09-16.46-14.37C156.72,141.29,150.43,139.14,148.52,141.54Z" transform="translate(-1.5 -77.64)"/><path d="M1.51,334.66C1.11,340,7.92,343.52,9,344a16.84,16.84,0,0,0,8.51,1.56c13.13-1,39.68-17.29,47.57-21.7,13.36-7.48,27.94-9.85,57.12-14.59,5.8-.94,19.55-2.48,47-5.55,23.92-2.68,25.44-2.63,33-4,18.45-3.34,21.38-5.8,34.55-6.25,7.34-.25,10.88.36,23.61-.17,4.76-.2,10.34-.43,17.53-1.22,16-1.74,19.79-4,33.17-4.68,4.41-.23,3.87,0,13.19,0,16.86-.06,30-.92,37-1.39,20.27-1.37,30.41-2.06,38-2.95,2.78-.33,7.36-.34,16.5-.35,3.91,0,9.25,0,14.75,2.95,2.09,1.1,3.69,2,4.17,3.65.83,2.87-2.39,5.52-8.68,12.15-12.13,12.78-9.9,13.19-14.76,16.15-4.16,2.52-8.55,3.89-10.07,8.33-.34,1-1.09,3.19-.17,4.17,2.66,2.83,15.36-8.57,36.63-17.37,14.11-5.83,23.65-9.78,33.51-7.64,5.66,1.23,11.5,1.52,17.19,2.61a19.9,19.9,0,0,0,9,0,17.63,17.63,0,0,0,6.42-3.13,11.8,11.8,0,0,0,4-4.51,10.58,10.58,0,0,0,.53-7.12c-1.17-3.52-4.47-5.06-8.34-7.12-2.74-1.46-7.15-4.21-16-9.72-4-2.51-6.31-4.18-16.15-10.42a26.06,26.06,0,0,0-11.63-4.51,13.48,13.48,0,0,0-6.42.69,15.27,15.27,0,0,0-5.39,4c-3.35,3.41-2.89,4.62-4.68,5.9-3.18,2.26-7.16.24-13.37-.87-4.94-.88-6.42-.31-15.8-.17-12.38.18-22.68-.63-35.42-1.22-25.29-1.16-47.39-.87-61.11-.69-20.61.27-35.92,1-49.83,1.73-28.08,1.43-42.13,2.14-60.77,4.69-17.5,2.4-31.25,4.35-46.35,9.55-20.29,7-25.35,9.2-25.35,9.2A88.59,88.59,0,0,1,117,299.59c-6.17,1.61-10.06,1.76-15.8,2.43A237.92,237.92,0,0,0,77,306.53c-22.47,5.25-44.19,15.94-55.91,19.28a40.45,40.45,0,0,1-7.64,1.73c-4.06.4-5.46-.27-7.64.87A8.22,8.22,0,0,0,1.51,334.66Z" transform="translate(-1.5 -77.64)"/><path d="M284.48,221.38c-.71,3.16,3.72,4.83,6.55,11.37a26.18,26.18,0,0,1,1.93,9.63c.55,9.21-2.86,16.53-4.82,21-9.08,20.85-4.49,21.46-14.26,42.41a195.76,195.76,0,0,1-11.18,20.43c-7.09,11.36-16.12,25.83-32.19,39.12-9.85,8.15-18.4,12.59-27.56,17.35-4.86,2.53-3.56,1.59-38.55,15.42,0,0-20.3,8-33.53,9.25-4.25.39-5-.62-10.8,0-1.53.17-3.19.42-4.24-.58-1.68-1.6,0-4.73-1.15-5.4-1.28-.75-5.4,2-6.36,6a7.41,7.41,0,0,0,.57,5.2c1.77,3.22,5.83,3.92,9.06,4.44a29.65,29.65,0,0,0,10.6-.2c13.65-3.12,18.77-.21,41.83-5.59,15.45-3.59,29.86-7,46.06-16.57,11.94-7.09,19-14.11,30.26-25.25a261.58,261.58,0,0,0,36.24-45.29,239.63,239.63,0,0,0,15.42-27.37c9.46-20,10.83-30.63,18.89-37.39A25.78,25.78,0,0,0,325,249.13a15.59,15.59,0,0,0,1.34-7.32c-.38-4.65-3.14-7.77-6-11-2.63-3-5-4.63-9.06-7.52-3.72-2.62-6.12-4.29-9.83-5.59-2.69-.94-5.32-1.86-8.67-1.34C290.4,216.73,285.19,218.19,284.48,221.38Z" transform="translate(-1.5 -77.64)"/></svg>