<svg id="Layer_1" data-name="Layer 1" xmlns="http://www.w3.org/2000/svg" viewBox="0 0 387.16 472"><title>17</title><path d="M164.26,67.66c-3.61,2.43-4.59,6.64-5.68,11.36a26.41,26.41,0,0,0-.78,9c.25,2.57.73,7.47,4.13,11.1,1.85,2,3.53,2.46,8.52,4.39,8.31,3.19,12.46,4.79,14.72,6.19,5.74,3.55,8.16,8.92,11.36,16,3.44,7.63,2.38,8.94,6.45,24,3,11.22,4.28,12.88,7.23,24.52,1.26,5,3.34,9.86,3.36,15a4.35,4.35,0,0,0,1,3,2.8,2.8,0,0,0,2.38,1c.77-.17,1.75-1.06,2.39-5a33.7,33.7,0,0,0-.28-11.64c-1.14-6.18.46-5.87.28-17a128.57,128.57,0,0,0-2.25-21.32A125.11,125.11,0,0,0,213,120.85c-3.66-11.53-8.3-19.5-13.18-27.77a98.68,98.68,0,0,0-12.48-17.39c-6.59-7.2-10.63-9.22-14.59-9.67C171.41,65.86,167.58,65.42,164.26,67.66Z" transform="translate(-25.78 -35.35)"/><path d="M113,130.94c.89,10.92,2.94,16.55,2.94,16.55,1.82,5,4,8.6,8.28,15.84,3,5.08,5,7.77,8.41,9a11.92,11.92,0,0,0,4.77.56c6.94-.39,12-4.54,16.54-7.85a140.14,140.14,0,0,1,17.53-11.08c7.05-3.67,14.05-6.24,18.65-11.78a13.17,13.17,0,0,0,3-6.31c.19-1.22.73-4.68-1.13-6.31-1.37-1.21-3.29-.74-7.85,0-7.93,1.28-2.91,0-10.37,1.4s-13,2.83-14.59,3.23c-12.74,3.22-14.12,4.23-20,4.76-6.37.58-9.55.86-12.2-1-3-2.06-3.89-5.38-9.39-9.53-1.24-.93-2.71-1.91-3.65-1.4S113,129.84,113,130.94Z" transform="translate(-25.78 -35.35)"/><path d="M150.2,185.35a77.29,77.29,0,0,1-8.27,5.75c-5.68,3.57-8.1,4.19-8.14,5.75s1.69,2.32,4.07,4.06c4.76,3.5,3.56,4.1,9.11,9,5.18,4.54,6.43,4.43,8.14,7.29a18,18,0,0,1,2.24,7.85c1.3,11.47.56,17.95.56,17.95-1.59,14,1,13.9-.7,46.27-1.35,26.49-2.86,22.7-2.1,31.13.71,7.93,2.3,14.19-1.41,20.33a96.81,96.81,0,0,0-6.45,10.6c-2.38,4.77-2.59,6.51-2.25,8.06s1.15,3,6.45,7.1c6.93,5.41,7.44,4.35,10,7.1,4.34,4.65,3.05,7.83,7.43,11a12.71,12.71,0,0,0,7.42,2.59c6.08-.17,9.56-6.46,15.49-13.23a109.86,109.86,0,0,1,18.07-15.49c6.23-4.39,13.35-7.68,37.11-12.59,10.15-2.1,23.08-4.44,44.21-7.1,48.62-6.13,35.73-.75,56.8-4.2,2.23-.36,13-2.16,23.88,1.94,5.24,2,8.1,4.4,10,6.78a21.11,21.11,0,0,1,4.2,9.68c1.08,6.84-1.62,12.3-4.2,17.75-10.57,22.3-7,18.42-12.26,27.43-2.91,5-2.41,3.44-24.2,31.3,0,0-12.71,16.24-23.56,24.2a55.31,55.31,0,0,1-8.07,4.84,35.72,35.72,0,0,1-9,3.23,28.29,28.29,0,0,1-10.33.32c-6.62-1.2-10.94-5.57-12.91-7.42-2.24-2.11-14.19-7.86-38.08-19.36-19.21-9.25-17.65-8-27.11-12.91-15.64-8.06-23.46-12.1-24.84-12.91-7.24-4.22-12.19-7.56-13.24-6.45s2.75,6.7,5.17,9.68c4.7,5.8,9.95,9.51,22.26,16.78,10.81,6.38,10.12,5.51,15.17,8.71,2.35,1.49,8.13,5.26,20.66,15.82C252.8,463.46,259,468.7,267,477.16c10.94,11.64,16.41,17.45,18.07,22.91a9.77,9.77,0,0,0,2.91,4.84c3.63,3.14,10.09,3.12,14.52.65,4.7-2.62,4.68-6.67,8.39-12.59s7.46-7.84,18.07-15.16c8.36-5.77,16.35-12.05,24.53-18.07,24.19-17.82,29.09-37,56.47-84.55a21.45,21.45,0,0,0,2.9-8.39c.21-1.8.55-6.87-3.87-15.49a59.38,59.38,0,0,0-13.88-17.43,73.64,73.64,0,0,0-22.59-13.55c-4.16-1.59-12.43-4.33-32.27-5.17a252.41,252.41,0,0,0-48.08,2.58c-16.79,2.56-14.83,3.84-42.27,9.36-29.49,5.94-27.85,3.67-45.51,8.07-24.45,6.09-31.14,11.32-36.46,7.1-4.56-3.61-2-9.26-.65-41.31.87-21.08,1.31-31.62,1-40a183,183,0,0,1,.71-23c1.08-11.63,2.49-14.64,3.49-16.41,2.78-4.94,5.88-6.5,6.13-11,.23-4.11-2.12-7.37-3.55-9.36-4.07-5.66-7.26-4.4-12.27-10-4.45-5-4.93-9.35-7.74-9.36C153.76,181.88,153.4,182.73,150.2,185.35Z" transform="translate(-25.78 -35.35)"/><path d="M179.9,192.31c-.71,2.2,3.2,3.9,6.62,9,3.13,4.69,1.7,6,4.81,10.23,1.29,1.74,5,6.72,9.33,6.32,2.78-.25,4.65-2.59,6.92-5.41,3.9-4.87,3.31-7.65,7.22-10.53a8.8,8.8,0,0,1,5.11-2.11c1.77,0,2.62.68,5.72,1.5,0,0,1.5.4,4.81.91C240,203.69,262,195,262,195c10.44-4.11,19.09-7.51,30.69-8.73a190,190,0,0,1,31-.9c3.72.28,10.09.93,16.55-2.41,1.67-.86,7.42-3.83,7.52-8.12.06-2.68-2.16-4.7-6.62-8.72-3.54-3.21-4.17-3-9-6.92-5.66-4.62-5.61-5.62-8.12-6.32-3.07-.86-3.44.53-9.63,0-3.63-.31-4.79-.91-6.32,0-1.68,1-1.57,2.47-3.61,5.11a20,20,0,0,1-4.21,3.91c-7.22,5.52-17.45,7.83-17.45,7.83-1,.22-11.71,3.86-33.09,11.13-9,3.06-18.19,5.63-27.08,9-7.74,3-12.07,4.95-18.05,3.91a113.92,113.92,0,0,1-12.63-3c-2.28-.71-5.52-1.82-9-.61C181.78,190.6,180.29,191.11,179.9,192.31Z" transform="translate(-25.78 -35.35)"/><path d="M227.74,196.82c-1.09,3.71,2.67,5.34,5.71,13.84,1,2.84,2,6.48,2.11,23.77.11,13.73-.46,13.82-.3,24.37s.25,16.53,1.2,25c1.42,12.59,3.2,16.78.3,22.57a23.56,23.56,0,0,1-9,9.62c-5.82,3.32-11.29,2.65-12,5.42-.37,1.36.62,2.78,2.71,5.11,6,6.72,11,9.69,16.55,14.14,7.52,6.06,8.4,8.72,10.23,8.13,3.33-1.09,1.8-10.42,3-26.48.88-11.65,2-10.55,3.61-25,2.2-19.22.11-20,2.11-37.6,1.7-15,2.56-22.56,5.41-31.29,3.12-9.53,6.42-15,4.82-23.16-.36-1.82-1.88-9.56-8.43-13.84C245.79,184.92,229.75,189.94,227.74,196.82Z" transform="translate(-25.78 -35.35)"/><path d="M201.26,246.46c-.6,2.19,3,5,10.23,10.53,6.1,4.69,7.91,5,9,5.11,4.55.32,8-3,10.53-5.11,3.21-2.62,13.67-5.76,34.59-12,13-3.9,19.48-5.84,22-6,5.86-.42,10.23.22,13.84-3,3-2.67,5.05-7.63,3.31-11.13s-6.77-4.09-10.83-4.51c-5.06-.53-7.91.72-21.06,4.21-7.12,1.89-5.72,1.4-9.32,2.41-17.59,4.91-19.88,7.86-34.6,11.73-13,3.4-15.34,3.91-15.34,3.91C205.24,244.33,201.81,244.49,201.26,246.46Z" transform="translate(-25.78 -35.35)"/><path d="M202.47,292.49c-1,3.47,6.53,9.12,13.23,11.73a31.3,31.3,0,0,0,9.93,2.11c12.47.49,16.94-6,34.3-12,15.36-5.34,25.27-6.92,25.27-6.92,7.19-1.14,14.72-1.63,17.75-6.91.35-.63,1.79-3.14.9-5.42-1.54-3.92-8.83-4.31-18.05-4.81-5.71-.31-9.22-.48-13.84.6-5.5,1.28-8.44,3.36-12.33,5.41-10.33,5.45-20.22,6.94-30.09,8.43-7.08,1.06-11.54,2.21-20.46,4.51C205.12,290.2,202.92,290.86,202.47,292.49Z" transform="translate(-25.78 -35.35)"/><path d="M202.16,375.52a113.9,113.9,0,0,1,7.22,9.63c5.27,7.42,5,8.12,7.53,10.53,2,1.84,5.92,5.54,11.74,5.95,4.82.33,8.47-1.77,10.52-2.94,6.3-3.63,9.59-9.32,12-13.84,3.75-7,3.06-9.35,6.83-12.81,2.24-2.06,4.69-3,9.52-5,5.06-2.05,7.9-3.2,11.38-3.31,6.41-.2,11.31,3.24,14.28,5.38,6.32,4.57,5.7,7.14,16.34,21.31,6.31,8.4,10.42,12.29,15.32,14.49a48,48,0,0,0,7.65,2.48c4.38,1,6.68,1.58,9.52.83.83-.22,5.43-1.43,7-5.17s-.77-8-2.9-11.59a41.38,41.38,0,0,0-11.18-12c-6.35-4.89-13.55-10.43-25.24-15.32-7.69-3.21-13.87-5.8-22.76-6.2a55.81,55.81,0,0,0-18.83,2.48c-5.63,1.66-10,4-18.62,8.69-4.3,2.33-8.46,6.29-15.94,9.31-2.89,1.17-4.44,1.53-6.2,1.45-4.08-.18-5.35-2.53-12-6.41s-7-2.49-11-5.59c-4.2-3.28-6.12-6.66-8.07-6-1.15.38-1.74,2-1.86,3.1C194.16,368.27,197.45,370.22,202.16,375.52Z" transform="translate(-25.78 -35.35)"/><path d="M27.67,390.15c1.54,3.78,2.83,4,7.35,10.07a105,105,0,0,1,10.26,16.06c2.84,5.61,3.44,8.36,6.77,10.25a19.33,19.33,0,0,0,7.55,1.94,29.12,29.12,0,0,0,8.51-.2c7.29-1.5,6.94-6.53,15.48-11,6.94-3.64,10.55-2.11,13.55-6.38,1.31-1.88,1.38-3.28,3.87-6.58a22.87,22.87,0,0,1,5.22-5.23c1.85-1.28,3.31-2.29,5.42-2.51,2.9-.3,5.2,1.09,7.16,2.32,1.19.75,2.49,1.73,7,6.77s4.51,5.56,6.77,7.55,4,3.56,7,4.64a18.21,18.21,0,0,0,19-4.25c2.5-2.57,3.41-5.71,5.22-12,1.64-5.67,2.83-10,.78-11.8a5.24,5.24,0,0,0-3.49-1c-.73,0-2.15.14-5.22,2.13-3.53,2.27-3.61,3.35-5.61,4.06s-3.92.25-5.81-.19c-11.38-2.69-10.58-1.37-13.93-2.52-6-2.07-5.36-3.49-9.48-4.26-3.33-.62-6.39.1-12.39,1.55A125.25,125.25,0,0,0,94.43,394c-6.79,2.53-7.06,3.13-11.61,4.45a45.41,45.41,0,0,1-11.23,2.13A33.59,33.59,0,0,1,60,399.44c-1.12-.33-2.79-.9-10.45-5.42s-11.71-6.92-14.32-9.29c-5.34-4.85-6.7-8.45-8.12-7.93C25.24,377.48,25.29,384.35,27.67,390.15Z" transform="translate(-25.78 -35.35)"/><path d="M269.17,41.24a13.85,13.85,0,0,0-2.66,8.32c.06,2,.59,3.69,2.48,7.44,3.08,6.1,4.57,7.35,6,10.26,2.14,4.32,2,9.13,1.59,18.76A83.79,83.79,0,0,1,275,101.6a71.26,71.26,0,0,1-8.85,22.3c-1.29,2.07-1.12,1.54-14.69,17.52-4.87,5.73-7.75,9.16-12.39,13.81,0,0-7.46,7.45-13.63,10.26-3.29,1.49-4.07,1.77-4.07,1.77-3.15,1.11-4.42,1-5.31,2.12s-1.14,3.56-.18,4.61c2.21,2.39,10.42-1.83,15.4-4.43a115.54,115.54,0,0,0,21.77-14.87,153.6,153.6,0,0,0,21.24-21.94A123.63,123.63,0,0,0,287.57,112c7.29-14.44,9.51-25.77,12.22-39.82,2.18-11.39,2.09-16,.17-20.71-3.09-7.58-9.39-11.64-11.15-12.75-3-1.87-6-3.76-10.09-3.36C273.11,36,269.79,40.38,269.17,41.24Z" transform="translate(-25.78 -35.35)"/><path d="M255.18,104.78c-1.47,5.9,7.39,12.31,8.5,13.1,7.94,5.63,16.95,5.32,20.71,5.13,7-.34,8.64-2.14,19.64-5.31a158.16,158.16,0,0,1,28-5.48c12.58-1.25,17.12-1.89,26.19-3.19a21.76,21.76,0,0,0,9.74-3.72c1.8-1.28,6.38-4.55,6.37-8.85,0-5.51-7.6-9.6-12.57-11-4.7-1.3-8.65-.59-14.51.53a86,86,0,0,0-15.58,4.6,156.14,156.14,0,0,1-26.9,7.61c-2.35.55-4.38,1-7.26,1.6-14.07,2.77-21.1,4.16-27.25,2.83-5.5-1.19-9.33-3.6-12.57-1.42A6.49,6.49,0,0,0,255.18,104.78Z" transform="translate(-25.78 -35.35)"/></svg>