<svg id="Layer_1" data-name="Layer 1" xmlns="http://www.w3.org/2000/svg" viewBox="0 0 501.07 393.74"><title>3</title><path d="M72.57,115c-3.07,2.51-2.82,4.4-5.24,7.56-3.91,5.12-7.15,3.49-9.59,7.7-1.19,2.06-1.13,5.25-1,11.62a53,53,0,0,0,1,11.48,32.9,32.9,0,0,0,4.51,11.77,29,29,0,0,0,7.85,8.14c2.63,1.77,3.32,1.53,12.49,4.79,8.61,3.07,9.55,3.84,11.92,3.35s2.87-1.61,8.86-6.4c5.24-4.18,4.85-3.3,9.59-7.12s8.79-7.63,11.33-10c5.2-4.9,5.1-5.21,6.69-6,4.49-2.15,6.93-.44,11.91-2.91.54-.26,2.31-1.63,5.81-4.36,2.55-2,4.12-3.34,7.24-5.63,1.11-.81,1.67-1.22,2.5-1.78a48.79,48.79,0,0,1,7.41-4.21c3.38-1.46,5.05-1.56,8.28-2.47,7.5-2.11,7.71-4.1,15-6.54,2.73-.92,1.13-.11,12.35-2.61a56.46,56.46,0,0,0,14.82-5.53c2.12-1.16,3.48-2.11,3.78-3.63.5-2.51-1.75-5.69-4.51-6.68s-4.47,1-10.44,2.7c-4.67,1.38-5.22.62-13,2-4.85.85-8.33,1.8-11.76,2.73-11.45,3.11-12.91,4.88-23.18,7.7-7.54,2.07-6.39,1-14.08,3.15-6.78,1.88-12.35,4-20.36,7a111.66,111.66,0,0,1-15.15,5c-6.58,1.6-9.38,1.52-12,.5a16.79,16.79,0,0,1-7.28-6c-2.09-3-1.18-3.93-3.73-7.54-2-2.78-3.07-3-4.14-5.63s-.65-3.76-1.74-4.39C76.73,111.73,73.21,114.52,72.57,115Z" transform="translate(-2.69 -60.25)"/><path d="M190.79,150.87c.8-2.61,5.87-1.33,15.84-4.47,5.08-1.6,6.55-2.82,10.49-2.82a24,24,0,0,1,8.36,1.65,32.49,32.49,0,0,1,7.28,4.08c11.74,7.91,11,8.28,14,9.43,4.79,1.82,6.57.83,10.59,3.4a20.09,20.09,0,0,1,5.48,5.24c6.21,8.31,7.14,21.54,7.27,23.67,1.64,26.64.25,30.09,1.87,46.51.68,7,1.39,11.09,1.86,20.12.28,5.56.21,7.92.33,20.47.11,10.92.16,8.44.34,23.68.18,14.61.26,22,.15,27.54-.23,12-.69,11.09-1,23-.27,10.7-.52,20.66-.07,33.72.3,8.77.78,14.92-1.76,23.11-1.33,4.3-1.78,3.62-3.89,9.84-4.42,13.05-2.66,16.66-6.86,20.59-3.64,3.41-8.63,4.13-8.62,7.1,0,1.63,1.52,2.41,1.14,4.12-.41,1.88-2.82,3.54-4.57,3.12-1.42-.33-1.39-1.77-3.51-4.34-.51-.62-3.82-4.62-5.95-3.89-.6.2-.54.59-2.37,2.28-1.05,1-1.58,1.48-1.91,1.53-1.61.26-2.9-3.3-6.1-8-2.8-4.13-3.64-4.1-6.25-8.31a56.54,56.54,0,0,1-3.05-5.72c-3-6.63-1.82-13.75-1.38-24.26.5-11.7-.11-22.94-.23-24.94A137.32,137.32,0,0,1,218.2,363c.13-2.19.36-5,.38-5.19.29-3.45.5-5.79,1-8.84s.41-1.52,1.3-6.11a10.71,10.71,0,0,1,1.45-4.12c.19-.3,1.42-2.21,2.06-2s-.06,3-.16,7.7c0,1.95.13,4,.46,8.09a62.23,62.23,0,0,0,.84,7.63c.55,2.34,1.54,4.46,3.51,8.69,2.05,4.41,3.54,7,3.89,7.63a48.86,48.86,0,0,0,5.8,7.55c.7.78.9,1,1.14.92,1.71-.26.56-9.93,1.53-25.94.83-13.68,2.16-14.68.91-18.46-.3-.92-1.51-4.25,0-5.95,1.06-1.18,2.71-.73,3.28-1.9.26-.54.21-1.24-1.68-4.66s-2.54-4-3-5.87a12.64,12.64,0,0,1-.23-3.28c0-9,0-13.43-.08-13.73-.21-1.16-.79-3.78.23-4.42.4-.25.87-.1,1.53-.54a2.7,2.7,0,0,0,1.07-1.45c.37-1.41-1.38-2.57-2.52-4.42-.45-.73-1-1.9-1.3-6.1a72.3,72.3,0,0,1,.31-12.05c1-10,1.72-11.94.38-15.41-1-2.61-1.77-2.41-2.75-5.11-1.78-4.95-.6-9.46,0-12.21,1.19-5.43,1.26-10.45,1.38-20.48.07-4.87-.95-10.94-3-23.07-2.12-12.69-3.53-17.17-6-21.74-2.07-3.92-3.24-6.13-5.84-8.28-4.51-3.72-7.42-2.41-19.21-6.73-3.87-1.42-7.51-3-10.81-6.4C192.37,155,190.22,152.74,190.79,150.87Z" transform="translate(-2.69 -60.25)"/><path d="M293.8,126.56c-5,2.09-5.57,5.41-12.68,13.62-3.17,3.65-4.4,4.55-4.68,6.81-.37,3,1.47,4.85.4,7.48-.68,1.66-2,2.31-3.87,3.6-3.05,2.07-5.49,4.92-8.3,7.32-8.35,7.13-24.21,25.82-31.41,35.5a74.49,74.49,0,0,1-7.37,8.59c-2,2-3.85,3.61-5.19,4.72a81.19,81.19,0,0,1-7.26,5.36c-7.31,5-7.51,8.31-17.81,17.58-.68.61-3,2.52-7.61,6.34-11.67,9.65-14.21,11.41-15.5,12.27-4.28,2.89-4.9,2.85-7.78,5.19a34.23,34.23,0,0,0-8.24,8.7c-2.13,3.41-1.56,4.15-3.86,7.09-1.81,2.3-2.09,1.76-5.53,5.53-2.44,2.68-3,3.71-4.61,4.1-2.05.48-3.08-.72-4.44.11s-1,2.22-2.13,4.32a11.5,11.5,0,0,1-3.87,3.87c-5.2,3.78-.94,2.24-16.42,13.65-1.78,1.32-8.43,6.19-19.6,13.66-16.36,10.95-17,10.44-24.43,16a64.58,64.58,0,0,1-7.55,5,72.3,72.3,0,0,1-12.1,5.3c-10.78,4-9.39,5.06-26.07,12.34a113.6,113.6,0,0,0-11.28,5.76A74.1,74.1,0,0,0,8,371a30.29,30.29,0,0,0-3.53,3.29C3,376,2.81,376.52,2.74,376.87c-.33,1.75,1,3.61,2.23,4.58,2.1,1.63,4.59,1.21,8.7.82,8.79-.82,8,.14,11.75-.58,3.2-.63,4.15-1.41,17.27-9.29,8.09-4.85,11.94-7.08,13.52-8,3.87-2.23,4.4-2.48,8.7-4.93,8.52-4.87,12.78-7.3,16.21-9.52,7.68-5,6.3-5.42,15.87-12.34,17.2-12.46,25.38-18.22,25.38-18.22,2.21-1.55,3.87-2.71,4.94-4.93.73-1.54.74-2.68,2-3.88.78-.75,1.45-.95,3.76-1.88,1.5-.6,3-1.3,4.47-1.88,3.88-1.51,7-6.51,10.22-10.23,5.69-6.63,7.57-4.6,17.75-14.21l6.46-6.23c4.34-4.19,6.17-6,6.94-6.7,6.13-5.91,12.18-11,22.68-19.74,9.66-8.08,8.62-7,10.45-8.7,7.22-6.85,9.2-10.73,16.1-15.86,3.51-2.61,4.61-2.81,8.82-5.41,11.21-6.93,14.05-12.09,34.31-30.79,9.82-9.06,5.81-4.76,9.52-8.34,3.89-3.75,5.81-6.08,9.75-7.64a22.87,22.87,0,0,1,6.94-1.41c4.71-.4,6,.51,12.34.82,5.63.28,8.49.39,10.57-1.06,3.83-2.65,4.17-8.1,4.23-9.16.12-1.92-.07-4.79-7.63-16.92,0,0-3.41-5.47-12.23-15.52-1.15-1.32-3.22-3.61-6.34-4A8.72,8.72,0,0,0,293.8,126.56Z" transform="translate(-2.69 -60.25)"/><path d="M261.58,90.63c-1.41.45-4.07,1.36-5,3.7a6.41,6.41,0,0,0,2,7.06c2.42,1.85,5.84.84,9.07,0,6.41-1.66,13.08-2.09,19.5-3.7,12.5-3.12,18.82-4.7,22.53-5.15,5.69-.7,5.4-.1,17.7-.45,17.27-.5,18.64-1.71,28.58-1.34a132.58,132.58,0,0,1,21.85,2.8c11.5,2.19,18.69,3.56,27.68,7.51,4.9,2.15,7.54,3.84,13,4.93,4.49.89,10.46,2,16.14-1.12,1.3-.72,6.3-3.47,7.51-8.86,1.15-5.16-1.91-9.55-3.93-12.44-5.63-8.08-14.37-10.83-16.92-11.54-6.94-1.92-7.74.41-15.46-2a78.82,78.82,0,0,1-12.11-5.26c-5.48-3-6.46-4.35-9.52-4.49-4.08-.18-7.49,2.05-9.86,3.59a28.58,28.58,0,0,0-6.5,5.83c-6.13,7.25-23.1,7.59-41.13,9.64-31.63,3.58-28.93,8.13-42.58,7.17C284.11,86.49,276.39,85.94,261.58,90.63Z" transform="translate(-2.69 -60.25)"/><path d="M320.24,232c-.88,2.07,15.08,8.82,37.68,24.42a361.62,361.62,0,0,1,31.81,24.87,326.89,326.89,0,0,1,28,26.53c6.73,7.23,11.51,13.06,12.66,14.48,5.18,6.35,9.75,12.76,18.69,25.32,4.38,6.16,8.95,12.19,13.27,18.39,0,0,2.08,3,13.71,15.83,1.84,2,4.58,5,8.6,5.27a10.53,10.53,0,0,0,6-1.5c.37-.22,4.87-2.93,5.42-7.54.45-3.72-2.14-4.85-1.2-8.44a9.59,9.59,0,0,1,2.86-4.52c1.88-1.68,3.13-1.39,4.37-2.57,2.14-2,1.62-5.9,1.21-8.29a80.39,80.39,0,0,0-8.75-25.32,101,101,0,0,0-14.92-19.15c-7.56-7.56-13.88-11.8-30.9-22.46-23.44-14.68-35.16-22-42.36-25.47-12-5.77-8.84-3-34.82-14.17-8.76-3.76-17.7-7.76-30.6-11.61C335,234.26,321,230.08,320.24,232Z" transform="translate(-2.69 -60.25)"/></svg>