<svg id="Layer_1" data-name="Layer 1" xmlns="http://www.w3.org/2000/svg" viewBox="0 0 396.09 473.32"><title>5</title><path d="M114.52,114.94c-3.3.36-6.94,3.27-7.49,6.68-.48,2.91,1.4,5.44.08,6.61-.54.48-1.17.32-1.64,1a3.37,3.37,0,0,0,0,2.95c1.06,3.34,2.52,3.77,3.69,6.73a16,16,0,0,1,1,4.84,32.16,32.16,0,0,1-.08,5.33c-.18,2.66-.34,2.75-.33,3.85,0,1.55.38,2.92,1.89,6.23,2.71,6,4.11,9,6.15,9.27,1.53.22,2.46-.85,3.69-.17s1.27,2,1.64,3.45c1,4,2.53,3.67,4.23,8,1.34,3.44.25,3.25,1.87,8.55.75,2.49,1.25,3.36,2.06,6.48a18.7,18.7,0,0,1,.88,5.51c-.06,2.43-.76,3-1.18,5.2-.94,4.94,1.84,6,1.77,13.07,0,1.22-.1,2.41-.1,5.21,0,2.34.08,4,.1,4.52a77,77,0,0,1-1.57,19c-1.55,6.41-2.87,6.25-3.44,11.49-.39,3.63.16,4.53-.29,9.83a47.78,47.78,0,0,1-1.57,9.62c-.69,2.42-1.23,3.4-3.93,9.53-2.42,5.48-3.63,8.22-3.84,8.85-2.53,7.68-.32,10.46-2.35,18.27-.67,2.57-1.9,5-4.23,9.82-2,4.12-3.73,7.22-6.38,11.89-3.21,5.65-4.82,8.47-5.7,9.73-3.1,4.41-6.83,7.78-14.15,14.34-1.79,1.61-4.73,4.12-10.61,9.14-4.28,3.65-6.42,5.48-9,7.66-7.22,6-10.9,9.07-14.24,11.2-5.78,3.68-8.66,5.53-12.48,6.39-4.13.93-6.73.44-8.15,2.45-1.56,2.19-.41,5.5.78,8.94a33.76,33.76,0,0,0,5.8,10.32c3.92,4.74,7.91,7.19,12.67,10.12A71.23,71.23,0,0,0,63.08,433c5,1.93,7,2.21,9.13,1.86a14.39,14.39,0,0,0,7.37-3.93c1.25-1.13,2-2.09,5.21-7.86,4-7.16,6.08-10.77,6.39-12.77.46-3-.05-4.81,1.47-6.29,1.82-1.76,4.14-.8,5.6-2.75a5.29,5.29,0,0,0,.49-4.91c-1-2.45-3.45-2.21-4.52-4.91a6.56,6.56,0,0,1-.29-3.44c.22-1.43.73-1.77,2-4.13a38.75,38.75,0,0,0,2.26-5.79,5.26,5.26,0,0,0,.3-3.54c-.18-.51-.39-1.11-.89-1.28-1.17-.38-2.13,2.26-4.42,2.46a2.53,2.53,0,0,1-2.36-.88c-.15-.31-.31-1,2-4.13a50.13,50.13,0,0,1,3.73-4.42c2.61-2.9,3.45-3.78,4-3.54s.17,1.36,1,2.16c1.11,1.09,3.79.89,5-.49.61-.68.7-1.63.89-3.54s-.09-2.23.19-3.53c.21-1,.65-3,2-3.34a2.6,2.6,0,0,1,2.65,1.27c.87,1.54-.73,3,.1,4.62a3.78,3.78,0,0,0,2.55,1.67c2.9.67,5.45-1.9,5.9-2.36,1.2-1.21,1.81-2.54,2.65-5.2a76.48,76.48,0,0,0,2.46-11.1s.55-3.35,1.08-9.44c.23-2.73.28-4.07-.49-5.5-1-1.75-2.36-2.16-2.36-3.53,0-1.16,1-1.46,2.16-3.25,1.06-1.62,1-2.49,1.87-5.2a54.83,54.83,0,0,1,2.45-5.8c1.94-4.72.4-6.17,1.57-15.52.28-2.18.71-4.53,1.58-9.24s1-4.94,1.47-7.56a139.64,139.64,0,0,0,1.67-14.93c.69-9,.22-7.65.69-11.6.27-2.31,1.69-8.06,4.52-19.45,1.56-6.3,1.87-7.46,2.84-9.33,1.51-2.88,2.89-4.15,3.93-7.67a30.69,30.69,0,0,0,1-5.4,28.59,28.59,0,0,0,.39-7c-.43-3.35-2.12-4.65-5.31-9.34A82.79,82.79,0,0,1,139.12,183a99.2,99.2,0,0,1-5.5-13.27c-1.75-5.33-1.15-5.16-3-11.1-2.75-9-4-9.12-5.31-15.13A92.27,92.27,0,0,1,124,130.68c-.27-4.09-.33-7.35-2.26-11-1.76-3.34-3.61-4.21-4.62-4.52A6.11,6.11,0,0,0,114.52,114.94Z" transform="translate(-30 -18.85)"/><path d="M186.49,56.62c-2.87,2.12-1,8.91-.7,9.85.34,1.2,2.17,7.72,8.21,11.26,2.06,1.21,4.66,1.82,9.85,3,4.84,1.14,5.82.93,8,2.11a15,15,0,0,1,6.34,6.81c.94,2.18,1.23,4.59-.47,13.37-1.22,6.28-2.53,11-3,12.9-2.67,9.57-3.79,14.48-4.93,17.6-1.88,5.15-3.88,9.44-5.16,12.2a67.71,67.71,0,0,1-3.52,7c-3.36,5.29-6,6.53-5.63,8.92.36,2.15,3,4,5.39,4.22,3.72.38,6.73-3.06,11-8a103.2,103.2,0,0,0,7-9.62c3-4.4,4.51-6.59,6.33-9.62,3-5,2.83-5.51,7-13.37,5.28-9.85,5.67-9.25,7-13.14,2.16-6.14,3.25-9.21,3.46-12.82a10.82,10.82,0,0,1,1-4.58c1.27-2.61,2.88-2.76,4.25-5,.9-1.47,1-3.56,1.15-7.69.17-4.71.25-7.07-.41-9.24-.79-2.59-2.17-4.23-4.91-7.52-3.85-4.62-6.07-7.29-10.06-9.08-1.53-.69-4.1-1.17-9.24-2.13s-6.16-.81-7.11-.57-1.55.56-6.87,4.25c-4.08,2.83-4.64,3.27-6,3.6a11.54,11.54,0,0,1-6.13-.24,19.41,19.41,0,0,1-5.24-3c-1.71-1.29-2.45-2.17-3.92-2.29A4.59,4.59,0,0,0,186.49,56.62Z" transform="translate(-30 -18.85)"/><path d="M168.48,160.21a16.54,16.54,0,0,0-6.12,8.41c-.63,1.92-1.13,3.42-.77,5.36a10.63,10.63,0,0,0,3.83,6c2.2,1.74,3.86,1.61,4.59,3.37.26.64.08.76.15,3.06.09,3,.13,4.48.8,5.2,1,1.11,2.18.22,4.55,1.43,1.07.54.92.77,3,2.44a45,45,0,0,0,4.9,3.4c2.31,1.44,3.46,2.16,4.15,2.31,1.28.28,2.09,0,7.41-1.9,4.81-1.75,5.78-2.15,6.32-3.33a6,6,0,0,0,.14-3.67c-.53-2.13-1.83-2.69-1.57-4.08a3.87,3.87,0,0,1,1.77-2.18c.52-.38,1.91-1.4,2.72-1s.09,2.21,1,3.33c1.12,1.36,3.88.78,4.35.68,3.71-.77,4.35-3.55,8.77-7.34,1.31-1.12.41-.16,9.17-5.79,6.88-4.43,6.33-4.31,7.81-5,2-1,3.54-1.37,5-3a9.9,9.9,0,0,0,2.15-4.67,11.83,11.83,0,0,0-.94-7.76c-1.73-3.36-4.72-4.76-6.73-5.7a19.63,19.63,0,0,0-6.63-1.68,26.45,26.45,0,0,0-6.55.19c-10.45,1.65-24.46,11.17-31.87,11.87-.4,0-2.73.23-5.7.37-1.94.09-3.14.11-4.39.09a16.64,16.64,0,0,1-4.49-.37c-1.83-.56-2.12-1.26-3.46-1.31A5.48,5.48,0,0,0,168.48,160.21Z" transform="translate(-30 -18.85)"/><path d="M158.71,236.39c-1.19,3.25-1.78,4.88-1.47,6.72.35,2.09,1.77,3.56,4.6,6.44a66.56,66.56,0,0,0,5.52,4.87c5,4.13,7.49,6.21,8.56,6.9s.21.07,8.19,4.42c3,1.63,3.95,2.18,5.7,2.58.45.1,2.36.19,6.17.37,2.61.12,3.93.16,4.23-.46.4-.82-1.18-1.93-.74-2.86.08-.15.39-.68,2.58-.83a16,16,0,0,1,4,.28c2.36.4,3.48-1.15,8.19-3.59a55.19,55.19,0,0,1,10.58-4.51c2.06-.58,4.16-1,5.06-2.76.69-1.33.24-2.57,1.1-3.22,1.07-.79,3,.18,3.87.56,2.77,1.14,5,.39,15.18-2.49,10.64-3,8.54-2.31,12.79-3.59,8.73-2.62,13.1-3.93,14.91-5,2.23-1.27,3.57-2.37,5.88-2.39,3.51,0,4.45,2.44,7.83,2.58,3.13.13,3.35-2,8.18-3.59,1.46-.49,4.74-.7,11.23-1.1,7.3-.46,8-.36,8.83-.19,4.36.94,4.72,2.81,8.47,3.13,3.22.27,3.27-1.08,8.09-1.56a46.11,46.11,0,0,1,9.94.36c3.7.44,5.84,1,6.81-.18.6-.74.44-1.78.28-2.85-.25-1.64-1-3.44-3.22-6.08-2.45-2.88-2.78-2.14-5.43-5.15-1.91-2.16-2.44-3.33-4.23-4s-2.07.09-3.59-.55c-3.07-1.29-2.71-4.88-5.43-5.52a19.47,19.47,0,0,1-2.95-.46,4.53,4.53,0,0,1-2-.92c-1.11-1.1-.18-2.46-.83-4.23-.88-2.4-3.85-3.38-5.34-3.87s-3.14-1-4.87-.46c-2.8.94-3,3.79-5.06,3.87-1.54.06-1.89-1.49-4-1.75-.79-.1-1.76,0-4.05,1.2-3.3,1.73-4.49,3.24-7.08,5.06-1.86,1.3-1.71.85-5.8,3.13-7.57,4.21-9.66,6.62-12.24,5.7-1.28-.46-1.74-1.4-3.49-1.56a6.68,6.68,0,0,0-3.78.92c-2.94,1.47-3.57,3.14-5.33,4.41-2.84,2-6.36,1.42-8.74,1.2-4.83-.44-4.41.91-20.15,3.49a22.77,22.77,0,0,1-6.08.37c-3.15-.25-3.62-1-6.16-1.1-1.36-.05-2.71.11-7.64,1.75-4,1.32-4.43,1.65-7.63,2.76-6.5,2.24-9.81,3.34-12.52,2.57-2.42-.68-3.27-2-5.33-1.56-1.62.31-1.72,1.22-4.7,2.67-1.89.92-3.16,1.52-4.78,1.38-1.86-.16-2-1.11-3.59-1.11-2.09,0-2.33,1.6-4.69,2-1.71.31-3.13-.26-5.52-1.2a11.6,11.6,0,0,1-3.87-2.11c-1.38-1.24-1.65-2.25-2.39-2.21C160.54,233.09,159.85,233.28,158.71,236.39Z" transform="translate(-30 -18.85)"/><path d="M173.78,286.39c3.24-2.05,7.82-3.69,16.66-5.1a79.62,79.62,0,0,1,10-1.08c4.27-.13,6.4-.19,9.21.59a21.62,21.62,0,0,1,9.42,5.49c3.61,3.66,2.47,5.33,5.67,7.53,2.85,2,4.28,1,8.51,3.46a24.52,24.52,0,0,1,5,3.9c.58.57,2.37,2.4,5.7,8a75,75,0,0,1,4.61,8.73c2.38,5.39,3.57,8.08,3,11-.31,1.69-.72,1.32-2.31,6.13-1,3.08-1.32,4.66-1.22,6.41a12.85,12.85,0,0,0,.86,3.83c2,5.41.48,12.52-1.08,20-1,5-1.26,3.87-2.52,9.74-1.1,5.12-1.16,7.07-2.89,9.66-.82,1.23-3,4.51-6.41,4.83-2,.19-3.56-.76-6.71-2.67a32.71,32.71,0,0,1-5.77-4.54c-2.1-2.05-3.37-3.29-4.4-5.48a15.22,15.22,0,0,1-1.37-5.55,8.51,8.51,0,0,1,.44-4.47c.72-1.62,1.58-1.63,1.87-2.81.43-1.74-1.17-2.63-2.16-5.12-.59-1.49-.45-3.87-.15-8.59.27-4.11,1.52-5.32.58-6.56s-2.62-.69-4.11-2.52c-.93-1.15-.83-2.06-1.66-2.31s-1.22.43-3.1,1.3c-1.42.66-2.6,1.2-3.75,1s-1.68-1-3-2.53c-5.12-6.27-5.43-6.76-5.76-7.78-.74-2.28-.24-3-1.16-3.82-1.68-1.51-4,.39-7.06-.58-1.25-.39-2-1.06-5.63-5.48-3.77-4.63-5.77-7.36-5.77-7.36-3.89-5.3-5.86-8-6.63-10a25.72,25.72,0,0,1-1.44-9.37,8.52,8.52,0,0,1,4.48-7.87Z" transform="translate(-30 -18.85)"/><path d="M281.32,276.83c-1.58.46-2.09,3-2.74,6.13a21,21,0,0,0-.58,5.55,15.71,15.71,0,0,0,1.53,6.88c1.08,2.15,2.47,3.36,5.23,5.68a44.44,44.44,0,0,0,10.34,6.64c3.49,1.55,5.73,2.51,8,1.65,1.54-.57,1.51-1.34,3.77-3.25.63-.53,2.05-1.67,8.16-4.53,2.53-1.18,4.35-1.95,7.27-3.19,5.37-2.27,8.12-3.42,11.42-4.46,3-.95,2.83-.71,5.23-1.53,5.08-1.75,5.39-2.68,9.12-4,4.95-1.7,5.21-.35,10.53-2.23,3.72-1.32,3.42-1.91,6.95-2.94,3.19-.92,5.16-.93,5.87-2.42.55-1.15,0-2.5-.45-3.76a12,12,0,0,0-2.93-4.28c-3.32-3.34-4.48-3.33-7.65-6.31s-2.5-3.36-4.47-4.53c-2.36-1.4-4.73-1.62-8-1.91-.4,0-2.44-.07-6.51-.13s-4.17-.05-4.72.06c-2.59.55-4.37,2-6.31,3.57-2.32,1.9-2.32,2.55-4.53,4.41a29.19,29.19,0,0,1-5.43,3.5A45.21,45.21,0,0,1,305.24,277c-3.94.59-5.07.12-7.59,1.34-2.07,1-3,2.18-5.55,2.55a7,7,0,0,1-4.28-.38c-1.53-.75-1.63-1.74-3.63-2.81C283,277,282.17,276.58,281.32,276.83Z" transform="translate(-30 -18.85)"/><path d="M304.37,317.36c-1.1,1.12-1.32,2.4-1.61,4a10.88,10.88,0,0,0,.16,5.63c.65,1.89,1.37,1.86,1.85,3.79a8.68,8.68,0,0,1,.08,3.86c-.37,1.79-1,1.79-1.61,3.86a11,11,0,0,0-.48,4.27c.16,1.58.58,1.69.81,3.78a11.29,11.29,0,0,1,0,3,18.2,18.2,0,0,1-.89,2.81c-.35,1.33-.16,3,.24,6.2a23.87,23.87,0,0,0,.49,3.14,14.7,14.7,0,0,0,2.65,4.91c1.78,2.48,2.72,4,4.59,6.27,2.26,2.81,3.42,4.21,4.5,4.59,2.68.92,5.45-.54,7-1.37,1.75-.93,2.83-1.94,5.23-4.42,2.89-3,4.6-4.94,9.49-10.55,2.48-2.84,3.74-4.3,4.51-5.95.95-2.06.84-2.94,2.17-5,1.09-1.67,1.91-2.24,1.77-3.3s-.89-1.09-2.17-3.06c-.83-1.27-1.25-1.91-1.21-2.57.12-1.93,3.19-2.23,3.54-4,.19-1-.38-2.33-4.18-5.15a54,54,0,0,0-9.26-5.31c-6.65-3.34-6.2-3.69-11.5-6.11-6.58-3-5.06-1.45-8.53-3.3-1.49-.79-3.28-1.88-5.31-1.37A5.05,5.05,0,0,0,304.37,317.36Z" transform="translate(-30 -18.85)"/><path d="M296.48,86.18c-.66,1-1,2.52.67,7.6s2.54,5.42,4,9.58c1.34,3.93,2.47,7.26,2.13,11.56-.08,1-.11.37-1.37,7.14-1.05,5.64-1.16,6.81-1.21,7.45-.15,1.78,0,1.92,0,7.76,0,3.57,0,5.66,0,8.36-.08,4.88-.24,5.5,0,7.6.41,3.7.67,5.93,2.28,7,1.95,1.28,4.73.12,8.67-1.52,2.86-1.2,5.44-2.28,7.75-4.87,1.7-1.91,2.55-3.91,4.26-7.91,1.57-3.69,1-3.46,2-5.17,2.16-3.95,5.59-6.24,8.52-8.21,3.09-2.06,3.94-2,5.62-3.8,1.36-1.43,3.46-3.33,3.35-5.77-.06-1.32-.69-1.51-1.07-3.71a17.88,17.88,0,0,1-.06-4c.2-4.65.55-5,.27-6.39a10.7,10.7,0,0,0-2.27-4.39c-1.53-2.15-3.49-4.91-6.66-5.63-1.82-.42-2.65.16-3.7-.69-1.24-1-.73-2.32-1.52-4.25-.85-2.11-2.83-3.36-6.79-5.84-3.08-1.93-3.33-1.6-5.5-3.23-2.45-1.84-2.43-2.47-4.25-3.43-.86-.45-3.76-2-6.6-1-1.27.42-1.12.88-3.7,2.68C298,85.3,297.25,85,296.48,86.18Z" transform="translate(-30 -18.85)"/><path d="M279.69,136.93c-1.73,1.23-.16,3.5-1.92,7.41-1,2.22-2.14,2.89-1.92,4.57.15,1.14.72,1.29,1.1,3a20.49,20.49,0,0,1,.18,3.48c.09,2.9.15,3.16.27,3.47.51,1.24,1.38,1.51,2.93,2.74a21.45,21.45,0,0,1,6.81,10.19c1.23,4.13.14,5.37,1.41,10.1.59,2.17.95,3.47,2.1,4.79s2.54,2,5.35,3.29c2.32,1.1,3.48,1.65,4.34,1.51,1.81-.29,3-2,5.12-5.21,1.86-2.77,2.36-4.29,3.56-4.34s1.3,1.17,2.92,1.46a5,5,0,0,0,3.7-1.09c1.51-1.21.95-2.24,2.1-3.25,2-1.71,4.45.5,7.41-1,1.91-1,1.32-2.13,3.6-3.88s3.61-1.28,7-2.52,3.52-2.18,7.26-4.16c2.21-1.18,4.7-2,9.59-3.47,5.39-1.66,8.75-2.69,13.42-3.82a30.08,30.08,0,0,0,8.56-3.16,30.39,30.39,0,0,1,2.8-1.82c2.82-1.24,5.27-.37,7.59-.12.67.07,8.68.69,10-2.06.58-1.24-.68-2.21-3.85-7.69-3.33-5.78-3.35-7.15-5.59-8.75a12.79,12.79,0,0,0-6.48-2.1c-4.89-.5-6.71,1.37-12.42,2.45-6.44,1.22-6.09-.8-12.76.35-2.12.37-1.11.39-13.12,4-3,.91-5.26,1.57-8.22,2.28-3.34.79-5.8,1.22-6.83,1.4-15.95,2.84-21.48,7.27-27.28,4a24.7,24.7,0,0,1-6.48-5.42,24.13,24.13,0,0,0-4.19-4.72,9.61,9.61,0,0,0-3.85-2.1C282.64,136.5,280.9,136.08,279.69,136.93Z" transform="translate(-30 -18.85)"/><path d="M361,20.55c-.42,1.05,1.46,2.06,2.05,4.1.31,1.06.33,2.63-.9,4.86a25,25,0,0,0-.25,4.1c.05,1.79.55,4.31,4.09,9.6a87.57,87.57,0,0,0,6.28,7.94c4.11,5,5.27,5.91,7,8.83a24.9,24.9,0,0,1,2.94,6.15c1,3.35.44,4.64.77,10.24.34,5.9,1,5.1,1.15,10,.17,5.45-.64,6.81.39,10.37.9,3.13,1.71,2.75,2.56,5.76.93,3.32.09,4.35.12,11,0,3.6.26,2.79.39,8.19.07,3.17,0,4.71.13,9.22,0,1.86.09,3.57.12,4.35.42,10.71,2.75,14,2.44,22.79,0,.66-.15,2.74-.39,6.91-.32,5.61-.36,5.89-.38,7.3-.06,4.57.37,4.27.25,8.32s-.56,4.69,0,6.66,1.44,2.82,1.28,4.48-1.32,1.64-2,3.71a24.27,24.27,0,0,0-.26,5.12c0,1.2,0,1.8,0,4.48V208c0,4.28.51,6.5.77,11.91.24,4.89-.1,4.54.25,6.78.47,3,1.09,3.83,1.41,7.17.19,2,.05,2.36.26,4.61.18,2,.43,2.9.89,5.51.63,3.51.45,3.19,1,6.53,1,5.9,1.44,6.13,1.41,8.44,0,2.52-.54,2.89-.9,6a36.67,36.67,0,0,0,.13,8.71c.59,6.05-.35,8.67-.64,17.92-.34,10.6.8,10.12.91,24.6,0,4.65-.1,9-.36,17.71-.49,16.14-.8,13.94-.72,18.78.3,18,4.17,21.35.72,28.25a23.63,23.63,0,0,0-3.22,9.66c-.24,3.05.39,4.05.71,7.33.79,7.88-2.16,8.66-2.5,18.43-.2,5.69.72,8-1.25,10.55a20.08,20.08,0,0,1-5.19,4.29c-2.49,1.49-3.48,1.41-4.29,2.5-1.7,2.3,0,6.2.89,8.41,2.81,6.87,4.38,13.29,7.52,26.11,1.14,4.69,1.45,7,3.21,10.91,2.87,6.31,6,8.87,6.8,9.48,2,1.55,4.94,3.86,8.76,3.58,3.62-.26,6.07-2.69,9-5.55a22.89,22.89,0,0,0,5.18-7.15c1.84-4.08,1.82-7.55,1.79-12.52,0-4.42,0-7.68-1.43-11.62-1.91-5.42-4.19-5.84-5.72-10.56-1.16-3.57-.65-5.76-.18-11.8s1.14-14.65.18-23.61c-.8-7.49-2.17-10.12-1.43-15.92.54-4.26,1.43-8.76,1.43-8.76.85-4.34,1.17-4.81,1.25-6.26.29-5.15-3.64-5.7-5-11.63-.35-1.52,0-1-.52-11.95-.17-3.53-.18-3-.21-4.2-.21-6.67.44-10.08.62-15.1.23-6-1-6.82-.48-11.68a36.81,36.81,0,0,1,1.46-7,14.29,14.29,0,0,1-2.79-4.2,15.49,15.49,0,0,1-1.19-5.52c-.25-4,.4-6.26,1.19-11.47a65.57,65.57,0,0,0,1-8c-.1-3.06-.69-3.15-2.24-10.63-1.11-5.35-1.19-7.15-1.12-8.75.13-3.16.73-2.72.84-5.73.17-4.87-1.4-5.73-1.12-10.7a14.85,14.85,0,0,0-.07-3.85c-.37-2.14-1-2.51-1.12-4-.15-2.21,1.23-2.75,1.82-5.11.71-2.86-.88-3.82-1.26-7.76-.25-2.63.37-3.09,1.19-8.25a57.52,57.52,0,0,0,.91-10.14c-.11-6.13-1.53-7.14-.84-12.24.28-2.07.52-2,1.05-5.39.69-4.51.41-5.64,1.54-7.2,1.5-2.08,3.19-1.7,3.56-3.36s-1.23-2.66-1-5.17a6.85,6.85,0,0,1,.77-2.38c2.12-4.58.66-7.78,2.52-12.59.82-2.12,1.11-1.5,3.29-5.24a57.56,57.56,0,0,0,5.59-13.78,47.44,47.44,0,0,0,2.31-11.61c.17-3.27-.19-5.93-.91-11.26-1-7.25-1.48-10.87-3.08-13.56-.54-.91-2-3.12-3.91-6.65a19.83,19.83,0,0,1-1.82-3.84c-.77-2.4-.45-3.51-.7-6.23-.51-5.49-2.24-5.55-1.82-8.74.47-3.52,2.7-4.38,2-6.5s-3-1.63-4.41-4.2c-1.22-2.18-.81-4.8-.49-6.92.43-2.73,1.19-3.29,1-5.18a8.63,8.63,0,0,0-2.16-4.47c-5.09-6.53-7.65-9.82-9-11.33a54,54,0,0,0-6.29-6.36c-2.2-1.71-3.14-2-6.5-4.27A74,74,0,0,1,380.87,29c-3.09-2.66-5.87-5.59-9.93-8.53a7.86,7.86,0,0,0-3.42-1.54,9.85,9.85,0,0,0-4.62.63C361.73,19.93,361.14,20.12,361,20.55Z" transform="translate(-30 -18.85)"/></svg>