<svg id="Layer_1" data-name="Layer 1" xmlns="http://www.w3.org/2000/svg" viewBox="0 0 490.66 381.49"><title>6</title><path d="M51.47,103c2.05,3.86,3.24,15.93,9.17,28a86.19,86.19,0,0,0,10.13,15.37c5.4,7,10.36,11.78,9.53,17-.16,1-.71,3.16.48,4.65.72.91,1.91,1.24,4.28,1.91a16.38,16.38,0,0,0,4.08.73c1.87.08,3.14.13,4.39-.61a18.55,18.55,0,0,0,2.56-2.55,16.73,16.73,0,0,1,1.94-2c1.38-1.08,1.73-.73,2.38-1.47,1.11-1.25,1-3.32.85-4.74a9.27,9.27,0,0,1-.12-2.75,5.3,5.3,0,0,1,.85-2.13c1.07-1.51,2.17-1,3.11-2.19,1.36-1.67.61-4.61.3-5.84a18.43,18.43,0,0,1-.85-2.93,14.34,14.34,0,0,1,.24-3.53,20.59,20.59,0,0,0-.12-4.63c-.38-2.42-1.65-4.06-3.16-6-5.12-6.44-7.67-9.66-8.77-10.54a36.63,36.63,0,0,0-10.6-5.72c-1.39-.46-2.79-.81-5.91-1.89s-3.45-1.34-5.17-1.77c-3.13-.78-3.57-.33-5.3-1.15a13.27,13.27,0,0,1-4-3.23A54.23,54.23,0,0,1,58,100.52C56.85,99,56.3,98.21,55.1,97.66a3.36,3.36,0,0,0-2.92-.24c-1.37.75-1.34,2.87-1.34,3.22A5.26,5.26,0,0,0,51.47,103Z" transform="translate(-21.52 -61.54)"/><path d="M27.06,205.37A20.39,20.39,0,0,0,23.7,213c-.17.85,0,.16-.36,5.68-.25,3.77-.33,3.86-.42,6a31.22,31.22,0,0,1-.21,4.49c-.35,2-.83,2.51-.56,3.79s1.06,1.72.91,2.81-.79,1-1.26,2.24a6,6,0,0,0-.07,3.37A10.49,10.49,0,0,0,23.2,245,14,14,0,0,0,25.59,248c1.11,1.06,1.66,1.59,2.31,1.75,1.82.46,2.63-1.28,4.77-1,1.42.2,1.77,1.06,2.6.77,1.29-.44,1.12-2.78,2-2.87.63-.07.86,1.23,2.6,2.94,1.06,1.06,1.28.87,1.82,1.62.75,1,.5,1.61,1.12,4A12,12,0,0,0,44,258.61a5.88,5.88,0,0,0,2.31,2.53c2.11,1.05,4.72-.07,5.54-.42,1.91-.82,2.4-1.77,3.86-1.69.84.05,1.08.39,2.25.92,1.75.78,5,1.72,6,.63.51-.6-.17-1.23-.21-3.79a14.45,14.45,0,0,1,.42-3.79c.6-2.29,1.35-2.33,1.54-3.86.24-1.83-.79-2.2-1.33-4.84-.63-3.07.54-3.7-.14-5.82s-2-2.57-4.49-4.7a67.28,67.28,0,0,1-6-6.87c-2.55-3.12-2.34-3.14-7.37-9.61-3.68-4.74-4.36-5.46-5.54-6.32-1.61-1.15-2.73-1.53-3.86-3.15-1-1.4-1-2.4-2.38-3.65A4.85,4.85,0,0,0,32,202.71a5.11,5.11,0,0,0-3.86,1.4A6,6,0,0,0,27.06,205.37Z" transform="translate(-21.52 -61.54)"/><path d="M42.42,355.79c-.07-5.4-3.32-10.83-5.29-10.59-1.38.16-2.11,3.11-3.49,8.67a27.51,27.51,0,0,0-1,6.2c0,1.11,0,1.64,0,4.51,0,2.07,0,3.1-.11,3.71A28.45,28.45,0,0,1,31,373.48c-.28.85-.6,1.73-1.24,3.49-.72,2-1,2.62-1.35,3.83a13.44,13.44,0,0,0-.9,3.61c0,1.62.63,1.69,1,3.71.52,2.72-.48,3.36.22,5.64a12.73,12.73,0,0,0,1.69,3A34.28,34.28,0,0,0,33.75,401c2.41,2.7,4.38,4.61,4.39,4.62a111.07,111.07,0,0,1,11.49,13.52,46.1,46.1,0,0,0,5.19,6.42,44.26,44.26,0,0,0,4.73,3.94c2.73,2.08,3.21,2.14,3.49,2.14,2,0,2.49-2.47,6.2-5.86,3-2.77,3.79-2.09,5.52-4.39a14.79,14.79,0,0,0,2.7-7c.17-1.57-.12-1.44,0-3.94.19-4,.91-4.23.68-6.31s-1-1.86-2.26-5.74c-.82-2.57-1.25-4-.9-5.75.44-2.14,1.48-2,1.81-4.06s-.65-2.42-.79-5.74c-.08-1.68.17-1.55.11-3.61-.07-2.62-.47-3-.45-4.84,0-1.13.17-1.09,1-4.85,1-4.23.81-4.57,1.47-6.31.8-2.11,1.15-2,1.35-3.26.29-1.8-.38-2.29-.79-5.41a11.79,11.79,0,0,1,0-4.85c.46-1.72,1-1.57,1.8-3.71.85-2.37.35-3.05,1.24-4.62s1.42-1.2,2.59-2.59c2.55-3,2.3-7.24,2.26-7.89-.1-1.62-.44-1.55-.79-4.51a16.5,16.5,0,0,1-.23-4.28c.41-2.51,1.85-2.76,3.72-6.19,1.26-2.32,2.58-4.73,1.58-6.54a4.34,4.34,0,0,0-4.51-1.8c-1.4.3-2.23,1.32-3.72,3.49-3.19,4.66-3.5,5.92-5.4,8.56-.41.57-2.12,2.45-5.52,6.2-3.74,4.12-4,4.29-5.19,5.75-2.06,2.49-2,2.68-5,6.64-1.64,2.16-3.71,4.89-6.54,8.11C51.78,350,51.67,349.68,50,352s-2.17,3.38-4.51,6.53c-1.9,2.58-3.29,4.42-3.83,4.17S42.48,359.53,42.42,355.79Z" transform="translate(-21.52 -61.54)"/><path d="M141,120.24c-.52,1.91,2.7,3,5.1,7.44.15.28.1.22,2.22,5.75,1.27,3.34,1.91,5,2,5.09,1.75,3.21,4.47,4.78,9.54,7.71A23.75,23.75,0,0,0,166,149a12.36,12.36,0,0,0,12.41-2.74c1.94-1.54,4.48-3.56,4.44-6.14,0-.68-.19-.67-.52-2.87s-.47-3.08-.26-3.79c.09-.32.35-1.06,3.39-3.39,2.52-1.95,2.92-1.88,3.92-3a8.13,8.13,0,0,0,2.09-3.92c.29-1.61.21-4.44-1.44-5.48-.53-.34-2.1-.14-5.22.26a46.84,46.84,0,0,1-4.83.52c-1.63.06-1.47-.07-2.62,0a17.79,17.79,0,0,0-5.48,1.31c-1.87.73-1.7,1-3.39,1.57a12.44,12.44,0,0,1-4.31.91c-2.28,0-2.44-1.06-5.88-2.09s-3.88-.17-5.62-1.3-2-2.29-3.78-2.75a5.31,5.31,0,0,0-2.48,0,7.54,7.54,0,0,0-3.14,2C141.85,119.21,141.15,119.81,141,120.24Z" transform="translate(-21.52 -61.54)"/><path d="M123.84,175.72c-.52.71-.19,1.8.1,2.74.49,1.62,1.23,1.84,1.86,3.62a10.91,10.91,0,0,1,.49,2.35,35,35,0,0,1,.09,4.21,26.69,26.69,0,0,0,.1,2.74,25.83,25.83,0,0,0,1.18,4c.82,2.74.8,3.4.78,3.72-.1,1.44-.64,1.56-.69,2.74,0,.58.08,1.58,2.06,4.3s2.84,2.35,3.62,4.21a34,34,0,0,0,1.08,3.33,6.75,6.75,0,0,0,1.56,2.45,6.14,6.14,0,0,0,3.53,1.37,4.27,4.27,0,0,0,2.93-.3c1.5-1,1.3-3.1,2-3.13.51,0,.67,1.27,1.66,2.74a7.27,7.27,0,0,0,3.33,2.84,6.24,6.24,0,0,0,6.85-2.45c.68-1.08.35-1.59.78-4.4a30.8,30.8,0,0,1,1.76-6.56c.58-1.37,1.86-3.05,4.41-6.36a67.71,67.71,0,0,1,5.28-6.46c2.47-2.43,3.83-3.77,6.17-4.89,2.55-1.22,4.31-1.24,6.16-3.23a4.33,4.33,0,0,0,1.47-2.94c0-2.16-2.34-3.46-2.45-3.52-1.16-.63-2.36-.53-4.69-.29a14.89,14.89,0,0,0-5.87,1.37c-1.86.94-2.06,1.69-4.31,2.64a14.33,14.33,0,0,1-2.94.88,14.17,14.17,0,0,1-5.28-.1c-1.08-.22-.85-.31-4.6-1.47a10.27,10.27,0,0,0-2.64-.68c-2.13,0-2.55,1.44-4.5,1.47-.89,0-1.8-.45-3.63-1.37-1.6-.81-1.76-1.08-3.62-2.16a39.85,39.85,0,0,0-5.18-2.54,19.24,19.24,0,0,0-3.82-1.17C126.94,175.07,124.63,174.63,123.84,175.72Z" transform="translate(-21.52 -61.54)"/><path d="M207.87,102.3c-1.88.94-.69,3.77-3,6.37-1.29,1.46-2.18,1.16-2.84,2.55s.07,2.14,0,4.67a16.35,16.35,0,0,1-1.27,5.51,20.57,20.57,0,0,1-2.26,4.68c-1.09,1.63-1.57,1.78-2,3-.54,1.52-.11,2.26-.15,4.24a16.83,16.83,0,0,1-1.41,6c-1.32,3.56-2.05,3-2.55,5.37-.57,2.7.28,3.92-.92,5.94-.44.73-.7.83-1.63,2.22a25.62,25.62,0,0,0-1.76,3.06c-1.79,3.61-2.88,7.21-5.14,12.11a27.69,27.69,0,0,1-2.48,4.56c-1.84,2.61-2.73,2.68-3.84,4.23-2.38,3.33-.11,5.57-1.56,13.35a55.7,55.7,0,0,1-1.89,7c-.47,1.44-.67,1.92-2.35,6.32-3.2,8.38-3.45,9.2-4.49,11.13-.41.76-1.09,2-2.34,4.3-1,1.83-1.68,3.18-1.89,3.58-2,3.88-4.48,8.16-7.62,13.74-3.48,6.19-5.23,9.28-5.67,10.16-3.58,7.14-4.11,9.92-7.42,14.72-1.28,1.85-1.09,1.17-5.21,6.25-3.72,4.58-4.08,5.3-6.45,8a67.48,67.48,0,0,1-6.64,6.77,33.38,33.38,0,0,1-6.64,5,32.3,32.3,0,0,1-7.88,2.93,18.55,18.55,0,0,1-4.24.78c-.47,0-6.86.06-10.68-4.29-1.35-1.55-1.92-3.13-3.51-3.33a2.51,2.51,0,0,0-2.35.92c-.6.95,0,2.31.78,3.84a86.11,86.11,0,0,0,4.11,7.88,44.74,44.74,0,0,0,4.62,6.38,40.63,40.63,0,0,0,5.08,4.75c3.2,2.53,2.85,1.48,5.6,3.72a3.55,3.55,0,0,0,2.41,1.17c.77-.07,1.12-.56,2.61-2,1.94-1.83,1.74-1.37,3.25-2.86,1.8-1.78,1.92-2.26,2.74-2.41s1.22.43,3.12.78a5.4,5.4,0,0,0,3.19,0c1.41-.64,1.48-2.32,2.35-4.3.55-1.27,1-1.77,4.3-5.27,8.24-8.88,9.1-10,9.31-11.85a15.82,15.82,0,0,1,.78-4,16.8,16.8,0,0,1,1.69-3.45,28.81,28.81,0,0,1,3.65-4.76c4.8-5.19,8.25-8.91,8.2-13.22,0-1.73-.59-3.28.33-5.34a25.71,25.71,0,0,1,2-3.06c1-1.48,1.47-2.41,2.21-3.71,2.09-3.66,3.18-5,4.37-7,2.49-4.28,1.95-5.66,4.95-13.81,1.33-3.64,1.3-3,3.25-7.94C177.56,205.3,176.7,204,180,198c2.71-4.91,3.83-5,5.41-9.19,1.27-3.37,1.25-5.2,3.25-9.24a27.69,27.69,0,0,0,2-4.3c.84-2.54.63-3.69,1.63-5.54a11.28,11.28,0,0,1,2.8-3.19c2.87-2.65,3.06-4.69,5.47-8.66,2.55-4.21,5.4-7,10.35-11.72,2.55-2.45,4-3.62,5.93-6.32,1.39-2,2.93-4.24,3.25-7.36.18-1.68-.21-1.68-.91-6.44-.78-5.32-.39-5.91-1.23-8.86s-1.13-2.15-2-5.21c-1-3.35-.92-5.27-2.61-7.55a5.39,5.39,0,0,0-2.21-1.89A4.15,4.15,0,0,0,207.87,102.3Z" transform="translate(-21.52 -61.54)"/><path d="M238,119.58c-1.89,2.08-1.22,5.34-.79,9.17,1,8.6-.5,9.57.85,18.6a39,39,0,0,0,1.42,6.11,19.82,19.82,0,0,0,2.84,6.11,8.21,8.21,0,0,0,3.69,3.26c1.7.63,3.21.28,5-.14,3.06-.74,4.12-1.77,8-3.55a26.28,26.28,0,0,1,5.82-2.27c3.51-.71,6.12.28,10.22,1.56,9.62,3,9.05,1.81,13.92,3.69a52.51,52.51,0,0,1,14.63,8.95C320,184.13,317,179.85,331.35,191.8c16.58,13.79,17,16.57,35.79,32.67,10.42,8.95,7.85,6,20.73,16.9,13.28,11.22,28.17,20.45,41.33,31.81,3,2.58,7.51,6.59,12.5,5.68,4.7-.85,5.13-5.25,12.49-9.8a37.64,37.64,0,0,1,13.35-4.83c4.76-.88,5.23-.13,16-.71,6.65-.35,10.37-.84,12.36-1.13,7.12-1.05,2.61-1.08,13.21-3.84a4,4,0,0,0,2.27-1.27c2.1-2.62-.83-7.86-1.28-8.67a6.28,6.28,0,0,0-2.56-2.84,4.49,4.49,0,0,0-3.69-.28c-1.46.72-1.2,2.18-2.27,3-1.8,1.34-5.23-.8-9.09-2.7s-1.37-.25-12.64-4.83c-8.2-3.33-10.59-4.63-12.36-5.82,0,0-1.14-.77-2.71-1.75-2.89-1.81-4.36-2.72-5.55-3-2.11-.49-2.6.22-4.62-.44a10,10,0,0,1-3.39-2.06c-4.59-3.75-8.29-3.13-13-7a6.4,6.4,0,0,1-2.46-3.24c-.36-1.4.17-2.1-.49-2.94-.3-.39-.52-.37-3-1.53a5.43,5.43,0,0,1-1.57-.83c-1-.94-.63-1.84-1.33-2.41-1.09-.88-3.62.06-5.21,1.33-1.36,1.09-1.1,1.68-2.35,2.5a7.39,7.39,0,0,1-4.67.94,13.79,13.79,0,0,1-5.15-1.53,59.72,59.72,0,0,0-11.55-3.68c-3.08-.59-4-.38-6.63-1.28-.9-.31-3-1.07-4.51-1.67a14.24,14.24,0,0,0-4.08-1.18,20,20,0,0,0-3.09.25c-2.32,0-3.3-1.09-8.45-3.78-1.41-.74-2.34-1.22-3.68-1.82-3.58-1.58-4.91-1.66-7.52-2.8a58.29,58.29,0,0,1-5.69-3.39c-3.44-2.15-6.3-3.95-10-6.58-2.6-1.85-3.87-2.88-4.42-3.34-2.4-2-3.15-2.86-4.47-4-5.92-5.19-10.33-4.31-14-8.5a24.11,24.11,0,0,0-3-3c-1.36-1.12-2-1.35-3.24-2.3a32,32,0,0,1-4.12-4c-2-2-2.47-1.87-5.55-4.52,0,0-1.43-1.22-3.24-2.93-5.48-5.14-5.88-7-9.78-10.42-5.1-4.53-6.66-3.4-11.66-8.34a26.28,26.28,0,0,0-4.36-3.87c-.77-.53-2.82-1.58-6.89-3.67-1.33-.69-2.23-1.14-3.53-1.89-1.83-1.05-2.42-1.5-3.36-2.06-3.54-2.09-4.42-1.17-8.85-3.29a34.2,34.2,0,0,0-4.74-2.26,17.67,17.67,0,0,0-4-.93c-.36,0-1.19-.06-2.85-.1-3.22-.09-3.6-.07-4.15.1A6.72,6.72,0,0,0,238,119.58Z" transform="translate(-21.52 -61.54)"/><path d="M284.1,73c-2.69,1.2-3.31,5.08-3.4,5.65a11.79,11.79,0,0,0,1.23,6.73c.84,2,2.09,3.69,4.56,6.95,3.26,4.31,4.89,6.46,5,6.59,3.68,4.44,6.62,7.92,11.44,10.65,3.58,2,5.41,2,6.15,2,2.93-.11,5.17-1.77,6.88-3,2.15-1.59,2.38-2.38,4.85-4.85.78-.78,1.05-1,7.46-6.08,0,0,3.38-2.69,8.25-5.94,2.14-1.42,3.79-2.44,4.93-1.81,1,.55,1.12,2.07,1.15,2.46.12,1.24-.3,2.3-1.37,4.13a46.41,46.41,0,0,1-3.11,4.56c-.07.09-1.28,1.82-3.7,5.29-3.51,5-3.49,5.09-4.2,5.93a57.31,57.31,0,0,1-4.92,4.93c-3.32,3.24-3.07,3.35-6.3,6.59a72.42,72.42,0,0,1-9.34,8.4c-2.05,1.48-3.33,2.19-6.3,4.48-1.4,1.09-1.12.94-4.05,3.26a44,44,0,0,0-3.62,3,12.75,12.75,0,0,0-2.54,2.9,8.73,8.73,0,0,0-.29,6.52c.39,1.18,1.13,3.42,3.12,4.2a5.86,5.86,0,0,0,3.47,0,11.09,11.09,0,0,0,3.48-1.45c2.64-1.54,3.19-1.14,6.88-2.75a50.67,50.67,0,0,0,7.89-4.49c1.33-.87,1.55-1.07,6.88-5,6.63-4.9,7.48-5.46,9.26-7.09s1.37-1.46,4.64-4.64c1.66-1.62,4.43-4.32,7.38-6.8,4-3.39,4.23-2.87,8.47-6.23,7.14-5.65,6.07-6.73,10.94-9.63,2.78-1.66,5.36-3.67,8.25-5.14a6.66,6.66,0,0,0,3.33-2.82c.78-1.58.84-3.92-.29-4.86-.68-.56-1.37-.26-1.81-.94-.57-.87,0-2.22.15-2.53.37-.88.72-.88,1-1.52.74-1.64-.57-3.71-.8-4.06-1-1.59-1.91-1.26-3.54-2.75-2.37-2.15-1.52-3.73-4.13-6.51-1.43-1.52-1.76-1.14-2.9-2.61-1.33-1.72-1.07-2.51-2.53-4.56a19.38,19.38,0,0,0-2.75-3,23.08,23.08,0,0,0-3.33-2.68,21,21,0,0,0-2.46-1.37,16,16,0,0,0-4.57-1.6c-1.53-.19-1.84.26-6.08,1.45-3.07.86-3,.65-6.66,1.67-3.44,1-3.12,1-5.07,1.52-3.32.81-4.62.65-8.47,1.23-2.88.43-2.41.56-7.31,1.52-8,1.57-7.68.92-12.17,2.1-2.77.73-4.06,1.28-6.58,1.37-1.18,0-1.69,0-4.78,0-1.21,0-2.42.06-3.84.15A16.25,16.25,0,0,0,284.1,73Z" transform="translate(-21.52 -61.54)"/><path d="M204.51,192.54c-.87,2,.61,7.08,5.14,12.11a75.4,75.4,0,0,0,7.06,6,86.63,86.63,0,0,0,8.26,6.15c3.08,1.94,2.45,1.16,7.34,4a16.86,16.86,0,0,0,5.32,2.48,13.39,13.39,0,0,0,4.77.18,14.09,14.09,0,0,0,5.23-1.83c2.05-1.2,2.35-2.06,5.41-5.32s4.17-3.86,7.43-7.52a20.85,20.85,0,0,0,3.12-4.41c.62-1.18.44-2.08,1.29-3a5.9,5.9,0,0,1,3-1.65c1.51-.32,2,.18,3.31-.36.42-.18,1.45-.61,1.65-1.47.1-.44,0-.9-.83-2a12.58,12.58,0,0,0-2.93-3.3c-1.22-.92-1.34-.63-3.4-1.93a11.88,11.88,0,0,1-2.84-2.11c-1-1.14-.84-1.68-2.11-3.3a8.38,8.38,0,0,0-1.65-1.74c-1.13-.83-2.17-.9-4.77-1.2-4.61-.52-3.76-.54-5.32-.64-2.76-.17-2.82.08-5.88-.09-2.65-.15-2.58-.33-4.77-.37-1,0-1.5,0-4.49,0a17.57,17.57,0,0,1-2.66-.09c-1.68-.26-1.86-.71-3.58-1a6.46,6.46,0,0,0-3.21,0,5.9,5.9,0,0,0-2.29,1.38c-1.18,1-1.3,1.7-2.21,2.75a10.29,10.29,0,0,1-3.3,2.38,14.35,14.35,0,0,1-6,1.93c-1.26.09-2.13-.06-3.21.55a6.53,6.53,0,0,0-1.75,1.56A9.44,9.44,0,0,0,204.51,192.54Z" transform="translate(-21.52 -61.54)"/><path d="M232.44,252.12c-1.7.78-2.48,3.76-2,6.12s2.11,3.84,3.45,5c2.19,1.91,3,1.54,7.06,3.92,3.51,2.08,3.49,2.73,5.64,3.45a13.7,13.7,0,0,0,6.43.47c2.18-.36,2.62-1,8.15-3.61,3.16-1.49,4.76-2.24,6.11-2.5,2.11-.41,3.91-.22,7.53.15,3.93.41,4.69.92,5.17,1.41,1.18,1.22,1.23,2.92,1.25,4.55.06,3.88-1.31,4.45-1.88,8.62-.38,2.75.24,2.31,0,8.47,0,0-.06,1.65,0,4.38s.21,3.46.47,4.08a8.11,8.11,0,0,0,3,3.29c2.42,1.88,3.86,3,5.8,3.14,3.42.23,6.07-2.77,7.37-4.23,2.7-3.06,3.53-6.5,4.23-9.41s.24-2.87,1.1-6.9a60.46,60.46,0,0,1,2.35-8.15,41.9,41.9,0,0,1,3-6.9c2.06-3.67,3.55-6.32,6.58-8.15,1.63-1,2.82-1.18,6-3.13,1.5-.93,2.62-1.75,3.13-3.14.28-.75.1-.9.22-3,.2-3.2.68-3.62.34-4.82s-.89-1.19-2.55-3.1c-2-2.28-1.87-3-3.94-5.71a23.63,23.63,0,0,0-3.32-3.71c-1.34-1.21-2-1.5-2.61-2.61-.83-1.47-.3-2-1.1-3.32a6.35,6.35,0,0,0-3.44-2.61c-1.6-.5-1.84.17-3.21-.28-2.21-.71-2.17-2.63-4.16-3.21-1.1-.32-2,0-3.88.67a14.27,14.27,0,0,0-4.71,2.77c-1.36,1.21-1.25,1.59-2.88,2.93a12,12,0,0,1-2.72,1.83c-1.4.67-1.79.48-2.82,1.17s-1,1-2,1.93a11.77,11.77,0,0,1-2.93,1.89c-4.74,2.42-5.45,3.39-10.81,5.87-3,1.41-3.13,1.25-7,3-2.67,1.24-2.94,1.47-4.66,2.16-2.49,1-3.08,1-6,2.22A24.61,24.61,0,0,0,244.3,249c-1.64,1-1.65,1.32-2.72,1.71s-1.29.07-4.27.5l-2.88.5C233.17,252,232.54,252.08,232.44,252.12Z" transform="translate(-21.52 -61.54)"/><path d="M179.48,267.09c-.54,2.71,4.92,10.7,5.93,12.2,1.41,2.09,2.91,4.95,5.92,10.68,2.61,5,3.93,7.5,4.76,10.34,1.12,3.81.32,3.45,1.75,9.87.4,1.84,1.2,4.78,2.78,10.57,1,3.64,1.49,5.47,1.63,5.93a87.54,87.54,0,0,0,5.55,14c3.26,6.51,5,8,6.63,8.77.83.43,3,1.56,5.1.72,1.21-.49,1.89-1.55,3.27-3.67,1.25-1.94,1.87-2.9,1.93-4.29a6.7,6.7,0,0,0-1.42-4.08c-3.07-4.46-2.92-13.06-2.76-22.55.17-10.22.41-14.29.41-14.29a23.17,23.17,0,0,0-2.14-11.53,25.91,25.91,0,0,0-3.27-5.1c-6.7-8.63-7.23-9.29-9-11.43-3.43-4.18-4.36-5.24-6-6.53-.84-.65-2-1.46-4.28-3.06-3.82-2.66-3.89-2.55-4.7-3.37-1.37-1.38-1.75-2.28-3.06-2.65a4.89,4.89,0,0,0-2.86.2,7.1,7.1,0,0,0-3.47,2.56c-.15.21-.54,1.06-1.32,2.75a20.63,20.63,0,0,0-.82,1.94A18.78,18.78,0,0,0,179.48,267.09Z" transform="translate(-21.52 -61.54)"/><path d="M225.75,311.26c9.6-3.9,11.53-4.74,15.55-5.81,5.13-1.36,6.24-1.13,11.93-2.83s6.93-2.61,12.73-4.39,6.15-1.38,11.31-2.83c13.47-3.78,19.58-8.92,25-6.6a11.63,11.63,0,0,1,4.4,3.3c.33.45.43.67,2,4.4,1.48,3.41,1.66,3.83,1.73,4.71a6.13,6.13,0,0,1-.94,4.24c-1.19,1.51-2.61,1-6.6,2.2-3.37,1-3.31,1.68-7.07,2.83-1.64.5-1.58.35-5.65,1.25a72.49,72.49,0,0,0-9.11,2.36,62.54,62.54,0,0,0-6.44,3c-4,1.92-7.58,3.53-9.59,4.39-5,2.18-9,3.54-12.88,4.87-7.68,2.64-8.18,2.35-11.78,4.09-3,1.47-4,2.32-7.69,3.92s-4.91,1.73-7.86,2.83c-10,3.74-13.55,9-16.45,7.36a33.75,33.75,0,0,1-3.06-4.43c-.17-.26-1.15-1.79-2.36-3.89a17.8,17.8,0,0,1-1.68-3.29c-.29-1-.22-1.45-.38-4.27-.12-2.09-.22-2.88-.23-3.21C200.54,321.42,212.46,316.67,225.75,311.26Z" transform="translate(-21.52 -61.54)"/><path d="M198.21,360.49c-1.8,1.53-1.44,2.54-3.15,4.53-1.14,1.32-1.7,1.35-2.57,2.76a8.32,8.32,0,0,0-1,2.27,9.08,9.08,0,0,0,1.08,6.32,19.42,19.42,0,0,0,2.27,3.15c2.22,2.88,2.52,3.44,3.45,4.64A51.08,51.08,0,0,0,208.67,394c2.13,1.46,1.53.75,5.72,3.36,3.92,2.43,5.11,3.46,7.5,3.74a11,11,0,0,0,4.63-.49,12,12,0,0,0,4.54-2.66,18.71,18.71,0,0,0,3-3.65c1.75-2.51,1.4-2.63,2.76-4.34a35.09,35.09,0,0,0,2.86-3.45c.3-.47.19-.35,1.38-2.57,1.51-2.81,1.74-3.09,1.68-3.75a3.24,3.24,0,0,0-2.27-2.76c-1.05-.21-1.35.61-3.45,1.18a16.23,16.23,0,0,1-3.55.4,27.33,27.33,0,0,1-3.75,0,29.71,29.71,0,0,1-5.33-1.18c-5.11-1.36-5.73-1.61-6.57-2.11s-.49-.45-3-2.32-2.72-1.8-3.92-2.84c-2.14-1.82-1.66-2.11-3.31-3.26s-2.74-1.31-3-2.41c-.22-.83.31-1.17,0-2.08-.06-.17-.22-.58-1.84-1.89-1.19-1-1.8-1.44-2.37-1.46C200.07,359.46,199.4,359.47,198.21,360.49Z" transform="translate(-21.52 -61.54)"/><path d="M134.59,415.33c-.27,1,1.1,1.42,1.8,3.71a6.16,6.16,0,0,1,.23,3c-.26,1.32-.83,1.45-1.19,2.88a5.29,5.29,0,0,0,0,3c.27.75.73,1.26,3.23,3.05,1.81,1.3,3.23,2.22,3.59,2.45,1.55,1,2.81,1.82,4.54,2.81.84.48.87.47,3.59,1.92,4.4,2.33,4.74,2.57,6.05,3.11a18,18,0,0,0,4.54,1.43,11.59,11.59,0,0,0,4.91-.06c1.72-.44,2.88-1.31,5.74-3.94s4.45-4.3,5.27-5.09c1.9-1.84,3.56-2.8,13.7-7.12,4.22-1.8,8.11-3.42,11.6-4.84,3.66-1.15,7.48-2.46,11.43-3.95,5.6-2.12,6.45-2.74,10.77-4.43,6.47-2.53,11.61-3.74,21.9-6.16,5.51-1.3,9.82-2.17,14.24-3.05,6.66-1.34,6.91-1.27,14.77-2.82,10.65-2.09,10.82-2.35,14.3-2.71,7.65-.79,6.68.49,13.59-.41,4.43-.57,9.12-1.65,12.38-.13a7.45,7.45,0,0,0,2.89.81,10.12,10.12,0,0,0,4.17-.94c2.46-.76,3.84.53,7.47,1.41,2.27.55,2,.1,15.47.13a37.07,37.07,0,0,1,4.31.2,34.89,34.89,0,0,1,7.46,1.82,39.31,39.31,0,0,1,3.84,1.62c7.89,3.62,10.1,1.8,15.61,5,3.69,2.14,4.38,3.93,7.8,4.71,1.23.28,3.93.69,5.18.88a30,30,0,0,0,3.5.4,39.43,39.43,0,0,0,4.3-.2c2-.11,1.8,0,5,0,4.76-.06,3.44-.36,6.39-.34a7,7,0,0,0,3.63-.6,3.5,3.5,0,0,0,1.62-1.48c.37-.75.27-1.46,0-2.9a34.15,34.15,0,0,0-.94-4.23c-.91-2.52-2.24-3.86-4.38-6.6-4.35-5.57-3.65-6.15-6.45-8.67a14.32,14.32,0,0,0-6.06-3.64c-2.44-.64-2.68.15-4.77-.47-3.55-1-3.32-3.43-7.54-5.31-.05,0-1.63-.53-4.78-1.55l-4.37-1.41c-4.33-1.43-4.1-1.48-5.51-1.89-2.15-.61-4.71-.83-9.83-1.27-3.7-.32-4.64-.28-5.78,0s-1.32.5-4.58,1.88a53.22,53.22,0,0,1-5.31,2.08,39.27,39.27,0,0,1-6.05,1.28,37,37,0,0,1-5.86.68,20.6,20.6,0,0,1-7.26-.95c-2.45-.83-2.44-1.45-4.17-1.68-.88-.11-2-.1-5.86,1.21-3,1-3.12,1.31-5.85,2.29a55.67,55.67,0,0,1-7,2,51.78,51.78,0,0,1-5.65.87c-12,1.2-22.82-2-32.56,1.55-3,1.1-6,2-9,3.12a30.37,30.37,0,0,1-5.55,1.6c-2.22.4-2.09.1-4.07.51-2.15.45-2.83.91-6.38,1.91-1.11.31-1.82.48-2.45.64-8.06,2-15,5-24.2,6.49a53.91,53.91,0,0,1-9.67,1,24.54,24.54,0,0,0-3.65.13,28.49,28.49,0,0,0-5.27,1.15,35.36,35.36,0,0,0-6,2.16,10.28,10.28,0,0,1-3.11,1.29c-1.55.23-2-.26-3.92-.27-1.2,0-1.62.19-4.19.74-2.37.51-3.57.73-5,.95-3.21.48-3.57.24-5.27.81a23.81,23.81,0,0,0-3.18,1.42c-1.6.8-2.72,1.46-3.44,1.89-4.52,2.65-6.77,4-8.32,4.19-1.14.16-.8-.09-5.07,0a23.76,23.76,0,0,1-3.58,0c-2.21-.25-2.5-.8-4.05-.74C137.05,413.81,134.9,414.22,134.59,415.33Z" transform="translate(-21.52 -61.54)"/><path d="M283,330.31c0,2.49-1.76,2.86-2.47,5.88a11.52,11.52,0,0,0-.22,3.63c.18,1.5.58,1.91.51,3.19a10,10,0,0,1-.94,3.05c-.66,1.65-1.24,2.91-1.74,4-1.67,3.58-1.54,3.22-1.67,3.55a28.3,28.3,0,0,0-1.74,7.91,12.44,12.44,0,0,1-.29,2.47,11.24,11.24,0,0,1-1.67,3.48c-1.31,2-1.79,2-2.83,3.41-1.18,1.66-.65,1.8-2.4,5.52a32.67,32.67,0,0,1-2.68,4.86,22.07,22.07,0,0,0-1.67,2.32c-.91,1.89-1.28,5,.29,6.75,1,1.1,3.08,1.13,7.18,1.16a36.38,36.38,0,0,0,6.17-.29A34.91,34.91,0,0,0,287,388a35.42,35.42,0,0,0,5-2.76,38.84,38.84,0,0,0,7.61-6.82c1.46-1.61,2.45-2.88,3.92-4.79,2.35-3,2.92-4.1,4.95-6.67,2.84-3.6,3.24-3,4.16-4.85,1.42-2.76.6-3.72,2.39-6.87.72-1.27,1.3-1.91,1.41-3.2a7.33,7.33,0,0,0-.87-3.71,14.64,14.64,0,0,0-1.78-2.89,28.7,28.7,0,0,0-3.89-4.35c-2.38-2.15-2.71-1.72-3.89-3.25-.8-1-.87-1.51-2.39-3.75-1.16-1.73-1.18-1.53-1.6-2.25-1.86-3.16-.34-5-2.1-8.1-.66-1.15-.78-.74-2.2-2.79-1.17-1.7-1.36-2.38-2.66-4.31s-1.38-1.63-2-2.74c-1.62-2.87-.72-4.2-2.06-5.41-1.82-1.62-5.07-.62-5.31-.55a19.08,19.08,0,0,0-3.48,2.25c-2.06,1.46-3.09,2.21-3.39,2.7-1.11,1.8-.74,4-.46,5.54a44.16,44.16,0,0,0,1.51,4.49,12.64,12.64,0,0,0,1.28,2.93,12.46,12.46,0,0,1,1.38,2A5.86,5.86,0,0,1,283,330.31Z" transform="translate(-21.52 -61.54)"/></svg>