<svg data-name="Layer 1" xmlns="http://www.w3.org/2000/svg" viewBox="0 0 474.91 407"><path d="M146.5 1.16c-5 2.71-6.5 9.94-5.88 15 .45 3.63 1.82 4.86 10 15.68 9.08 12 9.67 13.46 12.84 14.58 6.31 2.22 13.65-.25 16.77-1.3a36.27 36.27 0 0 0 6.31-2.83c11.87-6.66 39.86-2.79 67.27-4.36s41-2.34 44.42-3c4.66-1 12.71-2.87 16.76 1.31 2.44 2.51 2.73 6.5 1.74 13.5-1.94 13.83-6.58 23.27-9.14 29.39-3.29 7.86-1.81 7-8.05 32.66-8.18 33.55-12.27 50.32-17.64 59.65-6.74 11.7-13 17.28-15.89 31.13-2.45 11.55-.57 19.17.65 22.86 2.21 6.69 8.2 18.59 14.15 18.08 6.24-.54 8.69-14.39 15-35.93 2.1-7.13 8-23.11 19.82-55.08 12.54-33.95 21.14-53.52 25.9-69a116 116 0 0 1 4.38-12.4c4-9.51 6.24-11 7.6-16.12 2.29-8.61-.82-16.39-2.61-20.9-5.75-14.39-17.58-21-20.69-22.64-3.57-1.92-9.94-5.24-18.28-5-6.86.2-11.57 2.7-14.81 4.14-8.32 3.69-12.57 2.82-39.19 3.7-17.12.57-29.62 1-45.72 2.4-12.09 1.06-24.39-.27-36.36 1.74-3 .5-5.79 1.09-8.92-.22-8.71-3.63-8.43-17-15.68-18.07a7.59 7.59 0 0 0-4.75 1.03z"/><path d="M180.24 61.13c-1.49 2.65 2.68 5.64 3.91 13.83.52 3.47 0 4.77-.12 9.64-.11 3.36-.05 7.36 1.32 18.33 3.28 26.28 5.91 27.43 6 40.3.18 22.11-1.51 33.68-1.51 33.68-.41 2.87-1.5 9.67 2.41 14.74a13.36 13.36 0 0 0 6.62 4.51c6.67 2 12.58-2.28 14.43-3.61a24 24 0 0 0 8.12-10.83c4.55-11.2.05-18.54-.3-36.09-.07-3.47.46-9 1.5-20.15 3-31.48 6.25-38.63.91-47.81-3.65-6.26-9.3-10-11.43-11.43a41.67 41.67 0 0 0-18.95-6.62c-5.03-.59-11.31-1.37-12.91 1.51z"/><path d="M138.85 135.48c3.34 1.77 7.75 3.9 18.29 7.88 5.9 2.23 8.89 3.35 10.66 3.55 8.35 1 15.15-3.12 18.55-5.08 13.28-7.68 28-12.63 41.91-19.05 18.58-8.55 27.87-12.83 33.27-14.48 11.7-3.57 18.62-4.17 20.07-8.89 2-6.49-8.19-15-12.7-18a35.67 35.67 0 0 0-21.09-5.84c-2.79.14-5.53.63-10.66 2.28a131.27 131.27 0 0 0-25.66 11.69c-23 13.06-21.66 12.92-29.46 16.76a184.53 184.53 0 0 1-23.88 9.65c-7.33 2.39-11.08 3.58-15 3.56-6.75 0-11.1-2.31-13.72.25-1.84 1.8-1.78 4.94-1.27 6.86.58 2.12 2.11 4.32 10.69 8.86z"/><path d="M73.06 69.44C77.3 82 88.57 82.21 99.99 94.33c10 10.64 13 22.83 15.49 33.28 4.47 18.48 2.06 34.09 5.59 51 .63 3 1.42 6 2.92 13.33a99.19 99.19 0 0 0 2.67 11.31c2.51 8.09 4.53 10 6.35 10.92.83.43 3.08 1.59 4.82.76 3.42-1.63 2.29-9.72 1.27-21.59-1.33-15.5 1 2.42-2-34.79-1.08-13.46-1.62-20.19-2-22.61-1.91-11.24-4.75-19-9.91-32.77-7.25-19.39-7.54-15.15-14.73-34-4.69-12.31-8-23.17-17.78-31.24-2.26-1.87-5-3.73-8.13-3.31-7 1-10.36 12.83-11.17 15.75s-3.1 10.88-.32 19.07z"/><path d="M56.3 227.68c-3.88 4.26-3.38 11.73-.76 16.51 1.76 3.23 3.5 3.43 11.43 9.66 9.06 7.12 8.11 7.9 10.41 8.63 8.8 2.8 17.18-10.31 35.05-22.86 8.14-5.71 15-8.8 28.7-15 21.09-9.51 38.37-14.06 51.82-17.53 19.36-5 14.14-2 35.46-7.33 17.54-4.36 25.25-7.41 31.6-3.08 7.74 5.27 5.7 16.25 10.66 17 5.59.86 12.08-12.44 14.74-20.32 2.47-7.35 4.68-13.9 1.52-18.79-5-7.69-19.7-6-27.94-5.08-11 1.24-16.85 4-31.75 9.65-3.57 1.35-19.4 6.74-51.05 17.53-12.55 4.27-18.83 6.41-27.94 9.39-35.61 11.66-34.22 10-41.41 13.72s-11.26 6.82-18.28 6.86c-6.62 0-9.2-2.62-18.29-2.54-5.93.08-10.81.15-13.97 3.58z"/><path d="M193.4 238.25c-.75 11 9.69 24.51 9.69 24.51 8.14 10.52 16.86 16.19 24 20.73 8.78 5.61 13.3 8.42 19.66 8.89 1.25.09 13.57.82 22.35-7.54 7.65-7.3 4-13.35 12.65-25.58 6.22-8.83 12.34-11.68 11.31-13.74-.28-.57-1.66-2.16-25 3.5-12.05 2.92-17.17 4.68-27.74 6.47-13.12 2.22-16.62 1.45-19.11.53-1.78-.65-10.42-3.81-14.82-11.84-1.66-3-3.24-7.75-7.53-10.51-1-.65-2.21-1.2-3.24-.8-1.9.75-2.13 4.11-2.22 5.38z"/><path d="M119.62 267.66c7.62 20.52 23.2 37.32 32 46.62 18.73 19.8 28.09 29.7 36.42 36.55a252.15 252.15 0 0 0 46.77 30.64c27.54 13.63 49.18 17 89.58 23.31 17.35 2.7 41.28 2.41 89.13 1.83 8.1-.1 23.68-.49 29.26-10.06 3.19-5.48 1.85-11.82 1.37-13.71-3.94-15.43-22.52-15.06-45.25-32-1.27-1-.38-.33-37-40.68-9.57-10.55 2.91 3.22-27.22-28.44-11.61-12.21-17.3-18.28-18.94-17.19-.43.29-1.25 1.53 7.37 22.8 2.81 7 5.06 12.13 7.72 18.24 11.83 27.2 11.3 25.33 14.38 33 4.93 12.26 4.77 13.27 7.65 18.29 5 8.76 9 11.89 7.78 14.68-1.37 3-7.8 3-20.69 2.11-24.7-1.8-33.19-3.4-33.19-3.4-20-3.8-34.86-6.65-55.59-13.43-22-7.18-33-10.79-47.35-19.29-17.66-10.48-30.12-22.28-47-38.28-7.7-7.29-11.54-10.93-15.09-15.79-4.65-6.38-7.46-12.21-15.08-20.34-2.76-2.94-7.5-8-9.12-7-1.79 1.13 1.15 9 2.09 11.54zM339.06 225.04c.38 2.56 18.28-2.11 41.89 3.3 21.77 5 39.95 15.9 39.95 15.9 8.1 4.86 14.54 10 25.79 12.22 4.14.82 11.56 1.78 19.4-1.36 3.53-1.42 7-2.82 8.34-6 2.86-7-7.11-16.86-11.45-21.14a57.48 57.48 0 0 0-23.46-14.55c-2-.64-5-1.47-27.73-2.71-14.74-.81-22.21-1.2-27.15-.58-7.24.89-13.17 2.79-25 6.59-13.26 4.22-20.86 6.65-20.58 8.33zM28.72 313.25c-8.19 7.05-6.83 12.51-15.16 29-4.43 8.76-8.43 14.34-12 25.85-1.44 4.57-2.47 9-.23 12 1.92 2.59 4.82 2.25 11.82 3.57 13 2.44 13.47 5.61 21.17 5.34 3.37-.11 11.23-.38 14.48-5.34 2.49-3.8.41-7.5-2-20.51-1.87-9.91-2.74-14.91-2.49-19.64.75-12.27 6.75-22.87 8.25-25.4 4.11-7 7.37-9.38 6.24-11.59-1.76-3.45-12-2.15-18.72.22a36.14 36.14 0 0 0-11.36 6.5z"/></svg>