<svg id="Layer_1" data-name="Layer 1" xmlns="http://www.w3.org/2000/svg" viewBox="0 0 458.11 427.73"><title>7</title><path d="M4.08,133.52c1.67,2.06,3.09,2.61,5.22,4.19,2.3,1.72,1.56,1.77,4.61,4.27a32.49,32.49,0,0,0,5.22,3.6,17.82,17.82,0,0,0,4,1.71,16.29,16.29,0,0,0,8.63-.35c2.07-.56,2.92-1.11,6-2.56,4-1.89,4-1.65,9.15-3.93,7.33-3.25,7.53-3.82,13.33-6.33,5-2.16,4.57-1.63,10.35-4,6.19-2.56,7.13-3.37,15.05-6.93,6.69-3,10-4.51,13.17-5.55,6-2,10-3.82,15.56-5.13,2-.47,2.42-.5,7.69-1.69,4.93-1.1,7.4-1.66,9.29-2.18,3.18-.86,2.78-.91,11.32-3.57,4.5-1.4,5.71-1.71,7.1-2,3.21-.8,5.6-1.21,6.49-1.37,1.26-.23,2.16-.43,2.33-.46,6.72-1.3,14.28-4.66,24.15-6.39a89.6,89.6,0,0,1,10-1.5,16.34,16.34,0,0,0,7-1.17c2.14-1,3-1.5,3-1.5,1.75-1,2-1.31,2.81-1.4a3.75,3.75,0,0,1,3.62,1.65,4.23,4.23,0,0,1,.39,2.36,8.06,8.06,0,0,1-.71,3.31c-.27.56-.82,1.53-4.41,4.09-1.05.75-.74.48-3.77,2.52-2.34,1.56-3.06,2.08-4.65,3.07-.82.51-1.73,1.05-2.83,1.65-.36.19-1.05.57-1.81.94-3.26,1.6-4.24,1.38-5.59,2.68a3,3,0,0,0-1.18,2.2,2.4,2.4,0,0,0,1.1,1.66c.79.5,1.64.41,3.15.15a55.81,55.81,0,0,0,5.59-1.26c2.45-.63,3-.78,3.85-1.33a10.47,10.47,0,0,0,2.05-2.05c1.37-1.42,3.61-2.21,8.11-3.78,1.53-.53,2.36-.77,4.25-1.49,1.45-.56,2.52-1,2.91-1.18,2.27-1,3.92-1.84,4.49-2.13,5.42-2.79,9.19-4.73,13.53-6.14.65-.21.32-.08,9.45-2.2,8.18-1.9,7.84-1.86,9.21-2.13a66.4,66.4,0,0,1,13.46-1.73,78,78,0,0,1,8.5.32c2.39.27,3.26.54,5,.31s3.35-1.06,6.29-2.68c3.13-1.7,4.71-2.58,5.59-3.93.27-.41,2.05-3.13,1.1-5.59-.5-1.32-1.49-1.78-5.74-4.17-5.34-3-4.45-2.65-5.51-3.15A41.65,41.65,0,0,0,270.31,68a71.22,71.22,0,0,1-7.24-1.26c-.59-.15-2.34-.61-4.56-1.41A29.39,29.39,0,0,1,253.23,63c-1-.59-.56-.44-4.17-2.92-1.82-1.25-2-1.34-2.83-2-1.84-1.41-1.87-1.71-2.84-2.21a7.13,7.13,0,0,0-3.93-.79c-.45.05-1.1.17-4.25,2a38.44,38.44,0,0,0-3.86,2.36,27.88,27.88,0,0,0-3.85,3.7c-.26.28-.58.64-2.68,3.15-1.87,2.24-3.26,3.93-3.46,4.17-3.06,3.72-2.79,4.22-3.94,4.8-1.72.87-2.28-.06-5.59.48-1.44.23-1.89.5-6.14,2,0,0-2.57.94-5.35,1.89-5.13,1.76-6.31,1.09-13.85,2.76-2.93.64-1.93.56-10.23,2.67-5.67,1.44-5.32,1.27-8.19,2-4,1.07-6.92,2-12,3.62-4.39,1.4-6.59,2.1-7.25,2.36-4.24,1.7-6,3-9.2,3.07-.63,0-2,0-3.7,0-3.41,0-3.49-.07-4.1,0-2.24.27-2.49,1.14-5.58,2.44a40.51,40.51,0,0,1-6.93,1.89c-2.56.57-3.1.57-5.27,1a81.76,81.76,0,0,0-8.11,2.21c-5.37,1.65-8.69,2.65-13.38,4.33s-5.83,2.25-10.47,3.77c-2.89.95-5.2,1.63-6.38,2-4.69,1.36-6.72,1.73-11.72,3S60,118,52.45,120c-6.26,1.66-9.39,2.49-13.07,3.31-6.15,1.36-7.35,1.32-11.89,2.52a88.52,88.52,0,0,0-9.36,3,8.5,8.5,0,0,1-4.49.63,9.41,9.41,0,0,1-3.07-1.18c-2.44-1.36-2.52-2.43-4.09-2.76a3.91,3.91,0,0,0-3.62,1c-1.37,1.59-.34,4.22-.08,4.88A7.82,7.82,0,0,0,4.08,133.52Z" transform="translate(-2.16 -55.09)"/><path d="M163,107.17c2.62,4.78,3.14,4.63,4.3,7.22a29.42,29.42,0,0,1,2,6.75c.39,1.93.25,1.93.77,5.37.7,4.68,1,4.61,1.38,8,.15,1.24.31,3.08.61,6.75.17,2,.27,3.39.31,3.84.66,8.38,1.09,13.86,3.68,19.35,1.1,2.31,2.26,4,2.77,7.06.14.85.24,2.2.46,4.91.14,1.79.24,3.05.31,4.76.12,3.1,0,3.16.15,4.61.26,2,.58,2,1.07,4.45a34.92,34.92,0,0,1,.62,5.53c.06,1.41,0,1.91,0,4.91,0,2.36,0,4.67,0,5.53.1,6.51,1.77,7.28,2,14,.09,2.54-.14,2.94,0,6.75.1,2.67.24,3.28.31,6.14,0,1.52,0,1.93,0,5.84,0,2,0,4.62,0,5.68a101.77,101.77,0,0,0,.77,11.21c1,9.22,2.28,13.37,3.84,24.25.26,1.85.56,4.06.76,6.91.15,2,.2,3.69.31,7.06.08,2.51.14,4.86.15,5.84.17,9.72-1.44,16.33-1.38,26.25,0,1,0,3,0,6,0,3.74-.13,4-.15,7.06,0,4.44.16,4.81,0,7.06a43.16,43.16,0,0,1-1.08,6.61c-1,5.18-.76,9.36-.3,16.27.39,5.91,1,6.85.76,11.36-.11,2.55-.34,3.38-.61,7.06,0,0-.34,4.69-.31,10.29.1,15.26,4.44,21.56.62,28.71a17.85,17.85,0,0,1-4.12,5,16.82,16.82,0,0,1-7.64,3.37,24.17,24.17,0,0,1-5.38.22c-3.85-.18-5.34-1-6.29,0s-.54,3.15-.18,4.12c.62,1.7,1.63,1.83,2.81,4.31.27.58.46,1.11.84,2.16.7,1.94.79,2.6,1.12,3.46a11.31,11.31,0,0,0,2.81,3.84s2.23,2.38,5.06,5.81c4.4,5.33,3.17,7,7.31,11.24a29.2,29.2,0,0,1,3.65,3.84c1.74,2.38,1.65,3.37,3.28,4.69,1.16.93,1.46.64,4,2.15s2.54,2,3.37,2.06c2.72.29,5.5-4.16,6.65-6.84.63-1.45,1-3.59,1.78-7.86a17.84,17.84,0,0,0,.47-4.41c-.1-2.26-.71-3.38-1.4-5.71s-.48-2.59-1.41-7.87c-.82-4.68-1.1-5.06-1.69-8.34a88.06,88.06,0,0,1-1.31-14.61c-.08-6.46.62-5.27.47-11-.14-5.51-.8-7-1.31-15.74-.07-1.15-.14-2.95-.28-6.56-.31-7.78-.3-9.88-.56-14.61-.12-2.19-.26-4.74-.57-8.15-.87-9.81-1.87-17.05-1.87-17.05a34.47,34.47,0,0,1-.37-7.4,47.22,47.22,0,0,1,.65-4.87c.58-4.09.11-4.66.28-13.12.09-4.06.22-4.75.19-8.15,0-2.92-.12-3.21-.19-6.09a120,120,0,0,1,.29-13.27,41.39,41.39,0,0,0,.33-7.66c-.16-2.1-.37-2.2-.58-4.52s0-2.8.08-8.48c.07-3.18.08-5.92.09-8.07v-3.37c0-7.45-1.08-13.88-1.32-23.29-.19-7.42.27-10.79-.49-15.72-.11-.65-.4-2.42-.58-4.86a60.87,60.87,0,0,1-.08-7.16c.09-3.07.06-6.57,0-13.57,0-4.38-.13-7.76-.17-9.06-.13-4.59-.31-8.63-.41-10.78,0-1-.16-3.6-.33-7.32-.11-2.62-.17-3.93-.16-4.2.1-3.94.94-4.59,1.31-9,.24-2.83-.09-2.79.25-5.27.31-2.25.68-3,.91-5.27.18-1.91,0-2,.08-4.44.07-1.79.17-1.56.82-7.41a47.46,47.46,0,0,0,.74-5.68,5.14,5.14,0,0,1,.5-2.55c.52-1,1.1-1.14,1.48-1.73.93-1.43-.93-3.14-2.22-7.07-1.18-3.56-.68-5.28-2.64-7.9-.48-.65-.52-.56-1.15-1.32-3.91-4.73-2.4-8.25-5.76-11.44-.57-.54-.85-.66-3.13-2.63a10.82,10.82,0,0,1-2.63-3,8.85,8.85,0,0,1-.66-1.48c-2.09-6-3.14-9-4.77-9.63-1.23-.46-1.51.64-7.66,3.54-2.77,1.31-4,1.71-5.76,3.21A8.13,8.13,0,0,0,160.85,98a8.84,8.84,0,0,0,.41,5.18A18.75,18.75,0,0,0,163,107.17Z" transform="translate(-2.16 -55.09)"/><path d="M114.11,159.63c-.72,1.64.23,2.38.07,5.15-.1,1.7-.48,1.65-.75,4.06a12.77,12.77,0,0,0-.07,4.07c.44,2.07,1.83,3.09,4.27,5.35,2.74,2.55.88,1.16,5.83,6,5.45,5.28,4.63,4,7.93,7.31,2.86,2.9,3.89,4.3,6.3,5A20.15,20.15,0,0,0,142,197c3.16.17,4.76.24,6-.47,1.08-.61.85-1,3.12-3.66,1.66-1.94,1.95-1.92,3.66-3.86s1.5-2.06,3.52-4.54c2.47-3,3-3.21,4.61-5.36a46,46,0,0,0,2.84-4.88c2.05-3.49,3.86-6.57,6.85-9,4-3.3,6.65-2.48,7.32-4.81.29-1-.78-3.42-2.92-8.2-1.06-2.37-1.37-2.88-1.89-3.46-1.39-1.52-2.51-1.53-5.56-3.11-3.62-1.89-3.21-2.47-5.29-3.12a13.08,13.08,0,0,0-6.71-.07c-1.64.32-3.44,1.16-7,2.85-1,.47-3.36,1.58-6.24,3.25s-3.59,2.35-3.86,2.64c-1.49,1.65-1.46,2.78-2.78,3.32s-1.65-.27-3.79-.2a10.78,10.78,0,0,0-4.68,1.36c-1.55.78-1.35,1.07-4,2.77s-3.53,1.84-4.2,1.77a6.19,6.19,0,0,1-2.51-1c-1.31-.84-1.5-1.54-2.23-1.56C115.35,157.64,114.49,158.75,114.11,159.63Z" transform="translate(-2.16 -55.09)"/><path d="M113.35,239.3c1.62-1,2.3-1,4.71-1.85,3.92-1.47,6.12-2.29,7.65-4.37.84-1.15.88-1.87,2.1-3a12.84,12.84,0,0,1,3.28-2c1-.6,1.4-1,4.7-4.88,8-9.33-.27.38,5-5.63,2.2-2.52,2.93-3.39,4.38-3.79,1.27-.34,1.76,0,3.44-.5,1.5-.48,1.75-1,3.28-1.6a11.36,11.36,0,0,1,3.7-.75,17.31,17.31,0,0,1,6.22,1,28.55,28.55,0,0,0,3.95,1.1,17.23,17.23,0,0,0,3,.25c2.89,0,3.49-.83,5-.34a5,5,0,0,1,2.52,2.19,6.78,6.78,0,0,1,.59,5,10.61,10.61,0,0,1-2.94,5.38,27.08,27.08,0,0,1-3.53,2.77c-.43.33-3,2.28-4.8,3.87a52.21,52.21,0,0,0-5,5.38c-4,4.68-6.06,7-6.89,8.83-.76,1.63-1.17,3.08-3,7.23a11.57,11.57,0,0,1-2.44,3.7,6.86,6.86,0,0,1-2.77,1.93c-1.71.55-2.3-.24-4.71.17a6.34,6.34,0,0,0-2.86,1c-1.55,1.1-1.17,2.22-2.35,3-1.41,1-3.38.36-5.89-.42A47.08,47.08,0,0,1,125,261a52.23,52.23,0,0,0-8.82-2.61,29.61,29.61,0,0,1-4.79-1.26,11.3,11.3,0,0,1-3.28-1.68,6.73,6.73,0,0,1-2.53-3.11c-.5-1.47-.18-2.75.26-4.54a9.41,9.41,0,0,1,1.34-3.36c.26-.38.62-.83,2.94-2.69A39.65,39.65,0,0,1,113.35,239.3Z" transform="translate(-2.16 -55.09)"/><path d="M59.31,173.91A11.34,11.34,0,0,0,57,178.76a9.73,9.73,0,0,0,.09,3.46c.42,2.1,1.59,4.52,6.07,8.68.76.7,3,2.46,7.47,6a61.46,61.46,0,0,1,7.19,6.45,11.72,11.72,0,0,1,2.61,3.54c1,2.2.6,3.76.75,6.35.14,2.34.5,2.38,1.58,7.28,1.69,7.61,2.54,11.41,2.15,14.57a13.37,13.37,0,0,0,.1,5.69,21.2,21.2,0,0,1,.93,3.08c.24,1.6,0,2.42-.19,4.49-.07,1,0,2.15,0,4.48.09,4.13.42,7.55.75,10.83s.5,4.26.56,6.53c0,.84,0,1.1,0,4.39,0,5.12,0,4.48,0,5.23-.16,5.35-.91,6.44,0,8.78.53,1.37.91,1.3,1.31,2.7.23.84.32,1.64-.1,5.6a31.17,31.17,0,0,1-.84,5.51c-.51,1.78-.82,1.91-1.21,3.18-.86,2.74,0,3.92.65,10.45.13,1.28.07,1,.47,5.7a34.45,34.45,0,0,0,.65,5.23,33.75,33.75,0,0,0,1.37,4.19c1.36,3.69,2,5.55,2.85,6.12,2,1.4,5,.81,6.82-.14.73-.38,2-1.19,5.41-7.54a67.83,67.83,0,0,0,4.4-9.67,31.62,31.62,0,0,0,2.14-8c.21-2,0-2.11-.29-7.54-.27-5.72-.4-8.59-.12-11.42a22.9,22.9,0,0,0,.34-5.17c-.27-3.05-1.18-3.57-.88-5.59.39-2.67,2.17-2.95,2.11-5.17-.06-1.9-1.37-2-1.91-4.42-.47-2.17.51-2.35.41-5.79,0-.65-.24-2.21-.68-5.31-.25-1.78-.45-3.07-.48-3.27-1-6.59.87-11.08,0-18.24a35.37,35.37,0,0,1-.06-6.46,9.44,9.44,0,0,1,.47-2.66c.73-2,1.72-2.11,2.11-3.81a7,7,0,0,0-.2-3.4,10.16,10.16,0,0,0-.82-2.11c-1.12-2.49-.07-3.67-.34-9.19-.1-2.09-.29-2.61.07-3.68.6-1.81,1.69-2,1.9-3.4s-.55-2-1.83-4.43c-1.38-2.64-1-2.82-2.05-4.76a21.58,21.58,0,0,0-5-6.13,41.44,41.44,0,0,0-6.81-4.63,64.87,64.87,0,0,0-7.42-4.08c-5.62-2.52-6.1-1.39-10.75-3.81a47.16,47.16,0,0,0-6.61-3.34,21.28,21.28,0,0,1-3.26-1.29c-1.94-1-2.39-1.79-3.88-2a5.19,5.19,0,0,0-2.93.34C60.92,171.62,60.37,172.39,59.31,173.91Z" transform="translate(-2.16 -55.09)"/><path d="M2.48,352.69c-.17,1.73,1.07,2.69,4.56,7,3,3.66,2.28,3.22,4,5.19a48.53,48.53,0,0,0,7.32,6.69A37.24,37.24,0,0,0,27,376.66a49.41,49.41,0,0,0,5.2,1.69c4.45,1.31,5.28,1.2,8,2.12,4.32,1.5,3.78,2.35,6.58,3.08,4.59,1.19,8.79-.38,11.45-1.38,2.47-.92,1.6-1,8.27-4.66,5.73-3.14,7.22-3.55,9.12-5.84a12.14,12.14,0,0,0,3.07-5.6c.48-2.4-.1-4.26.83-4.74.55-.28,1.08.17,3.16,1.08a17.27,17.27,0,0,0,3.91,1.41c2.47.3,4.53-2.41,6.32-4.32.69-.74,4.92-3.46,13.38-8.89,7.34-4.72,8.26-5,11-7.4,2.52-2.16,2.9-2.89,6.15-5.82,3.56-3.2,5.78-4.73,9.15-7.32,7-5.38,7-6.12,17-14.29,7.51-6.14,6.2-4.66,10-8,1.64-1.41,5.07-4.43,19.29-19.2,3.71-3.86,5.57-5.79,7-7.32,6.45-7,7.16-8.39,14.46-16.71,6.94-7.89,8.33-8.92,12.06-14,2.22-3,2-3,5.9-8.73,8.09-11.87,8.82-11.54,13.21-18.62,2.84-4.56,5-8.66,8.66-15.62,3.45-6.55,2.23-4.7,3.9-7.7a42.34,42.34,0,0,0,4.12-9,7.58,7.58,0,0,0,.11-5.17c-.19-.46-.78-1.91-1.9-2.11-.75-.14-1.58.31-3.28,2.22a30.68,30.68,0,0,0-3.9,5.49c-2.32,4.14-3.48,6.21-3.7,6.54-2,3.16-2.85,3.19-6.65,7.6-1.76,2.06-1.19,1.59-6.23,8.13-3.34,4.34-3.4,4.31-6.76,8.66-3.84,5-3.6,4.83-5,6.44-2.43,2.89-3.36,3.63-7,7.6-2.92,3.23-3.6,4.17-5.17,5.91-9.46,10.53-14.44,9.3-18.26,16.79-1.21,2.36-1.76,4.53-4.23,7.92a37.71,37.71,0,0,1-5.06,5.49c-9,8.68-8.08,10.77-14.05,14.89-2.92,2-3.66,1.87-7.92,4.85s-3.88,3.4-7.07,5.28c-2.27,1.34-3.57,1.79-4.64,3.49-.93,1.45-.89,2.56-2,3.16s-2.21-.21-3.8,0c-2.38.32-3.86,2.74-4.44,3.59-1.47,2.17-5.9,5-14.78,10.77,0,0-8.37,5.42-25.12,13.2-1.17.54-2.33,1-4.54,2.11-1.63.79-2.14,1.07-3.17,1.48a33.59,33.59,0,0,1-4.22,1.27c-2.41.64-2.72,1.06-6.23,2.42-2.83,1.1-4.93,1.73-8.34,2.75-3.59,1.07-5.38,1.6-7,1.9-4.71.87-5.64.2-7.92,1.48-2,1.12-2,2-4.43,3.17a12.81,12.81,0,0,1-4.76,1.16c-2.39.08-3.22-.65-5.38-1.06-3.23-.61-5.93.19-10.35,1.48-4,1.17-6.29,2.48-7.49,1.37-.66-.6-.25-1.25-1-2.11-1.37-1.67-4.89-1.65-7.29-.21C4.88,349.23,2.7,350.54,2.48,352.69Z" transform="translate(-2.16 -55.09)"/><path d="M295.18,135.3c.72,2.15,2.17,2.79,6,5.67,5.13,3.85,5,4.55,8,6.12,2.66,1.37,4.06,2.08,6.12,2.15,3.91.14,5.16-2.21,9.41-1.81a14.32,14.32,0,0,1,4.42,1.25c2.34,1,4,1.66,5,3.28,1.17,1.94.72,4.14.23,6.57-.64,3.15-1.43,3.2-2.27,6.24-1.08,3.9,0,4.47-.9,9.29-.64,3.22-1.12,2.89-1.93,6.8-.71,3.42-.42,4.1-1.13,7s-1.26,3.27-2.27,6.35c-1.26,3.81-1,5.05-2,10.2a83.72,83.72,0,0,1-2.49,9.52c-1.62,4.85-2.82,6.46-5.89,13.14-3,6.49-2.54,6.46-4.65,11-5,10.82-6.77,9.57-8.63,15.22-3.34,10.09,2.19,14.09-2.07,23.46-1,2.3-2.79,4.57-6.29,9.1a93.58,93.58,0,0,1-10.17,11.51c-4.71,4.46-11.41,10.78-21.54,14.32a131,131,0,0,1-13,3.34c-5.25,1.21-7.88,1.81-10.44,2.14a51.89,51.89,0,0,1-20.34-1.07c-3.94-1.1-6.91-2-9.5-4.68-1.9-2-2.82-4.16-4.42-7.9a31.18,31.18,0,0,1-2.54-8,19.39,19.39,0,0,1,.13-8.56c.85-3.07,2.4-4.95,4.82-7.89a44.55,44.55,0,0,1,8.43-7.77,60,60,0,0,1,7.5-4.68c6-3.24,10.57-4.71,18.46-7.23,5.85-1.86,7.66-2.14,9.64-2.14a33.55,33.55,0,0,1,8.83,1.47c3.19.85,2.88,1.08,8.16,2.68a68.78,68.78,0,0,0,7.9,2,48.93,48.93,0,0,0,5.22.67c2.16.15,2.53,0,3.74.13a17.22,17.22,0,0,1,6.69,2.41,28.88,28.88,0,0,1,7.1,5.75c6.35,6.85,14.84,1.77,27,8.3,8.9,4.77,11.69,11.41,21.28,13.38a34.82,34.82,0,0,1,4.55,1.07c7.34,2.39,8,6,13.38,7,.07,0,2.94,0,8.7-.13,4.7-.08,6.64-.12,6.82.53s-2,2.2-3.75,2.95c-2.65,1.11-4.53.73-5.35,2.14a3,3,0,0,0-.27,1.87c.23,2.88,2.47,4.95,3.21,5.62a59.78,59.78,0,0,0,10.31,7.36c3.49,1.89,7.28,4.83,14.85,10.71,3.55,2.75,3,2.57,12.71,10.84,14.86,12.68,14.14,11.46,16.73,14.32,2.84,3.12,5.34,6.39,10.31,10a24.56,24.56,0,0,0,7.76,4c2.66.79,6.95,2.06,9.77-.14,1.43-1.12,2-2.77,2.67-4.68a20,20,0,0,0,.94-5.76c.15-2.56.11-4.35,0-8-.25-8.12-.31-8.73-.54-9.77a31.63,31.63,0,0,0-2.4-7,36.48,36.48,0,0,0-3.22-5.49,96.12,96.12,0,0,0-12.31-14.18c-5.77-5.29-11.55-9.13-22.88-16.6-6.62-4.36-9.93-6.54-12.71-8.16-11.82-6.87-14.82-6.5-34.53-15.52-12.05-5.52-14.31-7.2-21.54-9.37-3-.9-9.39-2.64-15.26-4.15-4.79-1.23-5.22-1.28-8.56-2.14-15.52-4-18.22-6.2-27.84-7.76-4.92-.8-3,0-12-1.07-9.84-1.14-14.2-2.3-24.09-3.35a77.76,77.76,0,0,0-9.77-.8,63.67,63.67,0,0,0-10.84,1.21,57.34,57.34,0,0,0-10.7,2.54,77.1,77.1,0,0,0-9.64,4.68c-5.26,2.79-7.93,4.22-9.9,5.89-2.13,1.8-3.63,3.68-6.56,7.36-3.24,4.09-3.56,5-6.28,8.56-6.94,9.18-9.9,10.19-11.25,15.66a11.9,11.9,0,0,0-.13,7.09c1.13,3.23,3.51,4.12,11.78,9.64,1.84,1.22,5.6,3.73,10.17,7.09,4.3,3.16,5.42,4.21,8.69,6.29a46.23,46.23,0,0,0,8.44,4.55c4.28,1.69,8.34,3.3,12,1.87.59-.22,1.76-.76,4-1.6A14.75,14.75,0,0,1,246.6,328c1.12-.07,1.34.13,3.74.54,3.84.65,5.8,1,7.76.13a8.38,8.38,0,0,0,2.28-1.47,11.77,11.77,0,0,0,2.41-3.21c1.3-2,3.27-2.87,7-4.42,4.31-1.81,5.25-1,6.82-2.67,1.29-1.37,1.12-2.41,3.08-4.29a7.37,7.37,0,0,1,3.08-2c1.81-.53,2.59.24,4.41.26,3.34,0,6.62-2.49,8.17-4.95.93-1.48.78-2.23,2.27-4.55a22.27,22.27,0,0,1,2.28-2.94c2.87-3.21,6.37-7.49,13.38-16.06,1.35-1.66,2-2.48,2.27-2.81,1.5-2,8.28-11,9.37-21.41a33.89,33.89,0,0,1,.8-5.22,37.91,37.91,0,0,1,2.41-6.69c2.32-5.26,2.84-5,4.28-8.7,1.19-3.05.57-2.55,2.28-7.49a25.87,25.87,0,0,0,1.47-6c.11-1,.1-1.6.13-2.14.24-4,2.74-6,4.42-9.37,2.07-4.16,0-4.57,2-10.57,1.23-3.71,1.87-3.13,4.55-9.24a57.6,57.6,0,0,0,3.48-9.63c.86-3.42.59-3.91,1.6-7.23a59,59,0,0,1,2.68-7c1.44-3.22,1.8-3.43,2.67-5.62a29,29,0,0,0,2-7.36c.48-4.87-1.58-8.71-3.75-12.71-1.28-2.38-3.81-5.46-8.83-11.51-5.79-7-7.11-8.12-9.1-9.1a21.64,21.64,0,0,0-9.5-2c-2.8,0-4.9.48-9.1,1.48-2,.46-1.89.52-8.29,2.41-1.26.36-4.37,1.4-10.58,3.47-2.81,1-4.4,1.5-5.21,3.08A5.76,5.76,0,0,0,295.18,135.3Z" transform="translate(-2.16 -55.09)"/></svg>