<svg id="Layer_1" data-name="Layer 1" xmlns="http://www.w3.org/2000/svg" viewBox="0 0 498.1 379.73"><title>8</title><path d="M54,148.11a6.58,6.58,0,0,0-.75,3.1,6.36,6.36,0,0,0,.47,3.66,3.83,3.83,0,0,0,2.16,2.06,3.22,3.22,0,0,0,1.88,0,3.27,3.27,0,0,0,1.5-1c.81-.94.58-1.6,1.13-2.35.27-.37.73-.75,2.91-1.22,3.3-.71,5.13-1.11,6.1-.09a4.82,4.82,0,0,1,.84,2.16c.3,1.17.21,1.61.38,2.34A6.15,6.15,0,0,0,72.93,160a8.7,8.7,0,0,0,5.16,1.78c2.07.13,3.25-.35,5.82-1a84.57,84.57,0,0,1,10.33-2c5.16-.75,5.13-.3,7.22-1,1.64-.58,2.91-1.29,5-1.22.89,0,2.63.08,3.56,1.22s.55,2.82.29,4.59c-.43,2.88.11,5.83,0,8.73,0,0-.25,6.61-.57,18.87-.21,8.31.21,9.46.28,19.14.1,11.82-.48,15.29-.84,28.07-.38,13.55-.11,24.34,0,29.56.34,15.82,1,19.81.41,31.12-.24,5-.4,4.74-1,15.17-.6,10-.67,13.66-1.37,21.09-.4,4.23-.73,7.65-1.48,12.31-1.11,6.85-1.81,11-3.88,16.2-2.23,5.56-3.19,5.16-3.53,8-.61,5,2.5,5.85,6.5,16.19,1.82,4.72,4.26,9.21,5.81,14a7.07,7.07,0,0,0,3,4.22c.94.52,1.3.29,2.39.8,2,.94,2.22,2.41,3.76,4,1.88,1.93,5.12,3.45,6.84,2.51,1.44-.78,1.52-3.12,1.6-5,.68-16.14,1.61-8,1-15.62-.63-8.2-1.4-13.84-2.06-19.15-1.75-14.28-1.17-14.59-2.85-26.8-1.28-9.36-1.59-9-2.5-16.53-1.25-10.28-1.54-18.15-1.72-23.26-.18-5.49-.48-14.7.23-26.46.76-12.56,1.81-13.74,3.2-31.24.44-5.66.18-3.64,1.14-17.79.54-8,.33-4.32,2.28-28.39,1.18-14.56,1.29-16.43,3-19.73s3.25-4.86,8.1-13.34c2.66-4.66,4-7,4.22-8.66,1-8-6.4-14.91-9.13-17.45a31.26,31.26,0,0,0-13.79-7.52c-2.86-.67-5.48-.68-10.72-.69a56.43,56.43,0,0,0-12.77,1,85,85,0,0,0-8.44,2.51C82,140,81.49,140.38,77,141.76c-3.61,1.1-6.82,1.91-8.32,2.28-4.15,1-6.22,1.56-7.07,1.71C57.13,146.57,55.05,146.45,54,148.11Z" transform="translate(-10.97 -50.83)"/><path d="M27.18,182.86a14.44,14.44,0,0,0,.91,8c1.14,3.06,2.78,4.94,6,8.59,8.53,9.57,8.4,9.33,8.68,9.78,1,1.59,2.88,5.17,3.11,17.37.14,7.83-.52,12.29-1,18.28-1.16,14.44.64,14.35-.09,32.36-.21,5.11-.75,11.48-1.83,24.23-.66,7.82-1,15.66-1.55,23.49-.76,11-1.16,16,.59,16.62,1.51.52,4-2.48,5.23-4.6,1.62-2.84,1.43-5,2.09-12.34.41-4.54.44-3.24.84-7.74.63-7.16.48-9.64.91-16.38s.69-5.85,1.18-12.87c.51-7.47.19-8.12.68-17.51.24-4.6.5-8,1-14.29s.92-11.17,1.11-13.25c.61-6.68.81-13.4,1.73-20,.54-3.86.93-5.64.25-8.29-.87-3.42-2.54-4.46-3.53-8.79-.79-3.48.13-3.49-.62-5.69-1.38-4.08-4.47-3.86-9.22-9.47-2.51-3-4.34-5.13-4.14-7.92.12-1.61.86-2.69.56-5a5.88,5.88,0,0,0-1.61-3.84,5.38,5.38,0,0,0-5.63-.68c-1.44.68-2.18,2.14-3.65,5.07A18.57,18.57,0,0,0,27.18,182.86Z" transform="translate(-10.97 -50.83)"/><path d="M14.39,334.42c-4.22,1.71-3.39,12.49-3.27,13.9.4,4.67,1.81,7.89,4.15,13.22,2.52,5.75,4.29,7.59,5.48,8.62,1.58,1.38,3.71,3.24,6.73,3.46,4,.3,8.9-2.31,9.88-2.83,1.27-.67,2.14-1.27,3.4-1.13,2.06.22,2.5,2.09,4.47,2.39a5.05,5.05,0,0,0,4.59-2.2c1.52-2.3-.49-4.43-.44-8.18s2.08-4.82,6.3-11.84c4.58-7.61,3-7.62,6-11.45,3.52-4.52,5.93-4.76,12.33-10.13,3.62-3,4.89-4.67,10-10,9.39-9.92,10.06-9.62,18.5-18.38,11.08-11.5,9.92-12,21.84-24.37,8.5-8.8,12.75-13.2,13.26-13.63,5.78-4.91,11.14-8.29,13.07-15.16.55-1.94,1.13-5.26,0-5.87-1.57-.85-5.16,4.25-12.31,10.61-2.7,2.4-3.39,2.74-10.8,8.33-10.17,7.68-9.22,7.3-23.86,18.56-11,8.49-11,8.23-17.81,13.64-7.21,5.7-8.46,6.9-15,11.93-8.48,6.56-8.05,5.82-15.72,11.75-6.7,5.18-13.65,10-20.27,15.34-4.37,3.5-7.48,6.13-11.74,5.87C18.69,336.59,16.9,333.4,14.39,334.42Z" transform="translate(-10.97 -50.83)"/><path d="M60.7,231.48c.83,3.21,2.9,4.82,5.51,7.66a63.6,63.6,0,0,1,7,9.28c3.23,5.05,3.21,6.6,5.46,7.66,3.46,1.64,7.47-.21,8.12-.52,1.53-.74,1.69-1.27,5.4-5,4.92-4.94,5.88-5.26,6.2-7,.55-2.93-1.45-5.58-2.67-7.2-1-1.29-2.09-2.37-8.35-6.15-5.26-3.17-7.94-4.78-10.5-5.63-.94-.3-3.49-.76-8.59-1.68-4-.73-5.41-.88-6.44,0-1.25,1.08-1.36,3.14-1.45,4.88A12.4,12.4,0,0,0,60.7,231.48Z" transform="translate(-10.97 -50.83)"/><path d="M137.7,307.46c-1.14,2.1.1,5.05,6.23,14,1.48,2.17,4.51,6.54,11.43,15.06,5.09,6.28,5.88,6.91,7.14,7,4.25.36,5.63-6,14.54-13.76,2.38-2.08,6-4.37,13.24-9,4.34-2.75,9.4-5.95,14.28-8.57,13.26-7.1,25.2-9.84,34.92-12.07,8.8-2,16.8-3.15,23-4,5-.71,5.58-.69,12.59-1.56,15.94-2,18.93-2.88,32.85-4.68,6.9-.89,12-1.41,22.32-2.46,14.48-1.48,21.71-2.22,27.11-2.36,11.59-.3,20.1.69,29.18,1.75,14.94,1.74,23.93,2.78,35.3,6.68,1.81.62,10.3,4.74,27.28,13s25.61,12.43,27.66,14.21a13.88,13.88,0,0,0,6.11,3.44c4.16,1,5-1.25,14.31-3.25,2.86-.61,7.34-1.39,10.68-4.29A3.47,3.47,0,0,0,509,315c.15-.52.6-2.7-5.16-7.92-3.69-3.35-4.31-2.84-10.87-7.73-2.91-2.16-3.89-3.08-6-3.72a14.71,14.71,0,0,0-7.63,0c-7.43,1.49-13.36-4.25-25.47-9.34-5.07-2.13-10.47-3.43-21.27-6-11.94-2.86-21.11-4.19-27.19-5.06-15.5-2.21-27.8-2.85-35.77-3.24-1.61-.08-4.26-.21-9.92-.38-19.5-.62-31.15-1-44.36-.67-15.09.36-29.11.7-47.32,4.1-6.3,1.18-5.14,1.23-24.42,5.44-29.12,6.35-26,4.95-34.24,7.25-15.62,4.32-31.88,8.82-41.69,13.64-2.26,1.11-5.32,2.79-9.64,2.86-3.94.06-5.06-1.29-10.39-1.05a14,14,0,0,0-7.54,2.1A6.56,6.56,0,0,0,137.7,307.46Z" transform="translate(-10.97 -50.83)"/><path d="M199.19,216.58c-3.52.48-5.68,5.41-7.65,9.91a27.23,27.23,0,0,0-2.61,10.6c-.15,6.73,2.67,11.81,4.87,15.64,12.49,21.81,13,19.34,15.64,25.9,4.38,11,4.35,21.78,8.87,29.73,1,1.8,1.37,1.85,5.21,7.82,1.7,2.64,2.44,3.88,4.17,4.87a10.64,10.64,0,0,0,5.57,1.21,11.25,11.25,0,0,0,4.69-1c3.23-1.81,2.93-7.68,2.61-18.25-.5-16.36-.14-14.48-.7-24.86-.35-6.45-.49-7.29-.69-12.51-.49-12.8.21-12.3-.52-14.78-2.1-7.1-7.94-11.47-15.82-17.38-5.91-4.42-6.16-3.32-11.47-7.65C204.13,219.91,202.46,216.13,199.19,216.58Z" transform="translate(-10.97 -50.83)"/><path d="M193.18,141.36c-2.92,6.34-2.8,5.68-3.23,7-.92,2.79-1.6,4.85-1.49,7.54a17.88,17.88,0,0,0,3.1,8.75c.78,1.31,1.49,2.25,7,8.09,7.11,7.52,7.25,7.34,8.75,9.42,2.3,3.2,2.35,4.15,4,5.12,4.35,2.5,10.11-.34,10.51-.54,2.07-1.05,1.64-1.51,8.08-7.94a60.57,60.57,0,0,1,6.87-6.2,33.62,33.62,0,0,1,5.12-3.37c5.47-2.83,7.86-1.71,9.27-3.77,1.78-2.59.32-7.77-2.73-10.3-1.76-1.47-2.91-1.1-10.9-2.39-6.41-1-5.84-1.3-9.88-1.79-5.4-.64-6-.11-11.76-.85-6.68-.85-8.42-1.88-9.37-2.56a17.81,17.81,0,0,1-4.68-4.94,17.58,17.58,0,0,0-3.5-4.94c-1.13-1-1.62-1.13-2-1.1C195.29,136.68,194.64,138.18,193.18,141.36Z" transform="translate(-10.97 -50.83)"/><path d="M217.56,127.77c-.16,3.1,5.37,4,10.25,9.39,1.8,2,2.61,3.59,5.54,10.32,8.48,19.5,7.38,19.29,11.47,27.5,2.87,5.75,4.57,8.17,5.63,12.93a67.09,67.09,0,0,0,2.15,7.63,16.67,16.67,0,0,0,2.54,5.47c1,1.28,2.45,3.16,4.78,3.46a7.11,7.11,0,0,0,4.7-1.46,12.19,12.19,0,0,0,4.39-5c1.25-2.58,1.08-4.4,1.38-8.39.25-3.26.92-6.47,1.31-9.71,1.1-8.92,1.09-18,3.08-26.8.66-2.9,1.59-6.29.39-10.39a15.24,15.24,0,0,0-3.54-6.24c-3.33-3.45-6.1-2.64-19.1-6.09-6.36-1.68-7.15-2.26-10.4-2.46-4.41-.27-5.66.63-8.78-.54-2.3-.86-3.15-1.92-6.85-3.16-2.84-.94-3.86-.83-4.47-.69C220,124,217.67,125.8,217.56,127.77Z" transform="translate(-10.97 -50.83)"/><path d="M333.25,57.17c1,5.75,6.46,6.19,9.18,12.32,1.32,3,1.21,5.43,1,10.37-.29,6.2-1.61,8.81-3.35,15.88-1.58,6.42-1.53,8.49-4.86,24.85,0,0-.45,2.2-4.39,10.24-.53,1.08-1.57,3.16-2.83,3.11-.94,0-1.14-1.2-2.88-2.27a5.19,5.19,0,0,0-3.63-1,4.58,4.58,0,0,0-3.48,3.72c-.14,1,.2,1.68,1.58,4.22,2.48,4.55,3.71,6.83,3.9,7.15,2,3.41,2.35,3.89,2.42,5,.09,1.5-.41,2.92-1.86,5.2-1.95,3.07-3.49,4.32-6.18,7.2-3.52,3.77-3.31,4.23-8.77,10.31-1.82,2-2.73,3-3.53,3.76a66.62,66.62,0,0,1-8.09,6.1c-1.58,1-2.76,1.71-3.47,3.23a5.17,5.17,0,0,0-.36,3.59,5.53,5.53,0,0,0,3.35,3.34,7.57,7.57,0,0,0,5.5-.35c4.14-1.56,6.59-4.12,10-7.42,11.06-10.53,12.93-10,14.23-13.87.42-1.25,1.07-3.83,3.23-4.91,1.76-.87,3,0,4.19-.72,2.11-1.26-.17-5.59.48-10.88.44-3.67,2-6.18,3.7-8.85,3.63-5.76,6.9-6.34,12.44-11.6,4.45-4.22,6.82-8.09,10.29-13.76,4.11-6.7,3.35-7.41,8.49-17.7,6.84-13.69,9.9-15.89,8.85-20.93s-5.32-8.71-8.25-11.24-3.69-2.13-10.53-6.94c-4.69-3.3-4.79-3.82-8.73-6.34a88.81,88.81,0,0,0-9.57-5c-4.38-2.12-5.67-2.52-6.69-1.91C333,52.05,332.87,55.07,333.25,57.17Z" transform="translate(-10.97 -50.83)"/><path d="M366,127a135.63,135.63,0,0,1,19.47-8.24c3.3-1.1,7.77-2,16.72-3.72a21.46,21.46,0,0,1,7.76.08c3.18.62,4.46,1.67,5.17,2.67a5.18,5.18,0,0,1,.89,2.1c.48,3.32-5.09,5.6-11.8,11.39s-8.4,9.79-12.52,9.53c-2.06-.13-2.19-1.16-4.52-1.37-3.88-.35-5.76,2.28-11.23,5.57-3.92,2.36-7.57,3.62-14.87,6.14-4.82,1.67-6.64,2-8.32,2.1a34.1,34.1,0,0,1-9.21-.81,21.38,21.38,0,0,1-5.17-1.37c-1.39-.6-5.86-2.55-6.22-5.09-.31-2.2,2.51-4.73,11.23-9.29A162.59,162.59,0,0,1,366,127Z" transform="translate(-10.97 -50.83)"/><path d="M277,159a42.2,42.2,0,0,1,17,6.14c5.37,3.3,8.53,5.23,10.66,8.72,3.61,5.93,1.17,11.34-3.23,31-3.21,14.33-4.82,21.5-5.49,31-.6,8.33-.65,19.79-.65,20.68,0,6.67.14,9.94.16,12.59.09,12.21-2.82,21.78-6.46,33.76a184.18,184.18,0,0,1-16.15,37.64c-4.79,8.39-8.76,15.34-15.83,23.26-12,13.46-24.15,19.8-39.41,27.78C211,395,195.84,402.46,180.06,403c-8.76.32-13-1.66-15.19-4.52-.32-.43-2.07-2.75-1.29-4.52,1.15-2.62,6.92-2.05,11.63-2.26,5.32-.24,10.81-2.48,21.81-7a143.69,143.69,0,0,0,29.23-16,135.73,135.73,0,0,0,30.2-30.2c5.61-7.71,12.89-17.73,17.45-32.63,1.48-4.83,2.62-16.48,4.84-39.57,2-20.35,2.41-28.15,2.59-31.66,1.16-22.34-.52-17.16.64-27.62.93-8.38,2.63-17.22-1.29-25a13.16,13.16,0,0,0-5-6c-4.39-2.56-7.78-.15-10.18-2.42-3-2.83-2.22-10.81,2.1-13.89C269.91,158.12,272.5,158.41,277,159Z" transform="translate(-10.97 -50.83)"/><path d="M247.72,224.43c-1,5.74,7.73,13.07,16.16,14.08,3.78.46,5.91-.55,13.62-3.34,10.93-4,22.12-7.2,33.12-11,16.08-5.51,15.54-5.27,16.16-5.54,9.65-4.21,13.05-7.43,16.62-5.77,4.57,2.13,5.22,10.34,5.38,12.36s-.28,4.42-1.12,9.1a139,139,0,0,1-3.22,14.56c-1.78,6.25-2.62,7.33-3.36,12-.49,3.09-.23,3.23-.84,6.86-1,6-2,7.34-1.12,9,1.34,2.39,5.61,3.1,8.82,2.38,5.18-1.16,8-6.17,11.05-11.62,2.66-4.81,2.79-6.68,5.88-14.69a134.32,134.32,0,0,1,7.28-16.52c5.1-9.45,7.65-14.18,11.9-17.63a20,20,0,0,0,6.43-7.42,12.89,12.89,0,0,0,1.26-6.86,12.3,12.3,0,0,0-2.24-5.6c-2.8-4.12-5.48-4.23-12-8.67-4.82-3.27-6.42-5.28-11.76-7.84-3.19-1.53-4.69-1.81-6-1.26-2.45,1-2.27,4-5.6,5.88-1.75,1-2.41.51-3.91,1.26-3.55,1.76-3,6.17-4.9,9.23-2.55,4.06-8.22,4.25-16.38,5a263.46,263.46,0,0,0-26.17,3.78c-4.66,1-2.49.88-26.45,8.12-9.92,3-11.77,3.46-14.84,3.36-2.8-.1-5.4-.62-8.4.84C252.63,218.74,248.37,220.88,247.72,224.43Z" transform="translate(-10.97 -50.83)"/><path d="M354.06,342.16c-.22,10.33,7.86,20.66,15.25,31.1,8.29,11.72,12.44,17.57,15.4,23.48A251.46,251.46,0,0,0,398,420.21c1.69,2.74,3.6,5.74,7.32,7.78,1,.53,8.64,4.79,15.26,1,6.26-3.55,6.86-11.6,7-13.75.58-7.67-3.13-13.43-7.92-20.64-4.19-6.3-8.88-11-18.09-20-7.27-7.15-10.9-10.73-16.15-14.95-12.5-10.06-14.4-8.37-21.53-16-3-3.18-6.19-7.26-8.23-6.43C354.18,337.85,354.08,340.91,354.06,342.16Z" transform="translate(-10.97 -50.83)"/></svg>