<svg data-name="Layer 1" xmlns="http://www.w3.org/2000/svg" viewBox="0 0 468.22 333.24"><path d="M129.41 6.4c-3.59 4.68.6 14.9 6.66 20.26a18.65 18.65 0 0 0 8.92 4.81c5.24 1 8.26-1.24 10.76 1 .57.51 1.5 2.53 3.36 6.57a10.19 10.19 0 0 0 2.38 3.82 10.55 10.55 0 0 0 3.55 1.94 21.84 21.84 0 0 0 4.86 1.3c2.16.26 5.42 0 11.8-3.4 7.4-3.91 11.1-5.87 12-9.22.63-2.42-.93-5.65-4-12.12-2.38-5-3.57-7.43-6-9.86-1.31-1.33-4-2.9-9.22-6C166.17.62 165.05.33 164.13.17c-3.46-.61-3.86.56-11.64 1.61-6.68.91-7.65.21-13.42 1.3-5.56 1.04-8.31 1.52-9.66 3.32z"/><path d="M73.15 54.22c-2.51 5.11 6.29 14.52 6.79 15 2.09 2.19 3.66 3.85 6.26 4.52 4.67 1.21 8.49-1.85 14.25-4.78.93-.47 6.5-2.32 17.65-6 6.31-2.09 13.9-4 39.48-7.48 14.9-2 23.78-2.88 32-3.83 8.53-1 34.82-4 64.84-10.08 0 0 19.56-3.94 57.17-5.63 2.86-.13 9.5-.34 14.95 3.89a18.08 18.08 0 0 1 5.84 8c3.22 9-3.61 14.6-4.76 26.2a4.63 4.63 0 0 1-1.3 3.25c-2.6 2.2-7.36-1.57-9.1 0s.49 8.94 5.2 13.86c6 6.23 14.06 7 16.25 7.15 11.62.9 20.33-5.86 23.38-8.23 7.19-5.58 5.7-8.2 14.73-17.54 10.2-10.57 15.5-10.74 16.24-16 .85-6-5.22-11.16-16.89-20.79-12.82-10.59-24.84-17.12-37.25-21-7.25-2.27-12.66-3-18.19-1.3-5.06 1.59-6.57 4.12-10.83 6.93-7.89 5.21-14.92 4.59-30.66 5.41-10.24.54-20.41 2-30.63 2.82-12.54 1-14.78 1.62-46.56 5.63-56.2 7.11-59.33 6.54-76.88 10-20.83 4.06-21.64 5.89-33.35 6.49-9.57.48-16.74-.33-18.63 3.51z"/><path d="M192 43.5c-1.34 3.34 5.72 6 6.89 14.7.57 4.25-.88 5.28.18 9.62a20.75 20.75 0 0 0 5.81 9.8c5.32 5.12 11.86 5.84 16.51 6.35 11.43 1.25 19.42-3.05 27.58-7.44 2.07-1.12 4.34-2.5 5.27-5.08 1.25-3.52-.53-7.71-2.91-10.16-4.26-4.41-11.26-4-15.42-3.81-6.57.34-7.35 2.29-11.25 1.27-4.17-1.1-7-4.29-10.16-8-4.32-5-3.73-6.49-6.54-8.35-5.46-3.6-14.59-2.34-15.96 1.1zM116.96 69.95c-2.7 1.87-1.45 5-3.58 12.82-1.62 6-2.44 9-5.07 12.13-2.48 2.94-5.28 4.42-5.37 7.55a6.89 6.89 0 0 0 1.1 3.68c1.67 2.83 3.9 2.55 6.76 5.37 2.48 2.45 1.74 3.6 3.38 4.57 3 1.78 7.56-.81 13.31-4.17 5-2.94 4-3.15 13.82-10.34 4.45-3.25 6.08-4.24 6.66-6.56.89-3.54-1.47-7-3.28-9.64-.83-1.22-1.93-2.6-9.14-8.55-6.75-5.56-8.26-6.39-10.24-7-2.19-.59-5.8-1.63-8.35.14zM23.82 46.83c-1.28 6.83 9.6 9.81 15.89 22.18a40.3 40.3 0 0 1 4 19.53c-.2 11.35-4.7 19.73-7.62 25.16-3.81 7.11-4.58 5.47-10.26 15.23-2.42 4.16-4.13 7.63-8.28 10.6-2.48 1.77-3.46 1.66-4.63 3.31-2.16 3-.34 5.58-.33 13.57 0 6.59-1.24 8.17.33 10.59a9.64 9.64 0 0 0 8.28 4c6.27-.46 8.76-8.76 19.53-29.14 5.39-10.21 8.92-16.87 14.23-25.82 5.58-9.38 8.75-13.9 10.93-22.18 1.46-5.54 2.87-11.16 1-17.55-1-3.26-2-3.94-12.25-15.89-5.06-5.88-10-11.75-17.87-16.88-2.47-1.61-5.44-3.3-8.28-2.32a7.66 7.66 0 0 0-4.67 5.61zM149.92 134.91a39.75 39.75 0 0 0-5.83 12.58c-1.26 4-4.49 8.83-10.94 18.41-5.32 7.91-13.15 18.52-33 41.2-10.85 12.4-16.28 18.6-20.42 22.61-12.8 12.36-24.14 20.33-34.63 27.7-9.46 6.65-14.29 10-19.87 12.4-4.78 2-8.56 3.05-14 6.56s-12 9.05-11.12 10.58c.59 1 4.57 0 28.44-9.12C46.34 271 55.31 267.54 58.6 265.6c8.6-5 15.57-11.68 29.53-25 8.6-8.2 15.39-15.41 20.6-21 8.29-8.85 12.44-13.27 15.67-17.32 12.28-15.39 21.77-33.13 29.17-42.47a64.61 64.61 0 0 1 6.2-7.11c3.54-3.43 4.37-3.31 5.28-5.1 2.87-5.62-2.06-12.89-2.73-13.86-1.38-2-2.94-4.22-5.29-4.37-.61.03-3.1.01-7.11 5.54z"/><path d="M95.63 237.99a49.38 49.38 0 0 1 7.24 7.54c3.77 5.12 4.68 9.47 7.69 22.17 3.81 16.06 3.21 12.73 4.83 20.06 3 13.52 4.47 20.27 4.37 24.29-.2 8.73-2.5 14.06.15 15.84 2.07 1.38 5.57-.45 8.75-2.12 2-1 7.76-4.05 10.56-10.1 2-4.36 1-7.08.6-15.24-.76-15.84 2.51-17.28.61-27.45-.64-3.43-2.59-7.87-6.49-16.74-5.7-13-8.66-19.58-14.33-24.74-5-4.52-5.55-2.61-12.22-8.3-8.78-7.49-11.5-14-14.93-13.12-2 .52-1.58 2.82-6.33 9.35-3 4.13-3.84 4.13-3.93 5.58-.22 3.77 5.29 5.59 13.43 12.98z"/><path d="M121.72 218.98c-.91 2.87-.62 4.83-.45 9.35.19 5.13-.16 3.12 0 10.71.28 12.85 1.21 14.62 2.11 15.84a14.3 14.3 0 0 0 7.09 4.68c5.37 1.89 10.25.81 14.18-.16 9.95-2.44 15.22-4.48 22.18-6.63 15.44-4.79 13.34-2.14 25.79-6.34 7.68-2.59 12.17-4.84 15.08-2.56 2.34 1.82 2.45 5.61 2.57 9.65.13 4.55-.66 6.24-1.66 12.37a118.05 118.05 0 0 0-1.64 20.35c.06 4.94.44 5.22.13 8.31-.6 6-2.41 8.7-.91 11.31 1.25 2.16 3.89 2.78 5.59 3.17 7 1.63 15.95-1.17 21.57-7.39 5.13-5.69 2.08-8.27 7.08-19.31 5.63-12.41 11.31-13.18 14.18-24.58 1-3.81 2-8.38.46-13.58-1.3-4.23-3.53-6.12-12.52-14.48-13.93-12.95-13.64-13.12-17.35-15.84-7.15-5.25-10.84-7.95-16.89-9.65a39 39 0 0 0-22.33.45c-8.25 2.75-6.81 5.65-16.29 9.35-6.69 2.62-6 .62-22.47 4.38-6.09 1.38-8.59 2.2-11.77.9-5-2-6.24-7.1-9.2-6.64-2.65.42-4.04 4.82-4.53 6.34z"/><path d="M154.31 306.32c12.23-2.48 22.68-4.57 35.71-5.94 3.54-.37 5.92-.55 10.37-.89 11.82-.88 26-1.53 38.37 3 2 .72 4.79 1.91 5.06 3.9s-2 3.77-6.39 7.26a59.52 59.52 0 0 1-6.55 4.7c-8.84 5-24.72 4.64-31 4.61a154.1 154.1 0 0 0-30.58 2.39c-12.52 2.37-25.5 3-37.57 7.09a10 10 0 0 1-6.83.27c-6.52-2.52-10.39-14.75-6.38-19.94 2.86-3.71 7.86-1.41 24.28-4.08 3.44-.54 1.87-.42 11.51-2.37zM165.82 118.82a6.78 6.78 0 0 0 1.3 4.72 7.46 7.46 0 0 0 4.49 2.47c5.66 1.27 10.43.58 12.74.59 3.6 0 7 1.82 20.41 17.23 6.38 7.34 10 12 15.69 19 10 12.32 15 18.48 17 20.3 12.44 11.41 18.21 9.06 31.5 21.59 5.38 5.07 3.51 4.59 12.51 14.16a227.39 227.39 0 0 0 25.6 23.36c12.42 10 18.05 12.88 24.89 13.8a38 38 0 0 0 8.26.12c14.77-1.13 23.21-6.68 32.8-10.15 17.39-6.28 20.94.64 55.34-4.36 10.41-1.52 10.4-2.2 16.4-2.48 9.63-.45 17.78.93 21.94-3.42.46-.48 1.83-1.92 1.53-3.42-.4-2.07-3.7-3-4.83-3.31a17.6 17.6 0 0 0-7.2-.23c-3.48.37-7 .1-10.5.35-11.21.79-44-8-44-8-27.25-7.33-26.45-1.17-56.87-9.21-26.6-7-32.69-13.19-34.8-15.57a43.39 43.39 0 0 0-11.33-9.67c-3.29-1.92-8.78-5-15.45-4.37-4.22.42-4.63 1.92-8.73 2.48-3.11.43-7.52.2-15.46-3.89-4.64-2.4-10.65-6.2-20.41-15.81a175.93 175.93 0 0 1-20.29-23.37c-6.5-9-6.57-10.91-11.68-15.92a53.47 53.47 0 0 0-18.88-11.8c-8.24-3-12.33-2.07-13.81-1.65-.99.24-7.47 2.05-8.16 6.46z"/></svg>