<svg id="Layer_1" data-name="Layer 1" xmlns="http://www.w3.org/2000/svg" viewBox="0 0 503.93 461.95"><defs><style>.cls-1{stroke:#000;stroke-miterlimit:10}</style></defs><path class="cls-1" d="M149.07 29.44c-.75 2.24 4.74 4.94 14.68 13.34 7.76 6.57 14.15 12 19.58 19.8 7.62 11 4.34 13.78 12.45 24.47.82 1.07 6 6 16.46 15.79 7.23 6.8 10.73 10 16 10.23 1 .05 6 .3 8.67-2.89 2.11-2.5 1.35-5.41.89-12.46a140.59 140.59 0 0 1 .2-19.57c1-10.48 3.23-9.92 2.45-14.46-.5-2.9-1.66-4.64-17.13-19.57-6.83-6.6-9.09-8.65-13.12-10.68-1.29-.64-4.85-2.34-12.46-3.78-8.33-1.58-13-1.25-26.46-1.33-17.41-.11-21.58-.74-22.21 1.11z" transform="translate(-7.24 -27.64)"/><path class="cls-1" d="M93.25 97.06c-1.26 5.19 5.38 8.75 17.79 22 6.38 6.82 13.32 13.1 19.57 20a8.69 8.69 0 0 0 2.67 2.23c7.32 3.68 18.17-6.2 27.36-12.46 7.18-4.89 18.2-8.52 40.26-15.79 14.23-4.69 20.24-5.44 49.37-11.79 22.45-4.89 13.06-3.18 55.17-12.68 69.66-15.71 74-15.57 75.84-16.68.32-.19 2.12-1.32 3.11-.67.8.53.7 2 .67 2.45-.36 5.71-8.89 11.79-8.89 11.79-9.44 6.72-16.65 7.63-16.46 9.34.28 2.67 17.9 1.67 18.23 4.23.24 1.77-8 4.15-22.68 8.67-28.44 8.76-30.82 10.07-30.7 10.9.26 1.77 11.9 2.11 22.47.67 9-1.23 12.07-3 25.35-6.68 15.15-4.15 22.72-6.22 27.58-6 12.14.55 18.82 5.79 32 4.45a30 30 0 0 0 9.79-2.67c3.67-1.72 9.13-4.29 10-8.23 1.28-5.8-8.79-8-17.8-22-3.43-5.33-7.57-11.76-9.56-21.13-1.29-6.07-.79-9.17-3.56-11.57-5.78-5-17.64.18-18.24.45-7.86 3.53-7.18 7.67-14.9 10.67-4.35 1.7-5.36.69-15.47 2.31-6.6 1.06-11 2.26-14.11 3-14.15 3.5-52.43 10.48-77 14.68-48 8.23-72.06 12.34-94.75 14-45.05 3.32-67.58 5-74.29 2.66-2.07-.71-11.43-4.26-16.46 0a7.44 7.44 0 0 0-2.36 3.85zM173.52 180.61c-2.13-3.34 2.92-8.89 1.23-10.58-1.54-1.56-5.94 3-14.52 4.92-3.35.76-8.23.92-18 1.23-5.69.18-7.73.1-9.6 1.73s-2.94 4.66-2.71 11.32a70 70 0 0 0 4.92 22.89c4.95 13 7.42 19.45 11.08 21.17 10.38 4.88 23.66-9.29 28.56-4.67 2.62 2.47 1.32 8.91-1.23 12.8-3.06 4.65-7.06 4.36-14.77 9.11-3.73 2.29-6.67 5.05-12.56 10.58-11.64 10.94-11.7 14.13-17.48 16-6.53 2.12-8.18-1.4-15.75.74-1.38.39-11.73 3.48-15.51 12.55-2.51 6-.77 11.45 2.22 20.68 2.8 8.7 5.38 16.67 13.29 22.16 1.88 1.3 7.63 5.18 15.26 4.92 7.46-.25 13.2-4.33 20.43-11.08 13-12.12 14.31-17.42 24.62-28.8a159.51 159.51 0 0 1 35.94-29c13.6-8.27 23-11.3 22.65-12.3-.52-1.41-19.77 2.68-39.63 11.81a381.73 381.73 0 0 0-33.7 18.21c-12.93 7.92-18.93 12.71-21.17 10.83-2.77-2.33 2.2-13.17 6.65-20.19 5.14-8.1 10.13-12 22.64-22.15 26.32-21.44 25.75-21.91 33.24-26.59 3.59-2.24 11.14-6 26.09-13.54 21.28-10.67 31.93-16 36.43-17.47 13.1-4.26 26-8.45 42.35-7.88 4.58.16 12.8.8 21.9-3.2 3.72-1.63 10-4.38 11.33-9.85 1.49-5.95-3.65-11.74-7.88-16.49-5.16-5.81-10.58-8.8-21.42-14.77-9.23-5.1-11.9-5.52-13.54-5.66-7.6-.68-13.67 2.78-17 4.67-6.26 3.58-10.6 8.55-14.52 13.05-2.55 2.92-2.17 2.87-3.45 4.18-6.35 6.49-14.65 6.46-24.13 8.13-8.25 1.45-3.68 1.77-28.8 9.11 0 0-8.26 2.41-24.12 3.44-3.69.2-7.86.38-9.34-2.01zM294.88 234c-10.9 7-12.81 10.35-13.53 11.82-1.67 3.39-.57 4-2 7.14-3 6.74-10 9-16.74 12.31-9.22 4.52-6.21 5.25-21.67 15.26-12.1 7.83-11.41 5.74-28.8 16C195 306.67 195.22 308.2 183.37 314c-7.3 3.59-12.63 5.61-12.31 6.89.44 1.77 11.28.82 19-.49 16.43-2.81 26.17-8.59 41.85-16.5 20.8-10.49 12.64-4.85 49-21.9 20.54-9.64 26.6-13.06 36.19-11.57 7.36 1.14 12.71 4.54 21.91 2.7 1.95-.39 12.77-2.55 14.52-9.11 1.55-5.76-4.77-11.79-12.55-19.2a64 64 0 0 0-19-12.8c-6.15-2.61-11.67-4.87-18-3.2-1.75.51-4.2 2.08-9.1 5.18zM56.35 364.5c-1.51-5.5 8.26-10.42 6.65-14.77-1.22-3.29-8.09-3.82-12.06-3.44-8.06.76-17.72 6.52-19.94 15.75-2.43 10.09 5.42 18.52 11.33 24.86 3.68 4 9.06 9.74 17.47 11.82 11.2 2.76 17.06-3.68 32-6.65 12.17-2.42 21.43-.75 35.2 1.73 22.64 4.07 38.61 12.93 45.78 16.74 10.61 5.63 40.63 16 100.69 36.67 75.77 26.12 71.34 20.17 87.88 30 9.72 5.8 18.68 12.29 31.76 11.81 16.49-.6 18.3-11.52 47.51-25.6 22.21-10.71 33.31-16.06 46.28-17.72 7.49-1 18.57-1.46 22.4-8.62 1.59-3 2.06-7.33 0-9.85-3.05-3.72-10.22-1.63-21.42 0-8.79 1.29-17.75 1-26.58 2-28.67 3.21-68.29 1.92-74.1 1.73a609.43 609.43 0 0 1-75.33-7.39c-27.68-4.42-47-9.43-81.73-18.46-44.71-11.61-67.06-17.42-86.4-22.89a341.34 341.34 0 0 0-40.13-8.62c-8.73-1.28-13.1-1.92-17-2-8.67-.11-13.15 1.2-20.44-1-3.94-1.13-8.86-2.6-9.82-6.1zM8 95.46c-2.61 4.11 20.66 13.76 28.82 36.19 6.07 16.67-1.85 24.9 1.09 52.67.32 3 .87 7.28-1.3 11.71-3.81 7.73-11.46 6.85-14.53 13.65-1.08 2.41.08 7.67 2.39 18.21 2.37 10.81 4.3 15.45 7.37 19.72 2.63 3.66 4 5.49 5.85 5.64 7.3.55 14.63-22.41 18.21-33.6 2.07-6.49 2.31-8.28 9.1-39.45 4.8-22 5.7-25.81 5-32.94-.57-5.76-2-18-10.83-28.18-1.74-2-7.81-5.88-19.94-13.65-7.44-4.76-13.51-8.37-22.11-10-4.64-.82-8.21-1.49-9.12.03z" transform="translate(-7.24 -27.64)"/></svg>