<svg data-name="Layer 1" xmlns="http://www.w3.org/2000/svg" viewBox="0 0 316.83 392.97"><path d="M19.68 127.44c-3.82 4.31 3.36 20.08 15.34 28.31a38.53 38.53 0 0 0 19.84 6.46 66.48 66.48 0 0 1 7.18 42.94c3.45 4.58 4.15 8.31 4.13 10.88 0 4.52-2.26 7.53-1.41 13.14a18.9 18.9 0 0 0 1.43 4.85l1.67 2.73c-.24 2.21-.59 5.51-1 9.53-.58 6.35-.86 10.7-.92 11.39-1.29 16-38.08 50.92-59.55 55.71-1.38.3-5.58 1.13-6.32 3.68-.93 3.2 3.84 8.29 8.62 10.63a17.67 17.67 0 0 0 1.78.75 56.93 56.93 0 0 0 23.39-1.52 57.53 57.53 0 0 0 25.77-15.63 60.07 60.07 0 0 0 8.72-12.1c2.81-4.82 8.2-15.14 12.39-37.17 2.52-13.22 3.16-23 4.23-39.56 1.42-21.93-.15-18.43 1.26-29.42 2-15.7 5.23-22.79 1.13-31.82-2.5-5.5-6.42-8.87-9.85-11.82-7-6-13.46-8.15-22.81-11.41-30.44-10.59-33.25-12.52-35.02-10.55zM147.93 69.86c-4.5 3.75-2.93 12-2.82 12.53.18.88.77 3.39 3.66 7.46 4.16 5.85 7.3 6.77 12.39 11.68 2.13 2.06 7.19 6.95 10 13.8 1.71 4.17 1.64 6.78 2 16.75.71 21.18 1.35 18.67 1.26 29.28 0 5.3-.31 10.91-.84 22.11-.65 13.59-.84 12.87-.71 15.76.6 12.94 3.86 15.16 2.12 23.37-1.17 5.5-2.95 6-3.66 12.11-.62 5.22.52 6.2.7 13.37.13 5.28.28 11.14-2 17.46-2.19 6.16-4 5.35-7.18 12.67-2 4.71-4.52 10.47-3.24 17.32.8 4.29 2.73 7.13 5.63 11.4 3.47 5.1 5.51 8.11 9.43 9.15 5.28 1.41 9.93-1.8 10.56-2.25 4.81-3.42 5.71-9 6.2-12 .75-4.66-.51-5.33-.57-11.12-.08-8.15 2.41-10.1 3.52-19.71.49-4.16.11-4.59.14-13.37 0-11.56.69-11.45 1.13-26.19.54-18.11-.43-18.5.84-25.34a45.84 45.84 0 0 0-.7-22.94c-1.75-7.23-.17-7.84.14-32.24.11-8.84.14-19.57.14-19.57 0-13.82-.09-15.3 1.13-18.44 1.4-3.62 3.49-6.61 3.24-11.55a17.83 17.83 0 0 0-1.55-6.33c-1-2.2-2-3.26-5.77-7.32-6.34-6.88-5.88-6.55-6.9-7.47a42.3 42.3 0 0 0-8.87-6.19c-4.79-2.46-8.76-3.24-13.23-4.08-8.91-1.65-13.36-2.48-16.19-.11zM287.72 2.28c-4.7-2-5.47-2.38-6.76-2.25-3 .32-3 2.72-6.33 3.66-3.79 1.06-5.36-1.57-9.15-.42a9.9 9.9 0 0 0-5.07 3.94c-2.61 3.66-2.15 7.8-1.83 10.7.24 2.22.75 6.8 4.08 10.56 1.13 1.28 2.27 2.09 10.84 5.91 9.21 4.11 10.39 4.28 11.83 6.2 1 1.32 1.72 3 2.39 11.68.65 8.45.56 14.08.56 14.08-.14 9-.79 10.91-1.4 23.23-.28 5.63-.43 8.55-.43 12.81 0 13 1.37 13.09.71 21.26-.53 6.49-.89 10.92-2.11 16a26.65 26.65 0 0 0-.85 5.78c-.12 3.86.7 5.78 1.16 8.6 1.25 7.61-2.22 8.71-1.65 17.58.16 2.49.1 4.48 0 8.45a10.69 10.69 0 0 1-.35 3.1c-1 3.21-3.29 3.54-3.81 5.63-.6 2.42 2.12 3.53 3.67 7.46 1.12 2.86.1 3.34.07 11.47 0 6.61 0 9.91.77 12.46.74 2.33 1.75 4.15 1.13 6.62-.51 2-1.59 2.43-1.69 4.36-.14 2.51 1.61 2.95 1.55 5.3-.07 2.6-2.22 2.87-2.68 5.82-.24 1.59.33 1.8 1.27 5.92.79 3.47 1.18 5.21 1 7.25-.33 3.4-1.81 3.4-2.39 6.82-.24 1.41.21 3.91 1.13 8.87s1.24 5.9 1.33 8.45a51.33 51.33 0 0 1-.21 5.35c-.34 5.21-.66 5.49-.77 8.59-.19 5.25.71 5.07.21 8.44-.66 4.45-2.23 4.82-1.69 7.46.43 2.09 1.51 2.43 2.67 6.34a15.28 15.28 0 0 1 .64 3.31 15.55 15.55 0 0 1-.21 3.59c-.5 3.33.3 4.15.35 11.68 0 2.75-.09 3.23-.49 3.66-1.41 1.49-4.78.65-9.44-.56-4.13-1.08-5.88-2-8.16-1.13-1.13.45-2.48 1.39-2.39 2.26.12 1.19 2.83.92 4.08 2.95.92 1.49-.2 2.21.7 4.51a9.16 9.16 0 0 0 3.38 3.94c.9.68 1.65 1.24 2.25 1 .94-.38.63-2.33 1.41-2.53s1.61 1.21 1.69 1.34c.85 1.32.5 2.23 1 4.15.35 1.39.62 1.27 1.33 3.17a31.07 31.07 0 0 1 1.2 4.71c.86 3.71 1.31 3.49 1.76 5.85.27 1.42.19 1.91.07 7.39a61.73 61.73 0 0 0 0 7 14 14 0 0 0 4.22 7.74 12 12 0 0 0 4.37 2.53 9.21 9.21 0 0 0 6 .14 8.16 8.16 0 0 0 3.52-2.39 9.24 9.24 0 0 0 2-5.49c1.1-17.25.28-21.68.28-21.68-2.22-12-.91-24.4-1.41-36.6-.66-16.32-.8-22.15-.84-28.72 0-2.45 0-7.22.14-16.75.14-12.57.29-20.84.39-35.33V240c0-10.62-.28-18.54-.42-22.24-1.32-34.77-2-52.15-2.67-63.49-.28-4.59-.68-10.58-.43-18.73.18-5.88.5-6.37.71-14.08.26-9.83.39-14.75.34-15.05-.44-2.34-1.28-5.34.36-7.47 1-1.36 2.24-1.26 3.24-2.68 1.46-2.07.68-4.76.28-6.89-.22-1.18 0-5.15.56-13.1.66-9.92 1.5-8.88 1.55-15.06s-.83-7.91.43-12c.43-1.4 2.45-7.42 6.05-7.88 1.4-.18 2.22.59 3.1 0 1.64-1.11.72-5.15.42-6.48a26.64 26.64 0 0 0-4.51-9.71C299.39 7.95 295.55 5.75 293.91 4.96c-.31-.16 0 0-6.19-2.68z"/></svg>