<svg data-name="Layer 1" xmlns="http://www.w3.org/2000/svg" viewBox="0 0 485.89 427.73"><path d="M151.58 1.83c-7.3.11-14.63 6-16.71 12.79-.65 2.14.07 1.57-.71 8.54-.67 6.06-1 9.25-2.49 13.06-.8 2.11-1.08 2.17-5.24 9.69-3.31 6-2.81 7-4.09 7.55-2.33 1-4.82-1.1-17.68-9.51-4.84-3.16-7.58-4.88-11.2-4.53a17.18 17.18 0 0 0-6.58 2.4 14.73 14.73 0 0 0-5.24 4.53 13.77 13.77 0 0 0-1.87 10c1 4.3 4 6.77 6.67 9 4 3.29 5.05 2.26 9.24 5.42a31.24 31.24 0 0 1 8.62 10.31 40.17 40.17 0 0 1 3 8.35 66.63 66.63 0 0 1 1.69 8c.77 5 .44 6 1 12.27.77 9 1.64 9.53 1.6 15.55 0 4.24-.46 4.46-.27 8.09.31 5.73 1.45 6.22 1.87 11.28.59 7.16-1.55 7.9-.18 12.89.49 1.76 1.59 5.76 5.07 8.44 3.11 2.4 6.5 2.48 6.52 3.89 0 .92-1.44 2-2.78 2-1.87 0-2.39-2-5.74-3.7-1.38-.71-2.65-1.35-3.7-.83-1.3.64-1.71 2.8-1.48 4.35.28 1.88 1.37 2.07 1.57 4 .13 1.17-.28 1.23-.64 3.51a11.75 11.75 0 0 0 0 5.28 8.47 8.47 0 0 0 1.48 3c.72.91 1.9 1.94 6.94 3.42 3.86 1.13 5.78 1.7 7.77 1.57 3.21-.2 3.21-1.41 6.75-2.22 3.84-.87 7.24-.21 13.61 1 3.36.65 3.47.9 4.81.83 4.56-.24 9.51-3.5 9.53-6.47a12.2 12.2 0 0 1-.1-3.89c.18-.86.32-1.51.74-1.67 1.1-.39 2.31 3.12 5.28 4.54 1.88.9 3.65.56 6.85-.09 3.47-.72 5.89-1.85 11.19-4.45 7.9-3.86 7-3.54 7.87-3.88 6.42-2.55 8.64-1.65 14.89-4.54 4.89-2.25 5.66-3.78 5.93-4.71.87-3.08-1.84-6.22-2.22-6.67-2.42-2.8-4.45-2.13-14.53-5.36-4.51-1.45-6-2.2-8.7-1.85s-4.11 1.41-6.75 3c-4.41 2.57-9.27 4.29-13.88 6.47-9.72 4.6-10.61 5-12.49 5.74-7.29 2.86-6.28 1.63-10.09 3.52-3.12 1.54-5.91 3.42-8.42 2.4a4.89 4.89 0 0 1-1.94-1.48 5.78 5.78 0 0 1-.84-3.79c0-1.82-.46-4.15-1.48-8.79-.89-4.08-1.37-4-1.57-6.48a22.9 22.9 0 0 1 .46-6.29c.62-3 1.41-4 2.13-6.2.79-2.4.75-3.94.65-10.27-.14-8.18-.21-12.29-.19-13.32a115 115 0 0 1 1-12.59c1.15-9.45 1.78-14.22 4.39-16.65 1.29-1.2 5.24-4.24 5.89-4.74 2.3-1.78 3.24-2.41 3.9-3.83a8.59 8.59 0 0 0 .15-5.88c-1.21-4.38-4.16-4.91-4.28-7.35-.11-2.17 2.13-3.52 8.71-8.1 10.1-7 9.1-6.81 16.22-11.39 3.75-2.42 4.3-2.66 6.72-4.36a74.47 74.47 0 0 0 10.17-8.57c4.37-4.4 5.11-6.27 5.13-8a8.27 8.27 0 0 0-1.07-3.9c-1.32-2.61-3.38-4.07-6.73-6.11a87.42 87.42 0 0 0-9-5.05 151.23 151.23 0 0 0-15.63-6.28c-5.5-1.96-8.22-2.91-9.5-2.89z"/><path d="M139.52 108.54c-.21 1.07.45 2.57 10.78 9.7 7.79 5.37 6.56 3.93 11.14 7.31 3 2.22 4.73 3.72 8 4.85a15.19 15.19 0 0 0 7.17 1.08c2.67-.34 3.23-1.36 9.69-5.35 5.77-3.56 6.48-3.47 8.47-5.5a62.11 62.11 0 0 0 4.34-5.36c3-3.92 2.94-4.28 4-5 2.74-1.74 4.34-.29 7.38-2.17a8.33 8.33 0 0 0 3.48-3.91c1-2.49.23-4.81-.29-6.44a14.12 14.12 0 0 0-4.7-6.73c-1.25-.95-3-1.93-8.76-3a87.41 87.41 0 0 0-16.72-1.15c-6.54 0-8.31.33-10.13 1.23s-2.05 1.46-5.5 3.47c-1.78 1-2.5 1.35-6.29 3.26-5 2.5-7.47 3.75-8.9 4.63-3.52 2.15-3.1 2.41-7.09 4.92-4.68 2.98-5.84 2.98-6.07 4.16z"/><path d="M202.66 25.85c-2.41.56-3.57 4.38-3.86 6.44-.46 3.2.65 5.69 2.34 9.36a40 40 0 0 0 5.61 8.89c2.62 3.11 5 4.88 9.59 8.42a71.35 71.35 0 0 0 10.18 6.58c3.56 1.87 5.2 2.33 6.9 2.46a15.24 15.24 0 0 0 7-1.29 26.48 26.48 0 0 0 5.85-3.63c2.23-1.69 2.55-2.33 4-2.8s4.07-.78 5.5.46c1.83 1.6.81 4.9.11 9.83-.27 2-.34 6.76-.46 16.38s.29 11.23-.59 15.32a52.36 52.36 0 0 0-1.05 6.08 54.1 54.1 0 0 0-.24 7.49c.31 12.78 1.21 13.21.36 17.43-.67 3.3-1.42 4-1.41 6.79 0 3.29 1 4.63 1.29 8.3.14 1.92-.05 2.87-.59 7-2.17 16.7-1.45 18.41-.7 19.54s2.27 2.8 1.76 4.44a5.29 5.29 0 0 1-1.88 2.22c-1.5 1.28-2.06 1.08-2.8 2a5.58 5.58 0 0 0-.94 3.63 12.23 12.23 0 0 0 .82 4.44c1 3.22-.33 3.89-.58 11.24v8.53c0 3.57 0 5.36-.59 6-2 2.17-7.57.29-12.87-1.52s-5.75-2.76-9.12-3c-1.75-.15-3.9.18-8.19.82a43.25 43.25 0 0 0-8 2c-3.12 1.09-3.76 1.72-4 2.45-.41 1.41.77 3.25 2.22 4 .45.23 1.05.41 4.33.12s4.42-.66 5 0 0 1.09.47 2.92a5.82 5.82 0 0 0 1.4 2.93c.79.74 1.52.68 3.86 1 4.4.69 4.66 1.37 6.08.93 2-.61 1.82-2.06 3.51-2.45 2.19-.51 3.15 1.8 6.79 3.16 4.28 1.59 7.08-.08 8 1.52.71 1.29-.42 3.67-1.87 4.91s-2.89.93-3.27 2c-.3.81.42 1.95 1.87 4.21 1.23 1.93 1.62 2.12 1.87 3.16.31 1.33-.14 1.78.12 3.16a7 7 0 0 0 1.63 3.16c2.53 3.29.28 7 2.34 12.28a16.51 16.51 0 0 0 5.5 7 14.51 14.51 0 0 0 7.84 3.39 14.36 14.36 0 0 0 7.84-1.75c7.63-3.85 9.82-12.13 9.94-12.64.78-3.17.25-6.79-.82-14s-1.61-10.92-1.75-11.46c-.56-2.11-1.43-4.85-.35-7.84.57-1.59 1-1.41 1.63-2.92 1.28-3.18-.05-5.68-.7-10.41-.12-.88 0-.33-.23-7.49-.38-12.14-.68-13.3-.24-17.2.24-2.1.42-2.56.94-6.78.22-1.81.5-4.24.82-7.84 1-10.68 1.43-16 .88-17.93a13.18 13.18 0 0 1-.65-6.4 29.72 29.72 0 0 1 1.09-3.46 19.33 19.33 0 0 0 .43-7.19c-.22-4.2.79-5.2 1.76-11.81.59-4.08.35-4.69.82-13.34.7-13 1.23-11.57 1.87-23.39.28-5.19.31-8 1.28-12.29 1.15-5.1 1.85-8.21 4.45-10.88 3.29-3.37 5.77-2.07 10.18-6.08 2.08-1.89 4.85-4.41 4.68-7.49-.21-3.59-4.21-4.06-5.38-8.89-.75-3.07.73-3.45.23-7.13-.54-4-2.45-4.8-5-10.18-.37-.76-1.38-3.87-3.39-10.06-2.64-8.11-3-9.41-4.45-11.46a16.74 16.74 0 0 0-6.32-5.85C280.43-.07 277.58.01 272.01.22c-6.1.23-9.14.34-11.7 2.34a14.24 14.24 0 0 0-4.45 6.78c-1.09 3.5-.09 5.15-1.75 8.31a11.9 11.9 0 0 1-3.39 4c-2.69 2-5.37 2-8.54 2.34-8.57.94-7.59 2.9-15.33 3.51-5.34.42-6.2-.48-11 .47-2.87.57-3.94 1.17-6.09.82-3.85-.76-4.91-3.45-7.1-2.94zM57.72 240.7c-1.57.44-5.56 1.57-7.78 5.24-1.63 2.69-1.45 5.34-1.2 9a34.71 34.71 0 0 0 2.54 10.33c1.61 4 3.28 8.25 7.34 12.13a27.78 27.78 0 0 0 10.18 6c2.84 1.07 9.61 3.52 17.07 1.5 2.2-.6 4.79-1.34 6.14-3.6 1.25-2.09.27-3.53 1.34-6.29.35-.9 1.23-2.71 5.39-5.83a46 46 0 0 1 9.29-5.39c10.8-4.85 9.3-6.38 16.16-8.84 8.26-3 9.53-.42 18.72-3.59 6.47-2.23 5.13-3.25 12.72-6.14 7.76-2.95 11.32-2.71 18.57-6.59 7.08-3.78 7.22-5.91 7.18-6.58-.15-2.73-4.52-4.56-5.09-4.79-2.72-1.14-5.11-1-7.63-.75-8.55.72-12.82 1.09-14.37 1.34-7.44 1.24-11.16 1.86-14.53 3.15-4.26 1.63-6.18 3.09-8.23 2.09-2.52-1.22-3.85-5.48-2.54-7.56.88-1.4 2.37-.9 3.42-2.56s.58-3.87.31-5.13c-.34-1.52-.73-1.83-1.53-3.73-1.78-4.23-.8-5-2.2-7-.65-.9-2.25-1.76-5.44-3.48-2.87-1.55-4.33-2.33-5.55-2.2-1.85.19-3.13 1.45-4.89 3.18a13.06 13.06 0 0 0-2.81 3.9 6.71 6.71 0 0 0-.79 3.3c.08 1.15.5 1.33.79 3.24a5.35 5.35 0 0 1 0 2.5c-.27.86-.61.82-1 1.83a4.44 4.44 0 0 0-.37 2.75c.22.93.66.91 1 1.89a6.94 6.94 0 0 1 0 2.75c-.26 2.78-.4 2.85-.25 3.48.2.82.4.59 1.22 2.51a6.12 6.12 0 0 1 .67 2.38 5.37 5.37 0 0 1-.24 1.65c-.64 2-4.48 4.25-9.22 4.64a40.22 40.22 0 0 1-7.15-.37c-2.86-.28-4.19-.57-5.61.25-1.65.94-1.15 2.06-2.75 3.42-1.81 1.53-3.09.65-8.67 1.89-2.8.62-3 1-4.22.79-1.91-.26-3.28-1.39-5.31-3.11-2.75-2.33-2.56-3-4.09-3.73-2.37-1.03-4.79-.38-6.59.13zM170.58 289.86c.27 2.86 7.28 2.1 13 7.45 2.64 2.48 1.88 3.34 5.44 8.6a59 59 0 0 0 11.23 12.28c2.93 2.5 6.93 4.86 14.82 9.48 9.42 5.51 14.2 8.28 17.55 9.21 6.3 1.73 11.28 1.39 18.68.87 10.65-.74 16.89-3.14 20.18-4.65 7.74-3.53 9-6.57 9.38-8a11.11 11.11 0 0 0-.61-6.75c-1-2.43-2.49-3.84-4.74-5.88a56.73 56.73 0 0 0-7.19-5.35c-1.94-1.26-3.48-2.15-4.74-4.12a12.15 12.15 0 0 1-1.31-2.9c-1.06-3.16-.23-4-1.23-6.05a7.74 7.74 0 0 0-3.34-3.42 4.94 4.94 0 0 0-3.42-.7c-1.39.34-1.81 1.42-3.51 3.33a30.92 30.92 0 0 1-4.29 3.86 24.1 24.1 0 0 1-6.06 3.16c-4 1.33-7.3.85-12.28.08a65.82 65.82 0 0 1-13.07-3.5c-4.54-1.65-7.85-2.84-11.75-5.36a35.25 35.25 0 0 0-4.65-2.8 30.91 30.91 0 0 0-8.07-2.46c-2.51-.48-1.69-.09-10.18-.79-3.3-.27-4.6-.42-6.23.35-1.4.66-3.83 2.33-3.61 4.06z"/><path d="M119.94 297.96c.86 15.07 21.69 40.49 21.69 40.49 8.32 10.15 12.48 15.22 16.72 19.31a153.15 153.15 0 0 0 34.57 24.6 161.76 161.76 0 0 0 27.3 11.18 207 207 0 0 0 25.86 6.36c12.66 2.26 16.63 1.75 27.91 4.85 7.32 2 13.7 4.19 13.7 4.19 9 3.07 9.34 3.83 13.7 4.74 5.08 1.06 5.4.18 17 .83 7 .39 10.73.62 15.57 1.66 6.24 1.35 6.75 2.42 12 3.84 9 2.41 12.64.69 29.58 1.14 7.75.21 5.68.53 14.54.83 10.45.35 21.1.16 32.28-2.8 4.16-1.1 8.88-2.72 11.52-7a14.16 14.16 0 0 0 1.87-5.08c.67-3.73-.12-7.19-1.87-11.32-1.89-4.47-3-5.29-10.38-16.19-5.65-8.39-6.51-10.2-7.06-11.42-.67-1.52-1.67-4-3.53-7.47-1.29-2.44-3.46-6.52-4.25-6.23-.41.14-.13 1.32.21 6.43.34 5.27.06 4.23.31 6.23.34 2.84.77 3.85.1 4.78-1 1.38-3.46 1.19-4 1.14-4.94-.4-7.68-5.79-12.14-10.9-7.21-8.26-9.38-4.88-20-15.26-3.1-3-4.78-5.12-11-11.11-1.2-1.15-3.58-3.42-6.44-6-6.63-6-11.56-9.94-15.67-13.28-10.34-8.43-15.51-12.65-20.14-17.34-6.21-6.29-13.91-11.22-19.1-18.37a8.83 8.83 0 0 0-4.88-3.53c-.56-.13-2.81-.57-3.84.62-.51.59-.5 1.33-.42 2.91.18 3.23.26 4.84.42 5.6a40.66 40.66 0 0 0 4.26 10.49c1.57 3-5-9.22 5.5 11.52 7.54 14.87 11.32 22.31 13 25.22 3 5.29 4.45 11.58 8.41 16.2.52.6 2.31 2.59 2.08 5-.14 1.39-.82 1.48-.94 2.8-.18 2.12 1.46 3.11 3 6.33.94 1.94.51 1.92 1.46 4.26 1.82 4.49 3.41 4.59 5.19 8.72.21.5.73 2.55 1.76 6.64.84 3.32 1.11 4.66.42 6a5.23 5.23 0 0 1-2.39 2.18c-3.18 1.58-6.66.19-9.86-.73-1-.29-4.94-.82-12.77-1.87-9.55-1.28-11.19.1-20.24-.73-2.61-.23-4.56-.54-16.2-3.11-14.8-3.28-22.2-4.91-29.48-6.85-14.51-3.87-21.77-5.8-25-7.89a37.88 37.88 0 0 0-11.73-5.4 47.78 47.78 0 0 0-7.79-1.14c-5.45-.72-8.6-3.22-18.68-10.9-18.43-14-17.89-13.25-21.49-16.51a136.71 136.71 0 0 1-13.5-13.7c-8.17-9.64-12.26-14.46-14.53-18.89-2-3.88-4-5.81-8-9.66-1.1-1.05-2.45-2.25-3.43-1.86-1.46.62-1.25 4.21-1.18 5.45zM355.14 243.17c0 3.92 17.24 9.41 34.16 9.35 5.52 0 9.86-.63 16.66 1 2.58.62 3.84 1.17 13.26 4.93 15.14 6.05 13.44 5.26 15.8 6.29 11.37 4.91 11.91 6.19 19.38 8.66a54.15 54.15 0 0 0 15 2.89c8.66.41 11.44-1.66 12.57-2.72a12.33 12.33 0 0 0 3.06-4.92 15.44 15.44 0 0 0 .51-8.67 19.26 19.26 0 0 0-5.26-9.52c-.62-.66-2.42-2.51-9.18-6.29a79.27 79.27 0 0 0-12.24-5.95c-5.46-2-9.6-2.67-16.15-3.74-6.33-1-11.14-1.39-15.46-1.7a146 146 0 0 0-18.36-.51c-7.75.35-7.3 1.1-13.26 1-7.2-.09-8.92-1.19-12.58.34-2.13.9-3.84 2.24-7.81 3.4-2.71.79-3.91.76-4.93.51-2.1-.51-2.51-1.73-4.25-1.87-1-.08-1.95.21-4.76 2.21-4.12 2.94-6.17 4.39-6.16 5.31zM46.24 330.01c-3.78-.66-4.73 5-13.93 11.11-4.63 3.06-8.36 4.26-8.65 7.33-.21 2.16 1.49 2.87 1.31 5.65 0 .66-.25 2.34-3.76 6.77-2.72 3.44-3.27 3.27-5.27 5.84-2.55 3.26-1.9 3.84-4.89 8.47-2.45 3.79-3.2 3.91-5.65 7.71a51.55 51.55 0 0 0-3.95 7.34c-4 10 1.42 21.1 2.26 22.77 1.69 3.36 5.06 10.05 12.61 13.17 5.88 2.44 11.32 1.46 15.24.76a27.48 27.48 0 0 0 12.8-5.46c2.31-1.86 5-4 5.64-7.72 0-.25 1-5.37-1.88-7.71-1.94-1.61-3.92-.48-5.27-2.07-.41-.48-1.28-1.82 0-6.78 1.19-4.6 2.44-5.34 4.14-9.78 1.28-3.36 1.75-6 2.63-11.1.46-2.62.54-3.66 1.13-8.47 1.31-10.56 1.47-9.86 1.89-14.3.7-7.56 1-11.42-.38-15.43-.87-2.47-2.63-7.5-6.02-8.1z"/></svg>