<svg id="Layer_1" data-name="Layer 1" xmlns="http://www.w3.org/2000/svg" viewBox="0 0 427.41 380.92"><defs><style>.cls-2{stroke:#000;stroke-miterlimit:10}</style></defs><path class="cls-2" d="M106.77 100.81c-.31 1.35.89 2.6 5.45 6.87 8.34 7.82 9.34 8.35 11.37 10.9 2.87 3.61 5.81 7.3 5.45 11.84-.25 3.11-2.22 5.47-6.16 10.19-4.71 5.64-7.9 7.27-9.95 12.55-.94 2.43-1.78 3.71-1.18 4.51 1.79 2.39 12.69-3 21.32-7.35 8.33-4.16 12.65-7.1 16.34-10.18 5-4.18 7.63-6.45 8.29-10.19 1-5.76-3.35-10.87-6.63-14.69-4.21-4.9-8.81-7.37-18-12.31-9.43-5.07-13.22-5.75-16.59-5.69s-9.1.99-9.71 3.55zM62.47 205c-3.72 4.85-3.79 10.5-3.79 15.64a51.21 51.21 0 0 0 2.85 16.81c1.46 4.2 3.13 9 7.34 13.74s9.24 7.66 12.32 9.48c6 3.57 7.58 3.22 8.53 5.45 1.47 3.48-1.45 6.44-.71 14.45.15 1.62.33 3.45.94 3.55 1.1.17 2.31-5.34 5.69-14.21 3.82-10 5.13-10.45 5.21-14.45.14-7.2-4-12.66-5-14-1.91-2.52-5.06-4.76-11.37-9.24-6.78-4.77-8.38-5.22-10.63-8.22a26.4 26.4 0 0 1-4.27-9.71c-1.84-7.36-.3-12.1-2.13-12.79s-4.59 3.04-4.98 3.5zM85.93 398.34c7.67-2.28 11.39-9.23 17.76-19.66 0 0 7.81-12.78 18-27.48 8.44-12.17 16.58-21.84 22.74-29.14 9.32-11.07 10.88-11.92 16.1-19.19 9.25-12.85 12.75-21.81 14-21.32 1.42.58-1.7 13.1-6.4 25.11s-8.18 16.35-15.87 30.8c-10.5 19.75-7.17 17.7-16.34 34.35-12.49 22.67-18.74 34-19.9 35.29-2.16 2.4-7.09 7.56-6.16 13.27.45 2.78 2.17 4.91 5.45 9 4.82 6 6.41 5.68 7.82 9 2 4.75 1.37 11.53-2.61 14.69a9.91 9.91 0 0 1-5.22 1.94c-2.4.31-5.81.15-14-4.26a82.19 82.19 0 0 1-13.74-9.24c-5.87-5-8.81-7.46-10.18-11.13-1.58-4.25.34-4.6 0-15.87-.22-7.2-1.09-9.91.95-12.56s4.97-2.83 7.6-3.6zM285.85 111.47c.17-2.73 7.82-2 18-7.34 3.78-2 12.58-6.63 18.71-15.87 2.65-4 3.66-7.13 7.82-10 1.56-1.06 6.2-4.21 10.66-2.84 3.77 1.15 3.49 4.34 9 8 4.28 2.89 5.77 1.85 7.34 3.79 4.51 5.56-3.53 19.17-5.92 23.22-5.35 9-10.39 13.88-15.63 19.66-2.2 2.42-2.46 2.83-21.8 29.13-17.84 24.28-26.82 36.48-29.13 39.33-14.9 18.45-22.36 27.62-28.42 31.84-.81.56-3.66 2.5-3.31 3.31.51 1.21 7.82-.61 13.26-2.6a66.15 66.15 0 0 0 13.5-6.87c14.3-9.12 21.45-13.69 23.45-15.16 13.25-9.73 21.34-15.66 26.3-22.51 2.13-2.93 4-4.79 7.82-8.52 4.45-4.38 5.63-4.8 6.39-4.5 2.06.8 1.55 7.13.95 10.66-2.06 12-10.17 20.35-13.27 23.45-22 22-33 33-45.72 42.64-15.47 11.71-10.83 6.43-30.32 20.6-15.47 11.26-23.41 18.23-31.5 15.64-3.87-1.24-6.33-4.21-9.71-8.29-5.7-6.87-7.55-14-8.77-18.95-1.39-5.63-2.29-9.29-1.42-14.22 1-5.5 4.43-13.95 10.42-15.39 3.11-.75 8.52 0 8.53 0a24.15 24.15 0 0 0 2.37 2.84c4.47 3.19 22-18.71 22-18.71 10.49-13.09 16.21-22.05 28-39.56 6.93-10.34 13.35-21 20.37-31.27 7.5-10.95 15.2-21.63 12.56-24.64-1.54-1.75-5.08.8-12.08-.71-4.65-1-10.59-3.73-10.45-6.16zM357.39 165c-1.24 3.14 7.52 12.19 13 16.58a4.93 4.93 0 0 1 2.13 2.84c.43 2.29-1.7 4.41-10.18 11.37-4.36 3.59-8.34 7.62-12.56 11.37-1.79 1.6-3.46 3.07-3.08 4 .54 1.33 4.82 1.1 8.06.24 4.58-1.22 5.86-3.36 12.79-8.53 8.48-6.32 11.88-7.08 13.5-7.34a16.06 16.06 0 0 1 7.58.23c3.87 1.17 4.35 3.21 8.06 4 .66.15 5.49 1.22 8-1.42 2.26-2.34 1.46-6.28 1-8.77-1.24-6-4.88-9.95-7.35-12.55a40.07 40.07 0 0 0-12.08-8.53 48.27 48.27 0 0 0-11.84-4c-1.02-.17-15.62-3.02-17.03.51zM357.39 264.74c.28 2.74 14.75 4.06 17.06 4.26 6.28.53 9 .09 11.37 2.37 1.2 1.17 1.95 2.73 2.84 8.53a84.06 84.06 0 0 1 1.19 14.21 177.74 177.74 0 0 1-2.61 22.74c-2.22 14.27-3.33 21.4-3.08 25.35a51.37 51.37 0 0 0 9.95 26.53c6.05 8 18.48 13.4 43.35 24.16 21.64 9.36 16.67 4.75 26.53 9.95 5.28 2.78 9.67 5.67 14.21 4 3.87-1.41 6.61-5.66 6.87-9.72.46-7.19-7-11.8-9-13-2.29-1.41-5-2.51-14.45-3.55-11.17-1.23-12.74-.27-20.84-1.18-8.4-.95-14.6-1.65-21.32-5.69a37.84 37.84 0 0 1-13.27-13.7 39.28 39.28 0 0 1-5-17c-.79-10.61 2.6-18.79 6.39-28 3.22-7.79 4.84-11.68 8.29-16.35 3.27-4.41 5.25-5.64 5-8.05-.54-4.8-8.83-4.5-15.4-12.32-4.27-5.08-2-6.71-6.16-11.85a27.28 27.28 0 0 0-22.27-9.94c-4 .27-7.05 1.57-12.79 4-4.06 1.73-6.98 2.98-6.86 4.25zM308.12 287.24c-7 7.94-10.11 17.78-12.79 28.19-3.21 12.45-4.81 18.67-5 23.92-.23 7.39-.56 18.22 6.15 28.43 2.23 3.39 7.92 12 18 13.5 6.06.89 14.93-.65 17.29-5.92.92-2.06.91-4.81-8.05-20.37-8.18-14.2-10.24-15.49-12.32-22.27a54.12 54.12 0 0 1-2.13-19c.78-15.38 3.55-24.87 3.55-24.87.58-2 1.65-5.38.71-5.92-1.08-.61-4.44 3.2-5.41 4.31zM233 313.77a79.81 79.81 0 0 0-15.16 26.53c-2.25 7.46-3.54 11.71-2.84 17.77a31.85 31.85 0 0 0 8.76 18.24c2.12 2.09 4.11 4 7.11 4.26 4.79.42 9.82-3.57 11.13-8.05 1.14-3.91-1.17-6-3.79-13.74a71.21 71.21 0 0 1-3.55-18.95 63.53 63.53 0 0 1 1.18-20.14c1.19-5 2.91-9.14 1.9-9.71-.74-.42-2.56 1.34-4.74 3.79z" transform="translate(-58.18 -74.63)"/></svg>