<svg data-name="Layer 1" xmlns="http://www.w3.org/2000/svg" viewBox="0 0 457.8 471.74"><path d="M142.8 61.4c3.59 7.41 3 12.87 2.37 15.67-.55 2.37-2.37 5.37-6 11.38-3.93 6.47-5.9 9.71-8.78 12.76-3.69 3.91-5.54 5.87-8.53 7.56-2.79 1.58-5.44 2.39-5.61 4.23s1.91 3.12 2.11 3.25c1.91 1.27 4.14 1 6.42.57a58.43 58.43 0 0 0 10.31-2.42c5.51-2 3.26-.53 16.34-4.23.33-.09 7.49-2.13 16.74-5.36a52.52 52.52 0 0 0 11.71-5.94c3.15-2.13 3.75-3 4.06-3.9 1.22-3.37-1.61-7.18-5.69-12.52a75.76 75.76 0 0 0-9.27-9.91c-1.11-1-4.18-3.87-8.45-7.16-7.47-5.75-7-4-9.59-6.74-1.08-1.16-2.51-2.91-4.55-2.93a4 4 0 0 0-2.85 1.22 4.3 4.3 0 0 0-.74 4.47zM117.79 179.4c2.15 3.9 6 6.68 9.91 9.17a66.3 66.3 0 0 0 11.68 6.36c3.58 1.45 7.74 3.14 11.69 3.4 8.13.55 12.41-5.18 24.4-13.45 8.5-5.86 15.25-9.13 25.14-13.91a230.06 230.06 0 0 1 27.51-11.09c19.34-6.58 30.3-10.3 45.4-11.38 0 0 30.86-2.22 46.29-7.1 1.21-.39 4-1.33 4.73-3.55 1.19-3.65-4-8.31-5.47-9.62-5-4.51-10.57-6.06-17.16-7.83-8.14-2.19-8.15-.85-14.49-3.11-3.35-1.19-5.75-2.43-9.76-2.51a14.94 14.94 0 0 0-7.84 1.62c-3.8 2.15-5.35 5.93-5.91 7.1-4.17 8.67-20.53 11.86-30 14.2-1.93.48-16.47 6.13-45.55 17.45-13.45 5.24-27.46 9-40.81 14.49-6.76 2.78-10.45 4.69-15.68 3.85-3.48-.56-7.84-2.37-12-.59-2.18.93-2.69 2.17-2.81 2.51a5 5 0 0 0 .73 3.99zM178.69 207.64c7.67 7.6 11.51 11.4 15.84 15 6.89 5.8 10.33 8.7 11.78 13 1.94 5.71-.51 10.09-4.84 21.07-8.4 21.29-5.25 20.16-13.35 38.74a236.29 236.29 0 0 1-11 22.24c-1.52 2.71-2.18 3.75-9.29 15.71-7 11.76-7.56 12.78-9.16 15.44-10.45 17.39-20.58 31-22.66 33.8a309.38 309.38 0 0 1-20.17 24.64 292.39 292.39 0 0 1-22.09 21.77c-7.71 6.84-18.21 16.15-30.73 23.85-6.54 4-12.5 9-19.36 12.48-1.51.76-5.57 2.74-5.29 3.68.21.69 2.63.58 4.65.48a35.84 35.84 0 0 0 7-1c22-6.1 47.05-25.28 47.05-25.28 18.93-14.51 28.39-21.77 36.18-29.13 20.23-19.17 32.6-36.38 42.57-50.42 13.74-19.34 23.84-33.56 33.29-55.7 14.55-34.08 4.42-32.72 17.93-66.1 2.18-5.41 6.2-14.7 2.24-22.73-3.14-6.37-10.86-11-17.77-12.48-6.4-1.33-8 1-14.08-1.28-5.81-2.16-7.06-5.27-12.17-5.44-3.7-.13-8.15 1.33-8.64 3.68-.27 1.6 1.25 3.14 2.07 3.98z"/><path d="M.26 286.4c1.19 7 7.48 10.93 12.23 13.83 3.53 2.16 13.93 8.33 27.66 7.62 16.25-.83 23.72-10.61 41.54-22.45 8.46-5.63 23.34-11.78 53.12-24.06 14.07-5.8 35.78-14.7 64.95-23.86 11.94-3.74 31.95-8.71 72-18.64 26.21-6.5 42.21-10.27 63.35-12.63a158.73 158.73 0 0 1 43.69.68 100.66 100.66 0 0 1 20 4.94c11.35 4.17 12 7 22.46 10.42 15.39 5.09 24.35 2.48 26.46 1.8 3.33-1.06 9.27-3 10-6.81 1.42-7.29-16.79-16.25-18.84-17.24-14.89-7.2-27-6.82-51.92-7.82-31.82-1.28-27.18-2.5-40.9-2.41-19.45.13-38.12 2.64-75.17 12-37.44 9.49-40 12.41-85 25.26-64.62 18.46-61 12.92-85.6 23.25-10.62 4.47-28.2 10.4-63.35 22.26-6.86 2.31-10.3 3.37-15.23 3.6-10.08.48-15.51-3-19.25.41-3.37 3.1-2.35 9.03-2.2 9.85zM215.12 323.23c.67 5.43 7 4.83 14.82 14.32 1.9 2.31 3.41 4.64 6.78 6.53a21.28 21.28 0 0 0 7.29 2.26c9.89 1.06 19.68-8.05 37.68-14.07a50.71 50.71 0 0 1 21.35-2.51c7 .75 9 2.62 9.79 3.52 3.09 3.51 1.74 8.23.5 17.58-1.83 14 .2 11-2 30.64-1.31 11.64-2 17.46-2.26 19.09-1.7 9.18-3.45 13.67-1 16.07s7.32 1.08 11.3 0c3.06-.82 11.17-3 17.58-10 7.05-7.74 4.42-13 10.55-33.41 3.83-12.76 5.77-19.21 10.55-27.12 4.34-7.18 7.65-14.93 11.55-22.35 1-2 1.69-3.19 1.76-5 .27-6.45-7.08-9.49-18.33-19.09-11.56-9.85-13-14.51-23.36-19.59-6.75-3.32-10.31-3.38-13.06-2.51-4.81 1.53-7.74 6.1-9.8 9.3-3 4.63-2.71 6.59-4.26 9.29-3.71 6.44-11.15 5.58-35.67 10.8-10 2.12-14.61 3.51-24.86 5.27-8.53 1.46-12.79 2.2-15.07 2-3-.24-5.24-.83-7.54.5a9.26 9.26 0 0 0-4.29 8.48zM156.6 337.8c-1.88 6.1 14.24 11.28 24.62 28.63 3.37 5.65 4.87 10.47 7.78 19.84 2.13 6.86 4.7 15.14 5.53 25.87 1.25 16.31-3.12 17.46 0 27.88 2.5 8.36 5.29 7.56 9.79 20.35 1.79 5.09 2.52 8.54 5.78 10.29a11 11 0 0 0 12.31-2c3.45-3.73 1.72-9.29-.26-21.09-1.54-9.23-2.14-18.59-3.26-27.88-2.69-22.23-1.43-21.54-3.52-31.4-2.31-10.9-4.2-19.33-10.8-27.62-1.89-2.39-6.12-5.7-14.56-12.31-18.28-14.31-23.25-15.75-27.63-14.57-1.22.32-4.95 1.33-5.78 4.01z"/><path d="M227.43 420.4c19.72-2.91 34.6-6.1 39.93-7.28 14.79-3.27 26.88-6.53 26.88-6.53 9.34-2.53 8.41-2.54 11.05-3 6.38-1.14 21.71-2.8 33.9 5.53 2.68 1.83 7.1 4.94 7.54 9.79a10 10 0 0 1-1.51 6c-3.53 5.25-12.3 4.65-23.86 4.52 0 0-13.74-.15-29.38.76a179.46 179.46 0 0 0-32.15 4.27c-8.64 2-17.71 4.86-25.37 7.28-4.93 1.55-7.39 2.33-10.8 3.52-18.55 6.44-21.07 9.55-25.11 8-7-2.61-11.62-16.39-7-24.11 3.35-5.63 9.91-4.88 35.88-8.75zM301.82 2.68c-3.25 4.06-.43 12.12 0 13.31 2.39 6.55 6.44 7 7.07 11.41.88 6.21-6.17 12.15-11.41 16.57-6.67 5.62-13.32 8.45-19.29 17.11-.89 1.29-1.42 2.22-1.09 3 1.5 3.49 18.69-.39 39.39-5.16 17.43-4 25.51-6.69 33.68-3.53a16.05 16.05 0 0 0 7.07 1.36c5.72-.32 12.39-4.19 14.12-9.51 2.3-7-4.79-14.47-12.76-22.82A78.75 78.75 0 0 0 334.96 7.3c-2.27-1.05-26.94-12.35-33.14-4.62z"/></svg>