<svg data-name="Layer 1" xmlns="http://www.w3.org/2000/svg" viewBox="0 0 485.71 441.92"><path d="M148.93 13.39c-.46 7.58 20.37 15.37 24.61 17 12.23 4.57 18.4 3.71 25 10.49a31.5 31.5 0 0 1 7.16 12.26c1.39 4.1 4.34 12.84.51 17.6-3.15 3.91-9.08 2.88-19 2.83s-19.88 2.11-29.86 2.82c-24.38 1.73-47.52 8.37-66.17 13.72-15.47 4.44-31.65 6-47.21 10.09-3.27.86-9.25 2.49-15.34 0-4.88-2-5.6-4.91-13.31-11.3C9.8 84.33 3.55 79.15.79 80.83c-.86.52-1.51 1.77.4 16.95 1.71 13.6 2.45 14.27 2.42 20.17 0 5.26-.61 6.47.41 8.88 2.94 7 13 9 14.52 9.28 14.2 2.78 24.8-9.19 41.57-19 7.81-4.56 24.44-8.69 57.7-17 19.72-4.9 37.87-9.41 63-13.32a623.42 623.42 0 0 1 65.37-6.45c22.86-1.1 43.21-.33 83.93 1.21 54.14 2 81.41 3.15 90.79 7.66 13.58 6.53 27.52 16.92 45.6 13.32 2.05-.41 16.85-3.54 19-12.51 2.49-10.57-14.39-21.63-16.54-23-7.4-4.74-14.84-6.61-32.28-8.47-25.65-2.74-40.76-2.43-40.76-2.43-9.53 0-21.27.44-65.77 4-16.14 1.3-32.38 1.47-48.42 3.63-20.58 2.78-34.8 6.31-37.93.81-2.79-4.9 6.35-10.63 6.45-23 .1-11.18-8.63-19.66-13.31-24.21-10.85-10.54-23.41-13.2-33.5-15.34-6.34-1.34-18.24-3.73-32.68-.4-4.17 1.03-21.41 5.01-21.83 11.78zM167.02 157.34c-4.27 2.75-5.79 10.95-2.62 16.58s9.9 6.74 11.35 7c8.45 1.42 11.73-3.65 26.17-9.31a173.59 173.59 0 0 1 29.66-8.43c8.6-1.63 12.68-1.68 14-4.65 1.93-4.47-3.63-12.86-10.76-15.12-3.25-1-5.88-.5-11.05.58-2.28.47-7.35 1.67-18.61 7-9.43 4.44-9.89 5.49-14 6.1-2.46.38-5.81.25-12.51 0-8.96-.37-9.97-.81-11.63.25zM125.44 233.24c1 5.45 5.68 6.38 12.21 13.38 6.37 6.84 5.43 9.76 9 10.76 4.73 1.32 8.14-3.29 18-9 6.88-4 12.32-5.86 19.78-8.44 3.09-1.06 6-1.92 28.21-6.1 14.77-2.79 22.33-4.2 31.11-5.53 11.15-1.68 16.73-2.52 18.62-2.62 7.55-.36 11.74.28 17.44-2.32 2.4-1.1 8.4-3.84 8.73-8.44.35-5-6.25-8.77-6.69-9-4.83-2.68-7.36-.59-16.29-2-7.69-1.24-7.8-3.12-13.37-3.49-6-.39-9.67 1.55-16.58 4.07-8.11 3-16.68 4.45-25 6.69-23 6.19-19.52 5-27.33 7.27-8.61 2.51-17.28 4.79-25.89 7.27a56.59 56.59 0 0 1-15.04 2.56c-5.09.11-7.64.16-10.18-.58s-3.94-1.63-5.23-.87c-1.72.98-1.91 4.17-1.5 6.39zM146.35 301.58c-.4 5.32 5.64 8.06 17.16 18.33 11.89 10.58 11.61 13.15 16.58 14.24 5.36 1.19 7.55-1.39 23.84-8.43 11-4.75 17.13-6.66 29.38-10.47 14-4.35 15.8-3.91 16.86-2.91 5.79 5.46-7.93 30.1-9.3 32.57-7.35 13.2-15.28 21.36-12.22 26.47 1 1.64 2.91 2.65 6.69 4.65a31.88 31.88 0 0 0 9.6 3.49c7.11 1 13.16-3.38 18-7 4.64-3.43 9.56-8.11 16.57-18.32 11-16 8.15-18 16.87-29.08 8.32-10.6 13.26-11.8 14.54-19.48 1.43-8.57-3.22-16-4.65-18.33-4.64-7.43-11.09-10.72-16.29-13.37-7.25-3.7-12.19-6.22-18-4.95-4.57 1-6.9 3.71-13.67 4.08-1.55.08-3.44 0-6.1 0-7.37-.14-7.78-.62-9.6 0a11.74 11.74 0 0 0-7.27 7.85c-.88 3.39.84 4.47 0 6.69-1.33 3.5-6.91 4.18-19.48 5.81-12.38 1.61-18.58 2.41-19.78 2.62-13.09 2.26-14.13 3.9-19.48 2.91-4.71-.87-5.62-2.45-14.25-4.37-6.76-1.49-9.29-1.2-11.34 0a9.57 9.57 0 0 0-4.66 7zM99.26 316.12a31.3 31.3 0 0 0 3.49 15.39c5 9.19 12 9.59 24.43 21.23 4.21 3.93 9.42 8.87 14 16.57 4.77 8.1 6.41 15.22 8.72 25.59 3.7 16.62 1.75 19.86 6.4 29.67 3.31 7 7.68 12.46 14 15.41 2.07 1 6.43 3 9.89 1.16 2.18-1.17 3.88-3.83 4.65-11.05a64.82 64.82 0 0 0-2.33-24.14c-5.34-20.18-8.37-21.88-11.63-37.51-1-4.62-2.15-9.2-3.2-13.81-2.06-9-2.72-12.22-5.23-15.85-2.22-3.21-4.6-4.89-8.44-7.56-6.56-4.57-9.64-5.12-21.22-10.47-12.61-5.83-14.35-7.66-19.78-7.85a28.21 28.21 0 0 0-13.75 3.22z"/><path d="M179.24 381.27a158.65 158.65 0 0 1 40.11-7.57c37.89-2.26 41.89-3 52-.87a64.84 64.84 0 0 1 26.17 12.51c8.13 6.54 8.51 10.44 8.44 12.21a11.84 11.84 0 0 1-8.15 10.18c-3.87 1.12-5.16-1.31-13.08-2.62-7.26-1.2-8.49.47-14.54-.87s-7.52-3.51-12.22-5.53c-2.67-1.15-5.66-1.95-24.71-.87-16.51.93-24.76 1.4-30.83 3.2-3.83 1.14-7.79 2.64-15.7 4.65-12.15 3.09-14.55 2.53-16.29 1.46-4.85-3-6.61-11.17-4.07-16.87 2.39-5.21 7.84-7.34 12.87-9.01z"/></svg>