<svg data-name="Layer 1" xmlns="http://www.w3.org/2000/svg" viewBox="0 0 449.02 493.07"><path d="M156.35 19.78c-1.31 1.52-.08 3.81.22 7.31a25.53 25.53 0 0 1-1.43 9.14c-.87 2.7-2.49 5.24-14.21 14.34-5.77 4.48-8.65 6.72-13 9.55-9.09 5.9-13.64 8.85-17.45 9.45a41 41 0 0 0-12.09 3.55c-2.36 1.13-3.09 1.8-3 2.27.21 1.08 4.84 1 6.36 1 10.41-.14 20.11-3.63 23.73-4.91 24.85-8.83 22-6.15 28.18-9.55 9.5-5.19 12.94-9.67 20.27-9.18 3.69.25 7.2 1.67 9.91-.45s2.69-5.86 2.73-7.46c.2-7.33-5.05-12.74-6.45-14.18-4.56-4.69-5.81-2.28-12.46-8.09-1.59-1.39-3.78-3.51-7.09-3.82-.83-.08-3.07-.28-4.22 1.03zM96.6 91.82c-1.65 2.66 1.89 6.87 6.66 15.5 2.86 5.17 5.06 9.14 6.4 13.19 1.27 3.86 1.74 7.67-.82 28-1.74 13.85-1.7 10-3.26 22.3-.88 6.84-3.06 25-7.75 25.84a15.63 15.63 0 0 0-4.76 1.49c-1.6.8-1.74 1.22-1.77 1.36-.39 1.56 3.05 4.07 6.25 5a13.09 13.09 0 0 0 7.33 0c4.95-1.52 7.76-5.81 9.57-9 5.17-9 7-17 9-23.83 3.07-11 3.58-9.56 10.8-33.19 3.19-10.45 4.31-14.74 2.44-19.76-2.23-6-7.46-9.67-10.79-12-8.33-5.87-12.32-3.74-17.11-9.57-2.64-3.21-3.64-6.55-6.93-7.13-1.76-.23-4.26.21-5.26 1.8z"/><path d="M.6 170.75c-1.62 3 .23 8.34 3.66 10.18 2.89 1.54 6.27.31 8.15-.41 15.68-6 23.52-8.94 25-9.77 8.82-4.78 6.34-2 30.35-11.82 20.26-8.26 18.33-8.7 30.19-13.26 22.54-8.61 40.49-11.17 59.27-13.85 10.59-1.51 15.15-1.64 20-1.22 10.08.89 13.2 3.51 25.87 5.3 9.79 1.38 19.44 2.75 21.38-1s-4.45-11.44-10.22-15.23a28.73 28.73 0 0 0-11.2-4.27c-6.85-1.18-8.18 1-14.87-.21-6.46-1.15-6.67-3.43-11.81-3.87-5-.42-8.31 1.41-14.67 4.28s-13.3 5-19.75 7.94c-13.5 6.13-19.9 6.13-42.57 13.4-19.38 6.2-36.82 13.28-53.77 20.16-18.65 7.57-21.77 9.57-29.94 10.18-6.72.51-13.12-.18-15.07 3.47zM47.03 218.41a79.73 79.73 0 0 0 6.32 25.86c4.45 10 7.47 15.75 12 24.85 7.89 15.81 11.83 23.71 14.86 31.57 4.91 12.71 7.36 19.06 8.15 22 1.09 4.06 3.21 7.79 4.48 11.81a5.84 5.84 0 0 0 1.43 2.65c2.87 2.8 9.72 2.15 12-1.23 1.66-2.43.59-5.76-.2-8.14-3.28-9.83-4.92-14.75-9.78-24.65-1.72-3.5-.33-1.18-9-25.66-3.33-9.47-5.76-16.33-9.16-25.25-7.68-20.12-5.16-10.91-11.21-26.48-3.77-9.72-6.13-16.85-11.81-18.33-.92-.24-3.5-.75-5.5.61-2.76 1.92-2.82 6.5-2.58 10.39zM83.9 216.98c-1.22 2.57.43 5.66 1.22 7.13 2.87 5.34 8.28 7.48 10.59 8.35 3.36 1.27 7.37 2 14.26 1.63 15.78-.94 21.6-6.57 25.87-3.26 2.18 1.7 2.34 5.34 2.64 12.63.17 3.93-.1 6.2-1.83 24 0 0-.29 3-.2 9 .1 7 .73 8.1 1.42 8.76s2.15 1.65 10.59 0c7.08-1.39 10.62-2.08 12.22-3.67 2.9-2.87 2.06-6.42 1.23-23-.38-7.45-.61-12.13-.61-18.54 0-8.57 0-12.86.2-16.7.55-9.91 1.54-13.37-.82-15.48-1.52-1.35-3.22-1.06-10.18-.81-11.35.41-9.36-.27-14.87.2-8.33.71-10.13 2-20.36 3.47-5.68.79-8.53 1-12.23 1.22a56.46 56.46 0 0 0-11.4 1.22c-6.51 1.54-7.5 3.35-7.74 3.85z"/><path d="M94.08 275.84c8.93-2.1 12.44-.72 21.59-2.24 1.25-.21 4.77-1.16 11.82-3.05 6.87-1.86 13-3.61 21.58-5.71 0 0 3.52-.85 10.8-1.83 5.41-.73 6-.52 6.52-.2 5.2 3.37-1.27 20.88-1.84 22.4-1.71 4.64-2.61 7-4.68 8.55-4.12 3.11-8 .89-17.92 1.43-2 .11-7 1.09-16.91 3.06-10.53 2.08-15.8 3.12-17.72 3.86a35.91 35.91 0 0 1-8.55 2.25c-3.31.44-5 .66-6.32 0-3.27-1.62-2.17-5.71-5.5-14.06-2.27-5.71-4-6.9-3.25-9.16 1.02-3.04 5.28-4.1 10.38-5.3zM271.33 7.17c-.9 2.15-.56 4.82 1.77 9.52 2.7 5.42 5.61 8.58 8.19 11.72 3.51 4.28 7.56 9.21 10.61 15.7a52 52 0 0 1 4.65 18.56c.51 5.62.77 8.42-.67 10.18-3.39 4.14-9.87-.7-22.56 1.33-7.26 1.15-8.31 3.24-19 4.86-8 1.21-10.54.51-12.39-.66-3.49-2.22-3.43-5.42-7.74-7.3-2.28-1-5.85-1.65-7.3 0-.56.64-.83 1.66-.22 4.87a34.63 34.63 0 0 0 3.32 9.73c2.86 5 3.63 3.61 8.4 10.39 2 2.87 3.49 5.41 6.86 7.75a24.09 24.09 0 0 0 3.1 1.77c7.26 3.33 29.26-8.8 42.25-13.72 6.71-2.54 3.51-.31 40.7-6 34.22-5.2 30.15-6.01 38.91-6.14 16.44-.25 24.6-1.06 40.92-2.66 3.55-.35 9.68-1 11.72-5.09 2.26-4.49-1.74-10.64-2.88-12.38-3.14-4.83-7.24-7.1-15-11.28-6.33-3.41-9.5-5.11-13.71-5.75-6.33-1-11.42.49-17.92 2.43-4.27 1.28-7.62 2.78-14.15 5.75-10 4.54-13.83 6.94-21.68 9.29-6.22 1.86-9.55 2.81-11.28 1.11-2.45-2.4 1.29-7.12 2-18.14.34-5.35.64-11.27-2.66-17a24 24 0 0 0-7.74-8c-5-3.41-6.79-2.36-16.59-6-8.78-3.23-13.17-4.85-16.14-7.52-2.33-2.09-4.84-5.08-7.3-4.42-1 .26-1.76 1.13-3.32 2.87a16.42 16.42 0 0 0-3.15 4.23zM320.88 101.4c-1.88 3.68.44 6.58.88 12.83a32.19 32.19 0 0 1-1.77 12.44c-1.33 4.41-2.6 5.38-8.4 14.6s-2.89 5.61-10.84 19c-4.08 6.89-6.12 10-4.87 11.72 1.44 2 6.36 1.09 8.63.67a25 25 0 0 0 7.3-2.66c5.52-2.86 8.79-4.56 13.05-8 11.32-9 8.39-13.12 18.36-20.35 4-2.87 7.51-4.47 12.39-9.51 4.66-4.82 5.22-7.3 5.31-8.85.22-4-2.53-7.13-5.31-10.17-3.46-3.78-5.06-3.83-16.81-10.84-7-4.18-9.54-6-12.83-5.09a8.49 8.49 0 0 0-5.09 4.21z"/><path d="M248.33 130.82c-2.14 3.19.61 8.31 3.76 14.16 1.9 3.54 3 5.63 5.31 8 4.64 4.74 6.92 3.16 11.94 7.52 2.27 2 4.61 5.44 9.29 12.39 1.1 1.63 2.27 3.42 4.2 6 3.75 4.93 5.66 7.39 7.52 7.3 3.08-.15 5.05-5.78 6-8.41a25.65 25.65 0 0 0 .66-15.92c-1.35-4.6-3.65-7.35-7.3-11.72a47.91 47.91 0 0 0-13.49-11.73c-6.31-3.56-6.76-1.66-13.05-5.53-4-2.46-6.52-4.88-10.18-4.42-.61 0-3.31.34-4.66 2.36z"/><path d="M232.62 186.34c-2.54 2.39-2 7.84 0 11.28 1.18 2 2.7 3.08 9.07 6.64s9.73 5.43 10.62 5.75c8.21 2.92 14.56-3 31.85-10.18 8.82-3.66 17-7 28.09-8.84 5.89-1 13.51-1.38 28.76-2.22 14.12-.77 19.22-.74 21-4.2 2.06-4-1.48-10.21-4.86-13.49-1.17-1.13-4.63-4.15-14.16-5.31a58.75 58.75 0 0 0-21.46 1.55c-24.18 5.84-24.51 11.89-41.14 13.71-6.94.76-11.16.17-20.35 2.21-6.83 1.52-8.38 2.71-13.71 2.88-7.82.25-11.25-2.08-13.71.22zM256.29 237.44c-.23 3.4 5.68 5.31 14.6 11.5 9.45 6.55 8 8 11.72 9.07 6.58 1.91 10.86-2.56 29.88-12.52 11.65-6.11 17.48-9.16 21.66-10.5 7.73-2.49 16.12-3.92 24.34-10.84 2.64-2.22 4.21-4.12 3.83-5.83-.76-3.48-9.16-4.42-12.83-4.83-2.74-.31-3.06.07-12.67.33-6.73.18-6.18 0-7.17.17-6.79 1-8.3 4.91-16 9.33-6.61 3.79-12.82 5.09-18 6.17-4.52.94-3.82.35-13.67 2-9.48 1.58-9.73 2.07-12.66 1.83-4.13-.33-6.6-1.53-9.5 0-.37.21-3.37 1.78-3.53 4.12z"/><path d="M285.32 262.99a41.44 41.44 0 0 0 .5 9.17c.24 1.42.82 10.95 2 30 .44 7.14.57 14.54.83 29.33.35 19.84.53 29.76.34 41.17-.4 23.08-2 43.57-2.34 47.67a366.62 366.62 0 0 0-.33 43.34 52.62 52.62 0 0 0 .83 7c1 5.38 2.58 8.83 5.67 15.5 2.5 5.41 3.44 6.53 4.83 6.83 2.61.56 5.18-2.15 5.67-2.67 4.67-4.91 3.64-12.91 3.17-18.33-.94-10.57.76-21.22.66-31.84-.07-8.58.17-3.8.67-33 .18-10.69.42-24.51.5-41.83.12-26-.26-27.37.17-42.51.34-12.25.64-22.94 1.66-32.66.54-5.11.55-10.27 1.34-15.34.51-3.29 1-5.56.5-8.83-.17-1.05-.77-4.28-4-9.34-3.55-5.53-8-12.5-13-11.83-3.59.48-5.85 4.69-7.17 7.17-2.08 3.88-2.32 7.57-2.5 11z"/><path d="M316.65 274.32c8.22-1.18 16.59-1.23 33.34-1.33 17.1-.1 16.93.78 27.5.17 17.89-1 19.9-3.65 29.67-1.84s16.91 6.09 22.29 9.35a72.8 72.8 0 0 1 14.17 11.83 19.6 19.6 0 0 1 4.67 8c.57 2 1.13 4 .16 5.67-1.39 2.39-5.05 2.6-9 2.83a27.46 27.46 0 0 1-8-.5c-8.33-1.87-12.74-7.54-19.17-11.83-6.13-4.1-12.08-5.23-24-7.5-7.69-1.47-11.72-1.42-28.33-2.17-26.36-1.2-22.42-1.61-28.17-1.5-22.42.43-44.69 6-49.17 7.17-3.4.85-10.16 1.57-23.67 3-5.63.59-8 .76-10.16-.84-4.82-3.63-.37-10.59-4.84-20.28-1.77-3.84-2.34-2.47-10.94-14.27-6.18-8.48-6.8-10.44-6.18-11.17 1-1.18 5.16.81 6.9 1.66 9.78 4.76 15.19 11.57 18.78 15.46 3.28 3.55 12.22 13.23 22.83 16.41 12.38 3.68 16.12-4.69 41.32-8.32z"/></svg>