<?xml version="1.0" standalone="no"?>
<!DOCTYPE svg PUBLIC "-//W3C//DTD SVG 1.1//EN" "http://www.w3.org/Graphics/SVG/1.1/DTD/svg11.dtd" >
<svg xmlns="http://www.w3.org/2000/svg" xmlns:xlink="http://www.w3.org/1999/xlink" version="1.1" viewBox="0 0 256 256">
  <g transform="matrix(1 0 0 -1 0 204)">
   <path fill="currentColor"
d="M176 -1v1h10q5 4 13 0q13 -4 23 -11q2 0 0 -3t-4 -2q-24 16 -40 12q-57 -2 -105 -14q-11 -3 -18 1q-5 2 1 2q12 0 28 3q21 5 45 7q-8 12 -4 13v1q1 1 1 6q-21 -6 -26 -4q-2 0 -2 2q1 0 4 1q17 4 24 6v25q-3 -1 -6 -1q-3 -1 -5 -1q1 -6 -2 -5q-9 1 -14 6q-3 5 -8 7
q-3 0 -1 5q5 3 2 6q-14 18 -2 26q2 1 1 -1q-2 -15 1 -21q8 -14 20 -21q3 0 15 3v17q-3 -1 -5 -1q-2 -1 -6 -1q-2 0 -3 1q0 1 2 2q9 2 12 3v20l-9 -3q-1 -1 -2 -1q-6 -2 -10 -1q-3 0 -4 1q0 1 3 2h3q11 3 18 6v19q-38 -9 -62 -15q-12 -4 -22 1q-5 1 0 2q16 -1 27 3q4 1 16 3
q25 6 40 10q0 8 -3 12q-2 3 -1 3q1 1 4 0q12 -7 9 -9v-4q13 2 42 7q2 0 4 1q3 12 12 7q14 -7 30 -14q2 -2 2 -3q0 -2 -2 -2q-5 -2 -16 3t-24 4q-12 0 -49 -7q0 -4 -1 -9v-11q16 4 25 5q8 1 15 0q9 -4 21 -17q2 -3 1 -5q-1 -1 -3 -1q-6 0 -7 -4q-12 -23 -28 -31q-4 -1 -7 -4
h-1q-5 -4 -17 2v-17q14 4 14 6q1 4 16 -2q2 -1 2 -2q0 -2 -2 -2q-11 0 -28 -5h-2v-13q1 -5 1 -8v-1q21 3 44 4zM134 154h1q4 5 9 15q1 2 3 4q-13 -3 -34 -9q-4 -1 -5 -1q8 -14 2 -14q-8 -2 -11 8q-1 0 -2 2v2q-2 -2 -4 -2q-12 -4 -33 1q-3 0 -3 1q1 1 4 2q15 0 34 3
q-1 0 -1 1q-1 2 -1 3q-2 5 -9 15q-2 2 1 1q12 -7 19 -18q24 4 45 10q4 9 7 20q1 7 -1 9q-3 1 -2 2q0 1 3 1l10 -5q4 -1 1 -6q-2 -3 -6 -10q-3 -5 -4 -8v-1l16 4q6 1 10 5q2 6 8 2q2 -2 7 -2q4 -1 7 -2q2 -2 2 -4q-1 -2 -4 -1q-8 1 -24 -1q-11 -3 -25 -6q-6 -13 -16 -22
q8 -2 15 -6q2 -2 1 -3q0 -1 -3 -1q-11 2 -55 -15q-8 -2 -1 2q7 3 13 6q13 6 19 9q4 2 4 3q1 2 -2 4q-5 2 2 2h3zM132 91v-19q2 0 5 2l2 2q4 2 13 1q2 -1 2 -2q0 -2 -2 -2q-3 -1 -8 -3q-6 -3 -12 -4q-2 -8 -1 -16q5 1 8 3l9 3q8 0 10 -2q1 -2 -3 -4q-6 0 -18 -3q-3 -1 -6 -1
v-4q13 -4 21 1q19 10 25 30q5 20 -5 22q-8 6 -40 -4z" />
  </g>

</svg>
