<?xml version="1.0" standalone="no"?>
<!DOCTYPE svg PUBLIC "-//W3C//DTD SVG 1.1//EN" "http://www.w3.org/Graphics/SVG/1.1/DTD/svg11.dtd" >
<svg xmlns="http://www.w3.org/2000/svg" xmlns:xlink="http://www.w3.org/1999/xlink" version="1.1" viewBox="0 0 256 256">
  <g transform="matrix(1 0 0 -1 0 204)">
   <path fill="currentColor"
d="M133 196q2 5 9 3q5 -2 10 -5q2 -2 1 -3q0 -1 -2 -1q-11 -2 -23 -5q-13 -5 -29 0q-3 0 -3 1q1 1 4 2q26 1 33 8zM112 176q-3 1 1 2q13 -1 12 -4q-2 -3 -1 -5q56 10 79 1q12 -5 18 -19q1 -3 0 -5q-1 -1 -4 0q-10 3 -20 0q-9 -2 -20 -2q-5 0 -4 1q0 1 5 2q18 4 30 9q4 1 4 3
q-1 3 -6 6q-28 13 -82 1q-2 -17 -2 -36q20 11 31 29q0 2 1 2l4 -2q2 -2 2 -3l-4 -3q-14 -16 -34 -31q-1 -4 0 -14q0 -12 1 -17q0 -3 -1 -4q-2 -1 -2 2q-3 9 -4 20q-2 6 0 13q1 4 1 11v31q-5 -2 -9 -3q-16 -4 -22 -7q-8 -3 -16 -2q-3 0 0 2q7 0 18 5q9 3 29 8q0 5 -5 9z
M62 142q-4 -16 5 -23q2 -5 -3 -6q-7 0 -12 13q-2 3 2 2q-1 7 5 16q1 1 2 0q1 0 1 -2zM113 142q1 -2 1 -3t-1 -1q-11 -1 -11 -7q-1 -3 -2 -3t-1 3q3 6 -12 2q-6 -1 0 2q17 12 26 7zM140 123q2 -1 5 -1q2 -1 5 -1q4 0 8 1q6 2 6 -2q0 -2 2 -3q0 -1 1 -1q3 -1 6 -3q2 -3 -1 -6
q-2 -2 -5 1q-18 9 -28 12q-3 0 -3 1q1 1 4 2zM110 111q-12 -17 -16 -18q-5 0 -4 4q9 6 18 15q4 4 2 -1zM161 61q19 -31 34 -48q3 -6 15 -5q14 0 32 -7q7 -1 -1 -1h-13h-17q-12 0 -17 8q-6 6 -17 22q-11 15 -16 22q-1 -43 0 -53q1 -16 3 -25q0 -4 -2 -5q-3 -1 -3 0
q-13 24 -13 33q0 4 2 1t7 -9h2q1 1 1 3q-1 11 -2 28v26q-17 -31 -46 -50l-4 -1q-1 1 3 4q13 10 15 12q-6 0 -10 4l-17 17l-2 2q-2 -52 2 -61q0 -5 -2 -6q-3 0 -3 1q-10 19 -13 33q0 4 2 0q2 -5 8 -8q1 -2 2 2q-2 15 -1 44q-19 -33 -46 -47q-7 -3 0 2q36 26 45 61
q-7 -3 -16 -6q-8 -4 -20 0q-3 1 0 2q13 1 36 10q0 18 -3 27q-3 4 1 2q11 -9 11 -12q-3 -6 -2 -15q11 2 19 8q3 2 13 0q2 -1 2 -3t-3 -2q-20 -5 -27 -8l-4 -10q-2 -7 -1 -11q15 -8 30 -18q2 -1 3 -1l1 -1q0 -1 1 0q22 24 25 45q-8 -3 -16 -7q-6 -3 -20 0q-3 1 0 2q12 1 36 10
q0 24 -4 35q-2 4 1 2q13 -10 12 -13q-2 -10 -2 -22q13 4 22 9q2 3 13 0q2 -1 2 -3t-2 -2q-15 -2 -33 -8q-1 -1 -1 -3l-2 -4v-2z" />
  </g>

</svg>
